M48
;Layer_Color=9474304
;FILE_FORMAT=4:2
METRIC,LZ
;TYPE=PLATED
T1F00S00C0.50
T2F00S00C0.70
T3F00S00C0.71
T4F00S00C0.80
T5F00S00C0.90
T6F00S00C0.92
T7F00S00C1.00
T8F00S00C1.19
T9F00S00C1.20
T10F00S00C1.25
T11F00S00C1.27
T12F00S00C1.30
T13F00S00C1.40
T14F00S00C1.80
T15F00S00C2.00
T16F00S00C2.20
T17F00S00C2.30
T18F00S00C4.20
;TYPE=NON_PLATED
T19F00S00C4.20
%
T01
X016954Y03857
X017755Y038392
X018745Y038417
X015278Y038608
Y039154
X014376Y038176
X014719Y037452
X013297Y03824
X0125Y037567
X012395Y038837
X012382Y038989
Y039141
X011227
Y038989
Y038837
X010617Y038824
Y038989
Y039141
X009703Y038367
X00922
X006871Y038798
X006528Y039078
X005156Y039154
X005258Y038748
X005156Y038354
X004915Y038532
X004458Y0389
X006248Y037821
X004115Y039357
X007226Y040704
Y041059
X007277Y042494
X007722Y041783
X007557Y041605
X008585Y041681
X008915
X009563Y041592
X00955Y041059
X009373Y040958
X009284Y040704
X009665Y040538
X010084Y040526
X010224Y040424
X010147Y040272
X009957Y039853
X009804Y03923
X00936
X008115Y039307
X008014Y039649
X008547Y039916
X007455
X007633Y040221
X007811Y040323
X010439Y040704
X010363Y040881
X010274Y041224
X009969
X010185Y041999
X010706Y04177
X011278Y04144
X0111Y041262
X010757Y040678
X010732Y039929
X011024Y040056
X011227Y039611
Y039446
Y039294
X010617
Y039446
Y039611
X009639Y042939
X009182Y043129
X008776Y042786
X008712Y042558
X011849Y042672
X012141Y042774
X012344Y042545
X012395Y042393
X012421Y042062
X012408Y041821
Y041631
X012395Y04125
X012738
X012382Y040881
X011938Y041427
X011989Y041846
X012078Y042266
X012878Y042393
X01317Y042545
X012776Y042799
X013475Y042989
X014122Y043002
X014503Y042799
X014694Y042672
X014275Y042456
X014046Y04191
X014808Y041478
X014656Y041326
X015037Y040564
X015278Y040488
X014567Y040081
X014351Y039256
X014148Y03937
X012382Y039294
Y039446
Y039878
X012116Y039967
X011925Y039738
X011773Y039865
X011633Y039992
X012687
X011646Y041173
X011405Y041859
X015342Y042951
X015634Y042697
X016205
X016434Y042494
X016307Y041948
X016561
X016713Y04177
X016053Y041707
X015951Y041999
X015456Y041605
X015532Y040361
X016281Y040462
X017094Y040577
X018174
Y043002
X020104Y042532
X019787Y040526
X023355Y04572
X024714Y046431
X02319Y046101
X022758Y046444
X022898Y046723
X021984Y046812
Y04586
X020117Y045441
X020206Y044552
X020129Y044107
X020384Y04384
X020168Y04318
X01952Y044679
Y045047
X020015Y046888
X018809Y045161
X018631
X017742Y045148
X018136Y045631
X017043Y045885
X016916Y046228
X01717Y04638
X017183Y046596
X01698Y046723
X017297Y04619
X016497Y046228
X01632Y04638
X016167Y046571
X01571Y046304
X015989Y045517
X016218Y045618
X016256Y045161
X01684Y045148
X016789Y045657
X016662Y045783
X015367Y045161
X016015Y044272
X016408Y043612
X016942Y04365
X017818Y044323
X014224Y044272
X014605Y043828
X014478Y045174
X013589
X013284Y045491
X01303Y045923
X013919Y046901
X014173
X014376Y046723
X009081Y046457
Y046114
Y044704
X009665Y044729
X009817Y045364
X009081Y044044
X0087Y043294
X007811Y043243
X007277Y043383
X009474Y047523
X009881Y047371
X013119Y048247
X024727Y04972
T02
X022301Y049962
Y049809
Y049657
Y049505
Y049352
Y0492
Y049047
Y048895
Y048743
Y04859
Y048438
Y048285
Y048133
Y047981
X023216Y047955
Y04812
Y048273
Y048425
Y048577
Y04873
Y048895
Y049047
Y049212
Y049378
Y049543
Y049708
T03
X017178Y05093
Y05078
X017181Y050622
X017178Y050475
X017175Y05033
X017348Y050622
X017501
X017653
X017805
X017958
X01811
X018263
X018415
X018567
X01872
T04
X002864Y042172
X003118
X003372
Y041325
X003118
X002864
Y039801
X003118
X003372
X004896
X00515
X005404
X005658
Y041325
X005404
X00515
X004896
Y042172
X00515
X005404
X005658
X013538Y039916
X013792
X014046
X006756Y044323
X006502
X006248
X005994
X005658Y043696
X005404
X00515
X004896
X00447Y044323
X004216
X003962
Y045847
X004216
X00447
Y047015
X004978
X005232
X005486
X00574
X005994
X006248
X006502
Y045847
X006756
X006248
X005994
X003372Y043696
X003118
X002864
T05
X01141Y038584
Y038184
Y037822
Y037422
X01206
Y037822
Y038184
Y038584
X010923Y038603
Y038203
X010926Y037824
Y037424
X010276
Y037824
X010273Y038203
Y038603
X006312Y039772
Y040122
Y041039
Y041389
X006338Y042162
Y042512
X010514Y042714
X010914
Y042064
X010514
X007455Y04538
Y04573
X007328Y046647
Y046997
X00635Y043663
Y043313
X003327Y044628
X002977
T06
X003912Y038633
X004112
Y038383
X003912
T07
X00922Y042647
Y042393
Y042139
Y041885
Y041631
T08
X021215Y037821
X019183
Y038583
Y039345
Y040514
Y041276
Y042038
X021215
Y040514
Y039345
X012217Y044272
X011455
X012217Y046304
X010693
Y044272
T09
X014928Y050152
X017178
X025298Y049637
X026467
X027635
Y051887
X026467
X025298
X017178Y051117
X014928
T10
X004388Y050984
X005388
X005372Y049777
X004372
X004359Y048768
X005359
X005388Y051936
X004388
T11
X027945Y037885
X022103
Y039282
Y040602
X022129Y041949
X027971
X027945Y040602
Y039282
X027445Y043205
X026276
X025133
X010744Y047148
X012166
X025133Y049047
X026276
X027445
X012166Y05299
X010744
T12
X002959Y050546
X003467
X006668Y048692
Y048184
X009843Y048209
Y048717
X023444Y051981
Y052489
X024282
Y051981
X022581
Y052489
X003467Y051714
X002959
T13
X003505Y046965
Y046457
X013665Y047701
X013919
X014173
X014427
X014681
X014935
X015189
X015443
X015697
X015951
X016205
X016967
X017221
X017983
X018237
X018999
X019253
X020015
X020269
X021031
X021285
T14
X020015Y052591
X018999
X017983
X016967
X015951
X014935
X013919
T15
X007595Y050433
Y051333
T16
X003264Y049454
Y048054
X007557Y048451
X008957
T17
X003641Y03911
Y037906
T18
X01411Y050495
X020841
T19
X027Y0375
X0175
X003
X0275Y05275
X013043
X00325
M30
