%FSLAX42Y42*%
%MOMM*%
G71*
G01*
G75*
G04 Layer_Physical_Order=2*
G04 Layer_Color=16711680*
%ADD10R,1.00X1.60*%
%ADD11R,1.60X1.00*%
%ADD12R,1.60X1.80*%
%ADD13R,0.60X2.20*%
%ADD14R,0.60X2.20*%
%ADD15R,0.60X1.20*%
%ADD16R,1.60X1.00*%
%ADD17R,2.00X2.00*%
%ADD18R,1.60X1.60*%
%ADD19R,2.00X2.00*%
%ADD20R,1.00X0.90*%
%ADD21O,0.60X1.20*%
%ADD22R,2.00X1.40*%
%ADD23R,1.00X1.60*%
%ADD24R,0.90X1.00*%
%ADD25R,1.80X0.35*%
%ADD26O,1.80X0.35*%
%ADD27O,0.30X1.80*%
%ADD28O,1.80X0.30*%
%ADD29R,0.60X1.30*%
%ADD30O,0.60X1.30*%
%ADD31C,1.00*%
%ADD32C,0.50*%
%ADD33C,2.00*%
%ADD34C,0.30*%
%ADD35C,1.25*%
%ADD36C,0.35*%
%ADD37C,0.13*%
%ADD38C,0.10*%
%ADD39C,0.25*%
%ADD40C,4.00*%
G04:AMPARAMS|DCode=41|XSize=2.5mm|YSize=2.5mm|CornerRadius=0.63mm|HoleSize=0mm|Usage=FLASHONLY|Rotation=90.000|XOffset=0mm|YOffset=0mm|HoleType=Round|Shape=RoundedRectangle|*
%AMROUNDEDRECTD41*
21,1,2.50,1.25,0,0,90.0*
21,1,1.25,2.50,0,0,90.0*
1,1,1.25,0.63,0.63*
1,1,1.25,0.63,-0.63*
1,1,1.25,-0.63,-0.63*
1,1,1.25,-0.63,0.63*
%
%ADD41ROUNDEDRECTD41*%
G04:AMPARAMS|DCode=42|XSize=2.5mm|YSize=2.5mm|CornerRadius=0.63mm|HoleSize=0mm|Usage=FLASHONLY|Rotation=180.000|XOffset=0mm|YOffset=0mm|HoleType=Round|Shape=RoundedRectangle|*
%AMROUNDEDRECTD42*
21,1,2.50,1.25,0,0,180.0*
21,1,1.25,2.50,0,0,180.0*
1,1,1.25,-0.63,0.63*
1,1,1.25,0.63,0.63*
1,1,1.25,0.63,-0.63*
1,1,1.25,-0.63,-0.63*
%
%ADD42ROUNDEDRECTD42*%
%ADD43C,1.50*%
%ADD44R,1.50X1.50*%
%ADD45R,1.50X1.50*%
%ADD46C,2.50*%
%ADD47C,3.00*%
%ADD48C,2.59*%
%ADD49C,3.30*%
%ADD50C,1.52*%
%ADD51C,3.20*%
%ADD52R,3.20X3.20*%
%ADD53R,1.60X1.60*%
%ADD54C,1.60*%
%ADD55C,3.80*%
%ADD56C,2.80*%
%ADD57C,2.00*%
G04:AMPARAMS|DCode=58|XSize=2mm|YSize=2.5mm|CornerRadius=0.5mm|HoleSize=0mm|Usage=FLASHONLY|Rotation=180.000|XOffset=0mm|YOffset=0mm|HoleType=Round|Shape=RoundedRectangle|*
%AMROUNDEDRECTD58*
21,1,2.00,1.50,0,0,180.0*
21,1,1.00,2.50,0,0,180.0*
1,1,1.00,-0.50,0.75*
1,1,1.00,0.50,0.75*
1,1,1.00,0.50,-0.75*
1,1,1.00,-0.50,-0.75*
%
%ADD58ROUNDEDRECTD58*%
G04:AMPARAMS|DCode=59|XSize=2.8mm|YSize=3.8mm|CornerRadius=0.7mm|HoleSize=0mm|Usage=FLASHONLY|Rotation=180.000|XOffset=0mm|YOffset=0mm|HoleType=Round|Shape=RoundedRectangle|*
%AMROUNDEDRECTD59*
21,1,2.80,2.40,0,0,180.0*
21,1,1.40,3.80,0,0,180.0*
1,1,1.40,-0.70,1.20*
1,1,1.40,0.70,1.20*
1,1,1.40,0.70,-1.20*
1,1,1.40,-0.70,-1.20*
%
%ADD59ROUNDEDRECTD59*%
%ADD60C,4.70*%
%ADD61C,1.27*%
%ADD62C,1.00*%
%ADD63C,1.20*%
%ADD64C,1.50*%
G36*
X10331Y41129D02*
X10346Y41109D01*
Y40980D01*
X10337Y40979D01*
X10313Y40969D01*
X10292Y40953D01*
X10276Y40932D01*
X10266Y40907D01*
X10262Y40881D01*
X10266Y40855D01*
X10276Y40831D01*
X10292Y40810D01*
X10313Y40794D01*
X10337Y40784D01*
X10342Y40783D01*
X10353Y40756D01*
X10352Y40754D01*
X10342Y40730D01*
X10339Y40704D01*
X10342Y40677D01*
X10352Y40653D01*
X10368Y40632D01*
X10389Y40616D01*
X10413Y40606D01*
X10439Y40603D01*
X10466Y40606D01*
X10490Y40616D01*
X10511Y40632D01*
X10527Y40653D01*
X10535Y40673D01*
X10564Y40667D01*
Y40157D01*
X10567Y40140D01*
Y40140D01*
X10568Y40132D01*
X10512Y40109D01*
X10390D01*
X10365Y40134D01*
Y40348D01*
X10363Y40365D01*
X10360Y40373D01*
X10356Y40381D01*
X10346Y40394D01*
X10323Y40417D01*
X10324Y40424D01*
X10321Y40450D01*
X10311Y40475D01*
X10295Y40495D01*
X10274Y40511D01*
X10250Y40522D01*
X10224Y40525D01*
X10197Y40522D01*
X10173Y40511D01*
X10152Y40495D01*
X10136Y40475D01*
X10126Y40450D01*
X10123Y40424D01*
X10126Y40398D01*
X10127Y40395D01*
X10116Y40367D01*
X10097Y40359D01*
X10076Y40343D01*
X10060Y40322D01*
X10050Y40298D01*
X10046Y40272D01*
X10050Y40246D01*
X10060Y40221D01*
X10076Y40200D01*
X10082Y40196D01*
Y39918D01*
X10033D01*
X10028Y39924D01*
X10007Y39940D01*
X9983Y39950D01*
X9957Y39953D01*
X9931Y39950D01*
X9906Y39940D01*
X9891Y39928D01*
X9767D01*
Y40170D01*
X9728D01*
Y40219D01*
X9762D01*
Y40479D01*
X9762D01*
X9752Y40488D01*
X9752Y40488D01*
X9762Y40512D01*
X9766Y40538D01*
X9762Y40565D01*
X9752Y40589D01*
X9736Y40610D01*
X9715Y40626D01*
X9691Y40636D01*
Y40636D01*
X9691Y40637D01*
X9856D01*
Y40891D01*
X9907D01*
Y41115D01*
X9932Y41132D01*
X9943Y41127D01*
X9969Y41123D01*
X9984Y41125D01*
X10007Y41105D01*
Y40946D01*
X10002Y40939D01*
X9998Y40932D01*
X9995Y40924D01*
X9993Y40907D01*
Y40897D01*
X9956D01*
Y40637D01*
X10156D01*
Y40891D01*
X10207D01*
Y41117D01*
X10232Y41134D01*
X10248Y41127D01*
X10274Y41123D01*
X10300Y41127D01*
X10321Y41135D01*
X10331Y41129D01*
D02*
G37*
G36*
X9233Y40616D02*
X9258Y40606D01*
X9262Y40605D01*
X9383Y40485D01*
X9398Y40473D01*
X9417Y40465D01*
X9436Y40463D01*
X9562D01*
Y40219D01*
X9597D01*
Y40170D01*
X9567D01*
Y39911D01*
X9560Y39906D01*
X9522Y39868D01*
X9510Y39852D01*
X9503Y39834D01*
X9500Y39814D01*
Y38722D01*
X9503Y38703D01*
X9510Y38684D01*
X9522Y38669D01*
X9697Y38494D01*
X9688Y38466D01*
X9677Y38464D01*
X9652Y38454D01*
X9631Y38438D01*
X9627Y38432D01*
X9539D01*
X9197Y38775D01*
Y40610D01*
X9224Y40623D01*
X9233Y40616D01*
D02*
G37*
G36*
X10243Y40074D02*
X10253Y40060D01*
X10317Y39997D01*
X10330Y39986D01*
D01*
D01*
Y39986D01*
X10330Y39986D01*
D01*
D01*
X10330D01*
Y39986D01*
D01*
X10330D01*
Y39986D01*
X10346Y39980D01*
X10363Y39978D01*
X10619D01*
X10634Y39955D01*
X10631Y39929D01*
X10634Y39903D01*
X10644Y39878D01*
X10660Y39857D01*
X10681Y39841D01*
X10705Y39831D01*
X10732Y39828D01*
X10739Y39829D01*
X10838Y39730D01*
X10851Y39720D01*
X10859Y39716D01*
X10867Y39713D01*
X10884Y39711D01*
X11134D01*
X11139Y39704D01*
X11126Y39677D01*
X10693D01*
X10689Y39683D01*
X10668Y39699D01*
X10643Y39709D01*
X10617Y39712D01*
X10591Y39709D01*
X10567Y39699D01*
X10546Y39683D01*
X10530Y39662D01*
X10520Y39637D01*
X10516Y39611D01*
X10520Y39585D01*
X10530Y39561D01*
X10546Y39540D01*
Y39518D01*
X10530Y39497D01*
X10520Y39472D01*
X10516Y39446D01*
X10520Y39420D01*
X10530Y39396D01*
X10546Y39375D01*
Y39365D01*
X10530Y39344D01*
X10520Y39320D01*
X10516Y39294D01*
X10520Y39268D01*
X10530Y39243D01*
X10546Y39222D01*
Y39213D01*
X10530Y39192D01*
X10520Y39168D01*
X10516Y39141D01*
X10520Y39115D01*
X10530Y39091D01*
X10546Y39070D01*
Y39060D01*
X10530Y39039D01*
X10520Y39015D01*
X10516Y38989D01*
X10520Y38963D01*
X10530Y38939D01*
X10546Y38918D01*
Y38895D01*
X10530Y38874D01*
X10520Y38850D01*
X10516Y38824D01*
X10520Y38798D01*
X10530Y38773D01*
X10546Y38753D01*
X10567Y38737D01*
X10591Y38726D01*
X10617Y38723D01*
X10643Y38726D01*
X10668Y38737D01*
X10689Y38753D01*
X10703Y38771D01*
X11151D01*
X11155Y38765D01*
X11176Y38749D01*
X11201Y38739D01*
X11202Y38739D01*
X11211Y38711D01*
X11180Y38680D01*
X11170Y38666D01*
X11167Y38658D01*
X11163Y38650D01*
X11161Y38633D01*
Y38005D01*
X11134Y37994D01*
X11083Y38045D01*
X11069Y38055D01*
X11061Y38058D01*
X11053Y38062D01*
X11036Y38064D01*
X10998D01*
X10987Y38092D01*
X10987Y38092D01*
X11013Y38113D01*
X11033Y38139D01*
X11046Y38170D01*
X11050Y38203D01*
X11046Y38236D01*
X11033Y38266D01*
X11013Y38293D01*
X10989Y38311D01*
Y38494D01*
X11013Y38513D01*
X11033Y38539D01*
X11046Y38570D01*
X11050Y38603D01*
X11046Y38636D01*
X11033Y38666D01*
X11013Y38693D01*
X10987Y38713D01*
X10956Y38726D01*
X10923Y38730D01*
X10890Y38726D01*
X10859Y38713D01*
X10833Y38693D01*
X10813Y38666D01*
X10811Y38661D01*
X10795D01*
X10778Y38659D01*
X10770Y38655D01*
X10762Y38652D01*
X10759Y38649D01*
X10733Y38649D01*
Y38649D01*
X10473D01*
Y38453D01*
X10473Y38453D01*
X10473D01*
X10473Y38449D01*
X10456Y38432D01*
X10289D01*
X10010Y38711D01*
Y39767D01*
X10028Y39781D01*
X10033Y39787D01*
X10109D01*
X10126Y39789D01*
X10134Y39793D01*
X10142Y39796D01*
X10156Y39806D01*
X10194Y39844D01*
X10204Y39858D01*
X10207Y39866D01*
X10211Y39874D01*
X10213Y39891D01*
Y40070D01*
X10242Y40075D01*
X10243Y40074D01*
D02*
G37*
G36*
X9766Y42952D02*
X10903D01*
X11024Y42831D01*
Y42172D01*
X10997Y42158D01*
X10977Y42174D01*
X10946Y42187D01*
X10914Y42191D01*
X10881Y42187D01*
X10850Y42174D01*
X10824Y42154D01*
X10803Y42127D01*
X10791Y42097D01*
X10786Y42064D01*
X10791Y42031D01*
X10803Y42000D01*
X10824Y41974D01*
X10850Y41953D01*
X10881Y41941D01*
X10914Y41936D01*
X10916Y41937D01*
X10929Y41910D01*
X10869Y41849D01*
X10856Y41834D01*
X10849Y41815D01*
X10846Y41796D01*
Y41758D01*
X10817Y41753D01*
X10810Y41770D01*
X10806Y41774D01*
X10804Y41796D01*
X10793Y41821D01*
X10777Y41842D01*
X10757Y41858D01*
X10732Y41868D01*
X10706Y41871D01*
X10680Y41868D01*
X10656Y41858D01*
X10635Y41842D01*
X10619Y41821D01*
X10609Y41796D01*
X10605Y41770D01*
X10609Y41744D01*
X10619Y41720D01*
X10635Y41699D01*
X10656Y41683D01*
X10669Y41678D01*
Y41584D01*
X10641Y41573D01*
X10410Y41804D01*
X10396Y41814D01*
X10388Y41818D01*
X10380Y41821D01*
X10363Y41823D01*
X10047D01*
X9781Y42089D01*
X9793Y42117D01*
X10011D01*
Y42292D01*
X10055D01*
Y42117D01*
X10110D01*
Y42065D01*
X10098Y42049D01*
X10088Y42025D01*
X10085Y41999D01*
X10088Y41973D01*
X10098Y41948D01*
X10114Y41928D01*
X10135Y41912D01*
X10159Y41901D01*
X10185Y41898D01*
X10212Y41901D01*
X10236Y41912D01*
X10257Y41928D01*
X10273Y41948D01*
X10283Y41973D01*
X10286Y41999D01*
X10283Y42025D01*
X10273Y42049D01*
X10261Y42065D01*
Y42117D01*
X10315D01*
D01*
X10315D01*
X10326Y42107D01*
Y42075D01*
X10328Y42056D01*
X10336Y42037D01*
X10348Y42022D01*
X10359Y42010D01*
X10359Y42010D01*
X10375Y41998D01*
X10393Y41991D01*
X10412Y41988D01*
X10424Y41974D01*
X10450Y41953D01*
X10481Y41941D01*
X10514Y41936D01*
X10546Y41941D01*
X10577Y41953D01*
X10604Y41974D01*
X10624Y42000D01*
X10636Y42031D01*
X10641Y42064D01*
X10636Y42097D01*
X10624Y42127D01*
X10604Y42154D01*
X10577Y42174D01*
X10546Y42187D01*
X10514Y42191D01*
X10500Y42189D01*
X10477Y42209D01*
Y42264D01*
X10641D01*
Y42524D01*
X10610D01*
X10607Y42532D01*
X10595Y42547D01*
X10571Y42571D01*
X10556Y42583D01*
X10550Y42585D01*
X10538Y42590D01*
X10518Y42593D01*
X10315D01*
Y42617D01*
X10055D01*
Y42443D01*
X10011D01*
Y42617D01*
X9973D01*
X9956Y42634D01*
Y42634D01*
X9956D01*
D01*
X9954Y42653D01*
X9946Y42672D01*
X9940Y42680D01*
X9934Y42687D01*
X9934Y42687D01*
X9921Y42700D01*
X9906Y42712D01*
X9887Y42720D01*
X9868Y42722D01*
X9350D01*
Y42777D01*
X9090D01*
Y42517D01*
X9122D01*
X9131Y42488D01*
X9127Y42485D01*
X9107Y42458D01*
X9094Y42427D01*
X9089Y42393D01*
X9094Y42359D01*
X9107Y42327D01*
X9127Y42300D01*
X9155Y42279D01*
X9186Y42266D01*
X9220Y42261D01*
X9254Y42266D01*
X9286Y42279D01*
X9313Y42300D01*
X9334Y42327D01*
X9347Y42359D01*
X9351Y42393D01*
X9347Y42427D01*
X9334Y42458D01*
X9313Y42485D01*
X9286Y42506D01*
X9288Y42517D01*
X9350D01*
Y42571D01*
X9409D01*
Y42304D01*
X9411Y42287D01*
X9414Y42279D01*
X9417Y42271D01*
X9428Y42257D01*
X9707Y41979D01*
X9706Y41975D01*
X9696Y41950D01*
X9334D01*
X9313Y41977D01*
X9286Y41998D01*
X9254Y42011D01*
X9220Y42016D01*
X9186Y42011D01*
X9155Y41998D01*
X9127Y41977D01*
X9107Y41950D01*
X9094Y41919D01*
X9089Y41885D01*
X9094Y41851D01*
X9107Y41819D01*
X9127Y41792D01*
X9153Y41773D01*
Y41743D01*
X9127Y41723D01*
X9107Y41696D01*
X9094Y41665D01*
X9089Y41631D01*
X9094Y41597D01*
X9107Y41565D01*
X9127Y41538D01*
X9155Y41517D01*
X9186Y41504D01*
X9220Y41499D01*
X9254Y41504D01*
X9286Y41517D01*
X9313Y41538D01*
X9332Y41563D01*
X9373D01*
X9390Y41565D01*
X9398Y41568D01*
X9407Y41572D01*
X9421Y41582D01*
X9434Y41596D01*
X9435Y41596D01*
X9463Y41587D01*
X9466Y41566D01*
X9475Y41544D01*
Y41363D01*
X9150D01*
X8991Y41522D01*
Y41616D01*
X9003Y41631D01*
X9013Y41655D01*
X9016Y41681D01*
X9013Y41708D01*
X9003Y41732D01*
X8987Y41753D01*
X8966Y41769D01*
X8942Y41779D01*
X8915Y41782D01*
X8889Y41779D01*
X8865Y41769D01*
X8844Y41753D01*
X8828Y41732D01*
X8818Y41708D01*
X8815Y41681D01*
X8818Y41655D01*
X8828Y41631D01*
X8840Y41616D01*
Y41491D01*
X8842Y41471D01*
X8850Y41453D01*
X8862Y41437D01*
X9065Y41234D01*
X9065Y41234D01*
X9065D01*
X9065Y41234D01*
X9065D01*
X9065Y41234D01*
Y41234D01*
Y41234D01*
D01*
D01*
X9065D01*
Y41234D01*
X9081Y41222D01*
X9087Y41219D01*
X9093Y41190D01*
X8933Y41029D01*
X8922Y41016D01*
X8919Y41008D01*
X8916Y41000D01*
X8913Y40983D01*
Y38468D01*
X8916Y38451D01*
X8919Y38443D01*
X8922Y38436D01*
X8933Y38422D01*
X9034Y38320D01*
X9048Y38310D01*
X9064Y38303D01*
X9081Y38301D01*
X9144D01*
X9149Y38295D01*
X9170Y38279D01*
X9194Y38269D01*
X9220Y38266D01*
X9246Y38269D01*
X9271Y38279D01*
X9292Y38295D01*
X9308Y38316D01*
X9318Y38341D01*
X9321Y38367D01*
X9318Y38393D01*
X9308Y38417D01*
X9292Y38438D01*
X9271Y38454D01*
X9246Y38464D01*
X9220Y38468D01*
X9194Y38464D01*
X9170Y38454D01*
X9149Y38438D01*
X9144Y38432D01*
X9108D01*
X9044Y38495D01*
Y38711D01*
X9074Y38716D01*
X9075Y38715D01*
X9085Y38701D01*
X9466Y38320D01*
X9480Y38310D01*
X9495Y38303D01*
X9512Y38301D01*
X9627D01*
X9631Y38295D01*
X9652Y38279D01*
X9677Y38269D01*
X9703Y38266D01*
X9729Y38269D01*
X9753Y38279D01*
D01*
X9753Y38279D01*
X9753Y38279D01*
Y38279D01*
X9753Y38279D01*
X9780Y38294D01*
Y38246D01*
X9710Y38176D01*
X8947D01*
X8775Y38347D01*
Y39332D01*
X8773Y39351D01*
X8765Y39370D01*
X8753Y39385D01*
X8753Y39385D01*
X8448Y39690D01*
X8433Y39702D01*
X8414Y39710D01*
X8395Y39712D01*
X8091D01*
X8085Y39721D01*
X8064Y39737D01*
X8040Y39747D01*
X8014Y39750D01*
X7988Y39747D01*
X7963Y39737D01*
X7942Y39721D01*
X7926Y39700D01*
X7916Y39676D01*
X7913Y39649D01*
X7916Y39623D01*
X7926Y39599D01*
X7942Y39578D01*
X7963Y39562D01*
X7988Y39552D01*
X8014Y39549D01*
X8040Y39552D01*
X8062Y39561D01*
X8363D01*
X8624Y39301D01*
Y38316D01*
X8626Y38296D01*
X8634Y38278D01*
X8646Y38262D01*
X8862Y38047D01*
X8862Y38047D01*
X8878Y38034D01*
X8896Y38027D01*
X8898Y38027D01*
X8915Y38024D01*
X8915Y38024D01*
X9741D01*
X9760Y38027D01*
X9779Y38034D01*
X9794Y38047D01*
X9909Y38161D01*
X9921Y38176D01*
X9928Y38195D01*
X9931Y38214D01*
Y38443D01*
X9931Y38443D01*
X9930Y38453D01*
X9928Y38462D01*
X9921Y38481D01*
X9909Y38496D01*
X9651Y38754D01*
Y39777D01*
X9879D01*
Y38684D01*
X9881Y38667D01*
X9884Y38659D01*
X9887Y38651D01*
X9898Y38638D01*
X10215Y38320D01*
X10229Y38310D01*
X10240Y38305D01*
X10245Y38303D01*
X10262Y38301D01*
X10473D01*
Y38149D01*
X10538D01*
Y37998D01*
Y37895D01*
X10462D01*
Y37695D01*
X10722D01*
Y37895D01*
X10669D01*
Y37933D01*
X10817D01*
X10830Y37906D01*
X10816Y37888D01*
X10803Y37857D01*
X10799Y37824D01*
X10803Y37791D01*
X10816Y37760D01*
X10836Y37734D01*
X10861Y37715D01*
Y37533D01*
X10838Y37515D01*
X10811Y37542D01*
X10798Y37552D01*
X10790Y37555D01*
X10782Y37559D01*
X10765Y37561D01*
X10722D01*
Y37595D01*
X10462D01*
Y37395D01*
X10722D01*
Y37406D01*
X10750Y37418D01*
X10790Y37378D01*
X10803Y37367D01*
X10811Y37364D01*
X10815Y37362D01*
X10816Y37360D01*
X10836Y37334D01*
X10863Y37314D01*
X10893Y37301D01*
X10926Y37297D01*
X10959Y37301D01*
X10990Y37314D01*
X11016Y37334D01*
X11036Y37360D01*
X11043Y37376D01*
X11072Y37370D01*
Y37262D01*
X11075Y37245D01*
X11078Y37237D01*
X11081Y37229D01*
X11092Y37215D01*
X11106Y37201D01*
X11095Y37173D01*
X3823D01*
X3250Y37750D01*
Y39250D01*
X3500Y39500D01*
X4250D01*
X4500Y39250D01*
X7500D01*
X7747Y39497D01*
Y40214D01*
X7772Y40230D01*
X7784Y40225D01*
X7811Y40222D01*
X7837Y40225D01*
X7861Y40235D01*
X7882Y40251D01*
X7898Y40272D01*
X7908Y40296D01*
X7911Y40323D01*
X7908Y40349D01*
X7898Y40373D01*
X7882Y40394D01*
X7876Y40398D01*
Y40460D01*
X8492Y41076D01*
X8502Y41090D01*
X8506Y41098D01*
X8509Y41106D01*
X8511Y41123D01*
Y41563D01*
X8533Y41591D01*
X8536Y41594D01*
X8559Y41584D01*
X8585Y41581D01*
X8611Y41584D01*
X8636Y41594D01*
X8657Y41610D01*
X8673Y41631D01*
X8683Y41655D01*
X8686Y41681D01*
X8683Y41708D01*
X8673Y41732D01*
X8661Y41747D01*
Y42006D01*
X8766Y42111D01*
X8778Y42126D01*
X8785Y42144D01*
X8788Y42164D01*
X8788Y42164D01*
Y42492D01*
X8800Y42507D01*
X8810Y42532D01*
X8813Y42558D01*
X8810Y42584D01*
X8800Y42608D01*
X8784Y42629D01*
X8763Y42645D01*
X8738Y42655D01*
X8712Y42659D01*
X8686Y42655D01*
X8662Y42645D01*
X8641Y42629D01*
X8625Y42608D01*
X8615Y42584D01*
X8611Y42558D01*
X8615Y42532D01*
X8625Y42507D01*
X8637Y42492D01*
Y42195D01*
X8539Y42098D01*
X8511Y42109D01*
Y42645D01*
X8600Y42733D01*
X8690D01*
X8704Y42715D01*
X8725Y42699D01*
X8750Y42689D01*
X8776Y42685D01*
X8802Y42689D01*
X8826Y42699D01*
X8847Y42715D01*
X8863Y42736D01*
X8873Y42760D01*
X8877Y42786D01*
X8873Y42812D01*
X8863Y42837D01*
X8847Y42858D01*
X8826Y42874D01*
X8802Y42884D01*
X8776Y42887D01*
X8787Y42899D01*
X9548D01*
X9552Y42888D01*
X9568Y42867D01*
X9589Y42851D01*
X9613Y42841D01*
X9639Y42838D01*
X9665Y42841D01*
X9690Y42851D01*
X9711Y42867D01*
X9727Y42888D01*
X9737Y42913D01*
X9740Y42939D01*
X9747Y42955D01*
D01*
X9747Y42955D01*
X9766Y42952D01*
D02*
G37*
G36*
X11355Y43409D02*
X11358Y43382D01*
X11368Y43358D01*
X11384Y43337D01*
X11613Y43109D01*
X11634Y43093D01*
X11658Y43083D01*
X11684Y43079D01*
X12928D01*
X13005Y43002D01*
Y42738D01*
X12270D01*
X12241Y42766D01*
X12242Y42774D01*
X12239Y42800D01*
X12229Y42824D01*
X12213Y42845D01*
X12192Y42861D01*
X12167Y42871D01*
X12141Y42874D01*
X12115Y42871D01*
X12091Y42861D01*
X12070Y42845D01*
X12054Y42824D01*
X12044Y42800D01*
X12040Y42774D01*
X12044Y42747D01*
X12054Y42723D01*
X12070Y42702D01*
X12091Y42686D01*
X12115Y42676D01*
X12141Y42673D01*
X12148Y42674D01*
X12196Y42626D01*
X12210Y42615D01*
D01*
D01*
Y42615D01*
X12210Y42615D01*
D01*
D01*
X12210D01*
Y42615D01*
D01*
X12210D01*
Y42615D01*
X12226Y42609D01*
X12236Y42607D01*
X12251Y42581D01*
X12247Y42571D01*
X12244Y42545D01*
X12247Y42519D01*
X12257Y42495D01*
X12273Y42474D01*
X12294Y42458D01*
X12318Y42448D01*
X12344Y42444D01*
X12352Y42445D01*
X12362Y42437D01*
X12374Y42433D01*
X12378Y42431D01*
X12395Y42429D01*
X12751D01*
X12768Y42431D01*
X12776Y42434D01*
X12784Y42437D01*
X12797Y42448D01*
X12829Y42479D01*
X13005D01*
Y42341D01*
X12143D01*
X12128Y42353D01*
X12104Y42363D01*
X12078Y42366D01*
X12052Y42363D01*
X12027Y42353D01*
X12006Y42337D01*
X11990Y42316D01*
X11980Y42292D01*
X11977Y42268D01*
X11965Y42264D01*
X11946Y42262D01*
X11915Y42293D01*
Y42596D01*
X11920Y42601D01*
X11936Y42622D01*
X11947Y42646D01*
X11950Y42672D01*
X11947Y42698D01*
X11936Y42722D01*
X11920Y42743D01*
X11900Y42759D01*
X11875Y42769D01*
X11849Y42773D01*
X11823Y42769D01*
X11799Y42759D01*
X11778Y42743D01*
X11762Y42722D01*
X11752Y42698D01*
X11748Y42672D01*
X11752Y42646D01*
X11762Y42622D01*
X11778Y42601D01*
X11784Y42596D01*
Y42266D01*
X11786Y42249D01*
X11789Y42241D01*
X11792Y42233D01*
X11803Y42219D01*
X11828Y42194D01*
X11817Y42166D01*
X11367D01*
X11350Y42164D01*
X11345Y42162D01*
X11334Y42157D01*
X11320Y42147D01*
X11203Y42030D01*
X11175Y42041D01*
Y42862D01*
X11175Y42862D01*
X11173Y42882D01*
X11165Y42900D01*
X11153Y42916D01*
X10988Y43081D01*
X10973Y43093D01*
X10954Y43101D01*
X10935Y43103D01*
X9798D01*
X9740Y43161D01*
Y43498D01*
X11355D01*
Y43409D01*
D02*
G37*
G36*
X12190Y41896D02*
Y41879D01*
X12162Y41867D01*
X12137Y41893D01*
X12123Y41903D01*
X12115Y41907D01*
X12107Y41910D01*
X12090Y41912D01*
X12065D01*
X12060Y41918D01*
X12039Y41934D01*
X12015Y41944D01*
X11989Y41947D01*
X11963Y41944D01*
X11938Y41934D01*
X11917Y41918D01*
X11901Y41897D01*
X11891Y41873D01*
X11888Y41846D01*
X11891Y41820D01*
X11898Y41805D01*
X11873Y41789D01*
X11756Y41906D01*
X11742Y41916D01*
X11734Y41919D01*
X11726Y41923D01*
X11709Y41925D01*
X11480D01*
X11476Y41931D01*
X11455Y41947D01*
X11431Y41957D01*
X11405Y41960D01*
X11378Y41957D01*
X11354Y41947D01*
X11333Y41931D01*
X11317Y41910D01*
X11307Y41885D01*
X11304Y41859D01*
X11307Y41833D01*
X11317Y41809D01*
X11333Y41788D01*
X11354Y41772D01*
X11378Y41762D01*
X11405Y41758D01*
X11431Y41762D01*
X11455Y41772D01*
X11476Y41788D01*
X11480Y41794D01*
X11682D01*
X11923Y41553D01*
X11913Y41525D01*
X11912Y41525D01*
X11888Y41515D01*
X11872Y41503D01*
X11395D01*
X11392Y41506D01*
X11373Y41513D01*
X11354Y41516D01*
X11343D01*
X11328Y41527D01*
X11304Y41538D01*
X11278Y41541D01*
X11251Y41538D01*
X11227Y41527D01*
X11209Y41513D01*
X11207Y41513D01*
X11189Y41506D01*
X11173Y41494D01*
X11161Y41478D01*
X11154Y41460D01*
X11151Y41440D01*
X11154Y41421D01*
X11161Y41402D01*
X11173Y41387D01*
X11189Y41375D01*
X11207Y41367D01*
X11209Y41367D01*
X11227Y41353D01*
X11251Y41343D01*
X11278Y41339D01*
X11304Y41343D01*
X11328Y41353D01*
X11336Y41359D01*
X11347Y41354D01*
X11367Y41352D01*
X11367Y41352D01*
X11872D01*
X11888Y41340D01*
X11912Y41330D01*
X11938Y41327D01*
X11964Y41330D01*
X11974Y41334D01*
X11999Y41318D01*
Y40464D01*
X11628Y40092D01*
X11607Y40090D01*
X11583Y40080D01*
X11562Y40064D01*
X11546Y40043D01*
X11536Y40018D01*
X11532Y39992D01*
X11536Y39966D01*
X11546Y39942D01*
X11562Y39921D01*
X11583Y39905D01*
X11607Y39895D01*
X11633Y39891D01*
X11652Y39894D01*
X11673Y39873D01*
X11672Y39865D01*
X11675Y39839D01*
X11686Y39815D01*
X11702Y39794D01*
X11722Y39778D01*
X11747Y39768D01*
X11773Y39764D01*
X11799Y39768D01*
X11802Y39769D01*
X11826Y39751D01*
X11824Y39738D01*
X11828Y39712D01*
X11838Y39688D01*
X11854Y39667D01*
X11875Y39651D01*
X11899Y39641D01*
X11925Y39637D01*
X11951Y39641D01*
X11976Y39651D01*
X11997Y39667D01*
X12013Y39688D01*
X12023Y39712D01*
X12026Y39738D01*
X12023Y39764D01*
X12013Y39789D01*
X12004Y39801D01*
Y39902D01*
X12032Y39912D01*
X12044Y39896D01*
X12065Y39880D01*
X12090Y39869D01*
X12116Y39866D01*
X12142Y39869D01*
X12166Y39880D01*
X12187Y39896D01*
X12190Y39899D01*
X12217D01*
X12235Y39901D01*
X12243Y39905D01*
X12251Y39908D01*
X12258Y39913D01*
X12284Y39898D01*
X12282Y39878D01*
X12283Y39865D01*
X12264Y39842D01*
X12243D01*
X12226Y39840D01*
X12218Y39836D01*
X12210Y39833D01*
X12196Y39823D01*
X12006Y39632D01*
X11996Y39619D01*
X11992Y39611D01*
X11989Y39603D01*
X11987Y39586D01*
Y39027D01*
X11989Y39010D01*
X11992Y39002D01*
X11996Y38994D01*
X12006Y38981D01*
X12196Y38790D01*
X12210Y38780D01*
X12218Y38777D01*
X12226Y38773D01*
X12243Y38771D01*
X12319D01*
X12324Y38765D01*
X12345Y38749D01*
X12369Y38739D01*
X12395Y38736D01*
X12421Y38739D01*
X12446Y38749D01*
X12467Y38765D01*
X12483Y38786D01*
X12493Y38810D01*
X12496Y38837D01*
X12493Y38863D01*
X12483Y38887D01*
X12467Y38908D01*
X12467Y38908D01*
X12454Y38918D01*
X12470Y38939D01*
X12480Y38963D01*
X12483Y38989D01*
X12480Y39015D01*
X12470Y39039D01*
X12454Y39060D01*
Y39070D01*
X12470Y39091D01*
X12480Y39115D01*
X12483Y39141D01*
X12480Y39168D01*
X12470Y39192D01*
X12454Y39213D01*
Y39222D01*
X12458Y39228D01*
X13005D01*
Y37490D01*
X12687Y37173D01*
X12272D01*
X12264Y37179D01*
X12252Y37198D01*
X12252Y37199D01*
X12255Y37207D01*
X12258Y37224D01*
Y37986D01*
X12255Y38003D01*
X12249Y38018D01*
X12238Y38032D01*
X12213Y38057D01*
X12199Y38068D01*
X12191Y38071D01*
X12184Y38074D01*
X12167Y38077D01*
X12167Y38116D01*
X12170Y38120D01*
X12183Y38151D01*
X12187Y38184D01*
X12183Y38217D01*
X12170Y38247D01*
X12150Y38274D01*
X12125Y38292D01*
Y38475D01*
X12150Y38494D01*
X12170Y38520D01*
X12183Y38551D01*
X12187Y38584D01*
X12183Y38617D01*
X12170Y38647D01*
X12150Y38674D01*
X12123Y38694D01*
X12093Y38707D01*
X12060Y38711D01*
X12027Y38707D01*
X11996Y38694D01*
X11970Y38674D01*
X11950Y38648D01*
X11900D01*
X11883Y38646D01*
X11878Y38644D01*
X11867Y38639D01*
X11855Y38630D01*
X11610D01*
Y38430D01*
X11870D01*
Y38469D01*
X11871Y38470D01*
X11880Y38474D01*
X11894Y38484D01*
X11925Y38515D01*
X11955Y38513D01*
X11970Y38494D01*
X11994Y38475D01*
Y38292D01*
X11970Y38274D01*
X11949Y38247D01*
X11937Y38217D01*
X11932Y38184D01*
X11937Y38151D01*
X11949Y38120D01*
X11962Y38104D01*
X11949Y38077D01*
X11805D01*
Y38130D01*
X11870D01*
Y38330D01*
X11610D01*
Y38130D01*
X11674D01*
Y37998D01*
Y37868D01*
X11610D01*
Y37668D01*
X11870D01*
Y37868D01*
X11805D01*
Y37946D01*
X11967D01*
X11977Y37917D01*
X11970Y37912D01*
X11949Y37885D01*
X11937Y37855D01*
X11932Y37822D01*
X11937Y37789D01*
X11949Y37758D01*
X11970Y37732D01*
X11994Y37713D01*
Y37530D01*
X11970Y37512D01*
X11957Y37495D01*
X11927Y37493D01*
X11895Y37524D01*
X11882Y37534D01*
X11874Y37538D01*
X11870Y37539D01*
Y37568D01*
X11610D01*
Y37368D01*
X11646D01*
X11653Y37352D01*
X11636Y37327D01*
X11292D01*
Y38606D01*
X11438Y38752D01*
X11449Y38766D01*
X11453Y38777D01*
X11455Y38782D01*
X11457Y38798D01*
Y39624D01*
X11455Y39641D01*
X11452Y39649D01*
X11449Y39657D01*
X11438Y39670D01*
X11286Y39823D01*
X11272Y39833D01*
X11264Y39836D01*
X11264Y39837D01*
X11273Y39844D01*
X11337Y39908D01*
X11347Y39921D01*
X11354Y39937D01*
X11356Y39954D01*
Y40130D01*
X11455D01*
X11472Y40132D01*
X11480Y40135D01*
X11488Y40139D01*
X11502Y40149D01*
X11540Y40187D01*
X11550Y40201D01*
X11554Y40209D01*
X11557Y40217D01*
X11559Y40234D01*
Y40238D01*
X11611D01*
Y40438D01*
X11351D01*
Y40261D01*
X11274D01*
Y40491D01*
X11260D01*
X11239Y40512D01*
Y40513D01*
X11239Y40513D01*
X11239D01*
X11238Y40523D01*
X11236Y40533D01*
X11231Y40545D01*
X11229Y40551D01*
X11217Y40566D01*
X10998Y40786D01*
Y41184D01*
X11026Y41194D01*
X11028Y41191D01*
X11049Y41175D01*
X11074Y41165D01*
X11100Y41161D01*
X11126Y41165D01*
X11150Y41175D01*
X11171Y41191D01*
X11187Y41212D01*
X11197Y41236D01*
X11201Y41262D01*
X11197Y41288D01*
X11187Y41313D01*
X11171Y41334D01*
X11150Y41350D01*
X11126Y41360D01*
X11105Y41362D01*
X11102Y41366D01*
Y41743D01*
X11394Y42035D01*
X12051D01*
X12190Y41896D01*
D02*
G37*
%LPC*%
G36*
X4115Y39458D02*
X4089Y39455D01*
X4064Y39445D01*
X4043Y39429D01*
X4027Y39408D01*
X4017Y39383D01*
X4014Y39357D01*
X4015Y39349D01*
X4007Y39339D01*
X4004Y39331D01*
X4001Y39323D01*
X3998Y39307D01*
Y39078D01*
X4001Y39061D01*
X4004Y39053D01*
X4007Y39045D01*
X4018Y39032D01*
X4252Y38797D01*
Y38710D01*
X4250Y38709D01*
X4224Y38700D01*
X4204Y38726D01*
X4177Y38747D01*
X4146Y38760D01*
X4112Y38765D01*
X4078Y38760D01*
X4046Y38747D01*
X4019Y38726D01*
X4004D01*
X3977Y38747D01*
X3946Y38760D01*
X3912Y38765D01*
X3878Y38760D01*
X3846Y38747D01*
X3819Y38726D01*
X3798Y38699D01*
X3785Y38667D01*
X3780Y38633D01*
X3785Y38599D01*
X3798Y38568D01*
X3819Y38541D01*
X3846Y38520D01*
X3878Y38507D01*
X3912Y38502D01*
X3946Y38507D01*
X3957Y38511D01*
X3982Y38495D01*
Y38253D01*
X4046D01*
Y38205D01*
X4048Y38188D01*
X4052Y38180D01*
X4055Y38172D01*
X4065Y38158D01*
X4119Y38104D01*
X4133Y38094D01*
X4144Y38089D01*
X4149Y38087D01*
X4166Y38085D01*
X4280D01*
X4297Y38087D01*
X4305Y38091D01*
X4313Y38094D01*
X4326Y38104D01*
X4364Y38143D01*
X4375Y38156D01*
X4378Y38164D01*
X4381Y38172D01*
X4384Y38189D01*
Y38566D01*
X4411Y38587D01*
X4513Y38485D01*
X4527Y38475D01*
X4542Y38468D01*
X4559Y38466D01*
X4839D01*
X4844Y38460D01*
X4864Y38444D01*
X4889Y38434D01*
X4915Y38431D01*
X4941Y38434D01*
X4965Y38444D01*
X4986Y38460D01*
X5002Y38481D01*
X5012Y38506D01*
X5016Y38532D01*
X5012Y38558D01*
X5002Y38582D01*
X4986Y38603D01*
X4965Y38619D01*
X4941Y38629D01*
X4915Y38633D01*
X4889Y38629D01*
X4864Y38619D01*
X4844Y38603D01*
X4839Y38597D01*
X4586D01*
X4523Y38661D01*
Y38824D01*
X4529Y38829D01*
X4545Y38850D01*
X4555Y38874D01*
X4559Y38900D01*
X4555Y38926D01*
X4545Y38951D01*
X4529Y38971D01*
X4508Y38987D01*
X4484Y38998D01*
X4458Y39001D01*
X4432Y38998D01*
X4407Y38987D01*
X4386Y38971D01*
X4370Y38951D01*
X4360Y38926D01*
X4359Y38914D01*
X4330Y38904D01*
X4130Y39105D01*
Y39258D01*
X4141Y39260D01*
X4165Y39270D01*
X4186Y39286D01*
X4202Y39307D01*
X4212Y39331D01*
X4216Y39357D01*
X4212Y39383D01*
X4202Y39408D01*
X4186Y39429D01*
X4165Y39445D01*
X4141Y39455D01*
X4115Y39458D01*
D02*
G37*
G36*
X11646Y41274D02*
X11620Y41271D01*
X11595Y41261D01*
X11575Y41245D01*
X11570Y41239D01*
X11519D01*
X11502Y41237D01*
X11494Y41233D01*
X11486Y41230D01*
X11473Y41220D01*
X11434Y41182D01*
X11424Y41168D01*
X11422Y41162D01*
X11417Y41152D01*
X11415Y41135D01*
Y40738D01*
X11351D01*
Y40538D01*
X11611D01*
Y40738D01*
X11546D01*
Y41080D01*
X11575Y41102D01*
X11595Y41086D01*
X11620Y41076D01*
X11646Y41073D01*
X11672Y41076D01*
X11696Y41086D01*
X11717Y41102D01*
X11733Y41123D01*
X11743Y41147D01*
X11747Y41173D01*
X11743Y41200D01*
X11733Y41224D01*
X11717Y41245D01*
X11696Y41261D01*
X11672Y41271D01*
X11646Y41274D01*
D02*
G37*
G36*
X8115Y39407D02*
X8089Y39404D01*
X8065Y39394D01*
X8050Y39382D01*
X7849D01*
X7829Y39380D01*
X7811Y39372D01*
X7795Y39360D01*
X7309Y38874D01*
X6936D01*
X6921Y38886D01*
X6897Y38896D01*
X6871Y38899D01*
X6845Y38896D01*
X6820Y38886D01*
X6799Y38870D01*
X6783Y38849D01*
X6773Y38825D01*
X6770Y38798D01*
X6773Y38772D01*
X6783Y38748D01*
X6799Y38727D01*
X6820Y38711D01*
X6845Y38701D01*
X6871Y38698D01*
X6897Y38701D01*
X6921Y38711D01*
X6936Y38723D01*
X7341D01*
X7360Y38725D01*
X7378Y38733D01*
X7394Y38745D01*
X7880Y39231D01*
X8050D01*
X8065Y39219D01*
X8089Y39209D01*
X8115Y39206D01*
X8141Y39209D01*
X8166Y39219D01*
X8187Y39235D01*
X8203Y39256D01*
X8213Y39280D01*
X8216Y39307D01*
X8213Y39333D01*
X8203Y39357D01*
X8187Y39378D01*
X8166Y39394D01*
X8141Y39404D01*
X8115Y39407D01*
D02*
G37*
%LPD*%
D10*
X11174Y40361D02*
D03*
X10874D02*
D03*
X10107Y41021D02*
D03*
X9807D02*
D03*
X9756Y40767D02*
D03*
X10056D02*
D03*
X10541Y42394D02*
D03*
X10841D02*
D03*
X9662Y40349D02*
D03*
X9962D02*
D03*
X9667Y40040D02*
D03*
X9967D02*
D03*
X5319Y40988D02*
D03*
X5019D02*
D03*
Y40150D02*
D03*
X5319D02*
D03*
X5307Y43350D02*
D03*
X5007D02*
D03*
X6392Y45491D02*
D03*
X6092D02*
D03*
X4951Y46455D02*
D03*
X5251D02*
D03*
X6292Y47366D02*
D03*
X5992D02*
D03*
D11*
X11481Y40338D02*
D03*
Y40638D02*
D03*
X10592Y37495D02*
D03*
Y37795D02*
D03*
X10603Y38549D02*
D03*
Y38249D02*
D03*
X11740Y37468D02*
D03*
Y37768D02*
D03*
Y38530D02*
D03*
Y38230D02*
D03*
X9881Y42217D02*
D03*
Y42517D02*
D03*
X10185Y42217D02*
D03*
Y42517D02*
D03*
X9449Y49685D02*
D03*
Y49985D02*
D03*
X8941Y49685D02*
D03*
Y49985D02*
D03*
X9449Y50320D02*
D03*
Y50620D02*
D03*
X8941Y50320D02*
D03*
Y50620D02*
D03*
X9449Y50929D02*
D03*
Y51229D02*
D03*
X8941Y50929D02*
D03*
Y51229D02*
D03*
X9449Y51539D02*
D03*
Y51839D02*
D03*
X8941Y51539D02*
D03*
Y51839D02*
D03*
X9449Y52174D02*
D03*
Y52474D02*
D03*
X8941Y52174D02*
D03*
Y52474D02*
D03*
X4185Y45209D02*
D03*
Y44909D02*
D03*
X3112Y40681D02*
D03*
Y40381D02*
D03*
X5993Y42512D02*
D03*
Y42212D02*
D03*
X3125Y43043D02*
D03*
Y42743D02*
D03*
D12*
X5652Y42677D02*
D03*
X5372D02*
D03*
X5652Y42982D02*
D03*
X5372D02*
D03*
D18*
X4112Y38383D02*
D03*
X6502Y47015D02*
D03*
D31*
X4178Y43929D02*
X4216Y43967D01*
X3118Y41827D02*
Y42172D01*
Y41827D02*
X3289Y41656D01*
X3619D01*
X3670Y41604D01*
Y40335D02*
Y41604D01*
X3556Y40221D02*
X3670Y40335D01*
X3137Y40221D02*
X3556D01*
X3112Y39807D02*
Y40373D01*
Y39807D02*
X3118Y39801D01*
X21215Y37821D02*
X21278Y37885D01*
X22103D01*
X21215Y40514D02*
X21304Y40602D01*
X22103D01*
X12217Y44272D02*
Y44463D01*
X11786Y44895D02*
X12217Y44463D01*
X8928Y44895D02*
X11786D01*
X7988Y43955D02*
X8928Y44895D01*
X7988Y41681D02*
Y43955D01*
X7595Y41288D02*
X7988Y41681D01*
X6985Y41288D02*
X7595D01*
X6744Y41046D02*
X6985Y41288D01*
X6744Y39772D02*
Y41046D01*
X6312Y39772D02*
X6744D01*
X7277Y42113D02*
X7607Y41783D01*
X7277Y42113D02*
Y42494D01*
Y43383D02*
X7671D01*
X19495Y43421D02*
X19787Y43129D01*
Y40526D02*
Y43129D01*
X19520Y41275D02*
Y43002D01*
X19342Y43180D02*
X19520Y43002D01*
X11684Y43180D02*
X19342D01*
X12446Y43421D02*
X19495D01*
X7671Y43383D02*
X7811Y43243D01*
X7607Y41783D02*
X7722D01*
X12217Y43650D02*
X12446Y43421D01*
X12217Y43650D02*
Y44272D01*
X11455Y43409D02*
X11684Y43180D01*
X11455Y43409D02*
Y44272D01*
X9703Y47193D02*
X9881Y47371D01*
X8242Y47193D02*
X9703D01*
X7696Y46647D02*
X8242Y47193D01*
X7328Y46647D02*
X7696D01*
X19432Y38583D02*
X19520Y38671D01*
X19183Y38583D02*
X19432D01*
X19520Y38671D02*
Y41275D01*
X19183D02*
X19520D01*
X19183Y41276D02*
X19183Y41275D01*
X5918Y41580D02*
X6109Y41389D01*
X5487Y41580D02*
X5918D01*
X6109Y41389D02*
X6312D01*
X5404Y41496D02*
X5487Y41580D01*
X5404Y41325D02*
Y41496D01*
X5019Y40150D02*
Y40988D01*
X6312Y39663D02*
Y39772D01*
X6248Y39599D02*
X6312Y39663D01*
X5435Y39599D02*
X6248D01*
X5404Y39629D02*
X5435Y39599D01*
X5404Y39629D02*
Y39801D01*
Y40042D01*
X5319Y40127D02*
X5404Y40042D01*
X5319Y40127D02*
Y40150D01*
X5019Y40097D02*
Y40150D01*
X4896Y39801D02*
Y39973D01*
X5019Y40097D01*
X5404Y41096D02*
Y41325D01*
X5319Y41011D02*
X5404Y41096D01*
X5319Y40988D02*
Y41011D01*
X5019Y40988D02*
Y41120D01*
X4896Y41243D02*
X5019Y41120D01*
X4896Y41243D02*
Y41325D01*
X6288Y42212D02*
X6338Y42162D01*
X5993Y42212D02*
X6288D01*
X5993Y42512D02*
X6338D01*
X5895Y42212D02*
X5993D01*
X5652Y42455D02*
X5895Y42212D01*
X5652Y42455D02*
Y42677D01*
X5993Y42512D02*
Y42826D01*
X5837Y42982D02*
X5993Y42826D01*
X5652Y42982D02*
X5837D01*
X6325Y43663D02*
X6350D01*
X6007Y43980D02*
X6325Y43663D01*
X5517Y43980D02*
X6007D01*
X5404Y43867D02*
X5517Y43980D01*
X5404Y43696D02*
Y43867D01*
X5307Y43144D02*
Y43350D01*
Y43144D02*
X5372Y43078D01*
Y42982D02*
Y43078D01*
X5075Y42677D02*
X5372D01*
X5007Y42745D02*
X5075Y42677D01*
X5007Y42745D02*
Y43350D01*
X5395Y43687D02*
X5404Y43696D01*
X5395Y43439D02*
Y43687D01*
X5307Y43350D02*
X5395Y43439D01*
X4926Y43350D02*
X5007D01*
X4896Y43380D02*
X4926Y43350D01*
X4896Y43380D02*
Y43696D01*
X3118Y42172D02*
X3125Y42179D01*
Y42743D01*
X3602D01*
X3632Y42774D01*
X3327Y44234D02*
Y44628D01*
Y44234D02*
X3632Y43929D01*
Y42774D02*
Y43929D01*
X4178D01*
X4216Y43975D02*
Y44323D01*
X3118Y40687D02*
Y41325D01*
X3372D01*
X3112Y40681D02*
X3118Y40687D01*
X5666Y46455D02*
X5740Y46380D01*
X5251Y46455D02*
X5666D01*
X5740Y46380D02*
X5994Y46126D01*
Y45847D02*
Y46126D01*
X6092Y45216D02*
Y45491D01*
Y45216D02*
X6223Y45085D01*
X6731D01*
X7026Y45380D01*
X7455D01*
X6480Y45825D02*
X6502Y45847D01*
X6480Y45579D02*
Y45825D01*
X6392Y45491D02*
X6480Y45579D01*
X5994Y45611D02*
Y45847D01*
Y45611D02*
X6092Y45514D01*
Y45491D02*
Y45514D01*
X5992Y47366D02*
Y47560D01*
X6058Y47625D01*
X6566D01*
X6706Y47485D01*
Y47117D02*
Y47485D01*
Y47117D02*
X6825Y46997D01*
X7328D01*
X6731Y46647D02*
X7328D01*
X6502Y46876D02*
X6731Y46647D01*
X6502Y46876D02*
Y47015D01*
X6248D02*
X6502D01*
X6248D02*
Y47168D01*
X6292Y47212D01*
Y47366D01*
X5992D02*
X5994Y47364D01*
Y47015D02*
Y47364D01*
X5740Y47015D02*
X5994D01*
X5740Y46380D02*
Y47015D01*
X4586Y46455D02*
X4951D01*
X4470Y46571D02*
X4586Y46455D01*
X4470Y46571D02*
Y47015D01*
X3118Y39801D02*
X3372D01*
X3118Y42172D02*
X3372D01*
X3118Y43696D02*
X3372D01*
X3118D02*
X3125Y43689D01*
Y43043D02*
Y43689D01*
X4216Y44323D02*
X4470D01*
X4216D02*
Y44539D01*
X4185Y44571D02*
X4216Y44539D01*
X4185Y44571D02*
Y44909D01*
X4216Y45847D02*
X4470D01*
X4216Y45517D02*
Y45847D01*
X4185Y45485D02*
X4216Y45517D01*
X4185Y45209D02*
Y45485D01*
X3327Y44628D02*
Y45136D01*
X3505Y45314D01*
Y46457D01*
X8291Y52474D02*
X8941D01*
X8153Y52337D02*
X8291Y52474D01*
X8153Y50622D02*
Y52337D01*
X7965Y50433D02*
X8153Y50622D01*
X7595Y50433D02*
X7965D01*
X8926Y49670D02*
X8941Y49685D01*
X8522Y49670D02*
X8926D01*
X8268Y49416D02*
X8522Y49670D01*
X8268Y48552D02*
Y49416D01*
X8166Y48451D02*
X8268Y48552D01*
X7557Y48451D02*
X8166D01*
X24663Y50216D02*
Y51105D01*
X24448Y50000D02*
X24663Y50216D01*
X24448Y40919D02*
X26085Y39282D01*
X27945D01*
X24448Y40919D02*
Y50000D01*
X10744Y46774D02*
Y47148D01*
X10693Y46723D02*
X10744Y46774D01*
X10693Y46304D02*
Y46723D01*
X12166Y46775D02*
Y47148D01*
Y46775D02*
X12217Y46723D01*
Y46304D02*
Y46723D01*
X22103Y39282D02*
X24168D01*
X25565Y37885D01*
X27945D01*
X7455Y45380D02*
X7851D01*
X8395Y45923D01*
X13284D01*
X13894Y45314D01*
X15284D02*
X18066D01*
X19456D02*
X19520Y45250D01*
Y45047D02*
Y45250D01*
X13894Y45314D02*
X15284D01*
X18464Y45364D02*
X19058D01*
X18413Y45314D02*
X18464Y45364D01*
X18066Y45314D02*
X18413D01*
X19058Y45364D02*
X19109Y45314D01*
X19456D01*
X7328Y46997D02*
Y47409D01*
X7442Y47523D02*
X9474D01*
X7328Y47409D02*
X7442Y47523D01*
X24714Y46418D02*
Y46431D01*
Y49720D01*
D32*
X8014Y39649D02*
X8026Y39637D01*
X8395D01*
X8700Y39332D01*
Y38316D02*
Y39332D01*
Y38316D02*
X8915Y38100D01*
X9741D01*
X9855Y38214D01*
Y38443D01*
X9576Y38722D02*
X9855Y38443D01*
X9576Y38722D02*
Y39814D01*
X9614Y39853D01*
X9944D01*
X7849Y39307D02*
X8115D01*
X7341Y38798D02*
X7849Y39307D01*
X6871Y38798D02*
X7341D01*
X11278Y41440D02*
X11354D01*
X11227D02*
X11278D01*
X16015Y44005D02*
X16408Y43612D01*
X16015Y44005D02*
Y44272D01*
X13792Y39916D02*
Y40170D01*
X13818Y40195D01*
X14541D01*
X14567Y40170D01*
Y40081D02*
Y40170D01*
X10757Y40665D02*
Y40678D01*
X10706Y41770D02*
X10744Y41732D01*
X9474Y42647D02*
X9868D01*
X9881Y42634D01*
Y42517D02*
Y42634D01*
X9550Y41288D02*
Y41580D01*
X9563Y41592D01*
X9550Y41288D02*
X9906D01*
X9119D02*
X9550D01*
X9906D02*
X9969Y41224D01*
X8915Y41491D02*
X9119Y41288D01*
X8915Y41491D02*
Y41681D01*
X9665Y43129D02*
Y44729D01*
Y43129D02*
X9766Y43028D01*
X10935D01*
X11100Y42862D01*
Y41973D02*
Y42862D01*
X10922Y41796D02*
X11100Y41973D01*
X10922Y40754D02*
Y41796D01*
Y40754D02*
X11163Y40513D01*
Y40411D02*
Y40513D01*
X11367Y41427D02*
X11938D01*
X11354Y41440D02*
X11367Y41427D01*
X12395Y42393D02*
X12878D01*
X12078Y42266D02*
X13399D01*
X13589Y42456D02*
X14275D01*
X13399Y42266D02*
X13589Y42456D01*
X7226Y40704D02*
Y41059D01*
X9284Y40691D02*
X9436Y40538D01*
X9284Y40691D02*
Y40704D01*
X9436Y40538D02*
X9665D01*
X9804Y38684D02*
X10008Y38481D01*
Y38303D02*
Y38481D01*
X9804Y38684D02*
Y39230D01*
X10008Y38303D02*
X10109Y38202D01*
X10110Y38203D01*
X10273D01*
X9436Y42774D02*
X10160D01*
X9093Y42837D02*
X9373D01*
X8992Y42736D02*
X9093Y42837D01*
X10510Y42710D02*
X10514Y42714D01*
X10224Y42710D02*
X10510D01*
X10160Y42774D02*
X10224Y42710D01*
X9373Y42837D02*
X9436Y42774D01*
X8992Y42139D02*
Y42736D01*
Y42139D02*
X9220D01*
X8865D02*
X8992D01*
X7061Y44475D02*
X7188Y44602D01*
X6338Y42512D02*
Y42723D01*
X6401Y42786D01*
X6502D01*
X6604Y42888D01*
Y43612D01*
X6731Y43739D01*
X6909D01*
X7061Y43891D01*
Y44475D01*
X7188Y44602D02*
X7836D01*
X8598Y45364D01*
X9817D01*
X8750Y42024D02*
X8865Y42139D01*
X8750Y41135D02*
Y42024D01*
X8547Y40932D02*
X8750Y41135D01*
X8547Y39916D02*
Y40932D01*
X8712Y42164D02*
Y42558D01*
X8585Y42037D02*
X8712Y42164D01*
X8585Y41681D02*
Y42037D01*
X8700Y43294D02*
Y43434D01*
X9081Y43815D01*
Y44704D01*
Y46114D02*
Y46457D01*
X12395Y41250D02*
X12738D01*
X23114Y46444D02*
X23190Y46368D01*
X22758Y46444D02*
X23114D01*
X7391Y41605D02*
X7557D01*
X7099Y41897D02*
X7391Y41605D01*
X7099Y41897D02*
Y42342D01*
X6934Y42507D02*
X7099Y42342D01*
X6343Y42507D02*
X6934D01*
X6338Y42512D02*
X6343Y42507D01*
X6338Y42512D02*
X6338Y42512D01*
X15342Y42951D02*
X15392Y43002D01*
X18174D01*
X12776Y42799D02*
X14503D01*
X15634Y42697D02*
X16205D01*
X13526Y43040D02*
X14110D01*
X14122Y43002D02*
Y43028D01*
X14110Y43040D02*
X14122Y43028D01*
X13475Y42989D02*
X13526Y43040D01*
X15342Y42520D02*
Y42951D01*
X15278Y42456D02*
X15342Y42520D01*
X14275Y42456D02*
X15278D01*
X10185Y41999D02*
Y42217D01*
X9220Y42647D02*
X9563D01*
X10541Y42394D02*
Y42494D01*
X10518Y42517D02*
X10541Y42494D01*
X10185Y42517D02*
X10518D01*
X10841Y42394D02*
X10858Y42411D01*
Y42596D01*
X10914Y42651D01*
Y42714D01*
X16942Y44120D02*
X17145Y44323D01*
X17818D01*
X16942Y43650D02*
Y44120D01*
X14224Y44005D02*
Y44272D01*
Y44005D02*
X14288Y43942D01*
X14491D01*
X14605Y43828D01*
X16497Y46228D02*
X16916D01*
X16320Y46380D02*
X17170D01*
X16167Y46571D02*
X16878D01*
X16904Y46596D01*
X17183D01*
X13589Y45174D02*
X14478D01*
X17742Y45148D02*
X18618D01*
X18631Y45161D01*
X16840Y45148D02*
X17742D01*
X9881Y42217D02*
Y42329D01*
X9919Y42367D01*
X10401D01*
Y42075D02*
Y42367D01*
Y42075D02*
X10413Y42064D01*
X10514D01*
X10401Y42367D02*
X10515D01*
X10541Y42394D01*
X15392Y45148D02*
X16840D01*
X15367Y45174D02*
X15392Y45148D01*
X14478Y45174D02*
X15367D01*
X10744Y40678D02*
X10757Y40665D01*
X10744Y40678D02*
Y41732D01*
X22898Y46723D02*
X23216D01*
X23355Y45720D02*
Y46584D01*
X23216Y46723D02*
X23355Y46584D01*
X21692Y44869D02*
X21984Y45161D01*
X21692Y43713D02*
Y44869D01*
X21374Y43396D02*
X21692Y43713D01*
X20079Y43396D02*
X21374D01*
X20002Y43320D02*
X20079Y43396D01*
X20002Y42545D02*
Y43320D01*
Y42545D02*
X20015Y42532D01*
X20104D01*
X21984Y45161D02*
Y46812D01*
X22479D01*
X22568Y46723D01*
X22898D01*
X14351Y39256D02*
X14618D01*
X14754Y39119D01*
Y38573D02*
Y39119D01*
Y38573D02*
X14923Y38405D01*
X17742D01*
X17755Y38392D01*
X19520Y44679D02*
Y45047D01*
X17297Y46190D02*
X19939D01*
X20015Y46266D02*
Y46888D01*
X19939Y46190D02*
X20015Y46266D01*
X14338Y45517D02*
X15989D01*
X13919Y45936D02*
X14338Y45517D01*
X14376Y46723D02*
X16980D01*
X13919Y45936D02*
Y46901D01*
X16218Y45618D02*
X16320Y45517D01*
X18034D01*
X18136Y45618D01*
Y45631D01*
X14173Y46558D02*
Y46901D01*
Y46558D02*
X14288Y46444D01*
X15799D01*
X16218Y46025D01*
X17043D01*
Y45885D02*
Y46025D01*
X16980Y46723D02*
X19787D01*
X19812Y46749D01*
Y47092D01*
X19863Y47142D01*
X20193Y45923D02*
Y47079D01*
Y45923D02*
X20409Y45707D01*
Y43879D02*
Y45707D01*
X20384Y43853D02*
X20409Y43879D01*
X20384Y43840D02*
Y43853D01*
X19863Y47142D02*
X20129D01*
X20193Y47079D01*
X13284Y45021D02*
Y45491D01*
Y45021D02*
X13348Y44958D01*
X18720D01*
X18809Y45047D01*
Y45161D01*
X15900Y48247D02*
X15951Y48196D01*
Y47701D02*
Y48196D01*
X15189Y48247D02*
X15900D01*
X15189Y47701D02*
Y48247D01*
X15710Y46304D02*
X15773D01*
X16421Y45657D01*
X16789D01*
X17043Y46025D02*
X19812D01*
X20117Y45720D01*
Y45441D02*
Y45720D01*
X16662Y45783D02*
X16701Y45822D01*
X16904D01*
X16967Y45758D01*
X17805D01*
X17945Y45898D01*
X19647D01*
X19939Y45606D01*
Y44640D02*
Y45606D01*
Y44640D02*
X20028Y44552D01*
X20206D01*
X16789Y45657D02*
X16878D01*
X16904Y45631D01*
X17894D01*
X18009Y45745D01*
X19418D01*
X19698Y45466D01*
Y44221D02*
Y45466D01*
Y44221D02*
X19812Y44107D01*
X20129D01*
X20168Y43180D02*
X21514D01*
X21844Y43510D01*
Y44780D01*
X23190Y46126D02*
Y46368D01*
X21844Y44780D02*
X22174Y45110D01*
X22263Y46444D02*
X22758D01*
X22174Y45110D02*
Y46355D01*
X22263Y46444D01*
X13119Y48247D02*
X15189D01*
D33*
X17170Y50622D02*
X17181Y50612D01*
X16078Y50622D02*
X17170D01*
X15240Y49784D02*
X16078Y50622D01*
X10744Y49784D02*
X15240D01*
X10744D02*
Y52990D01*
X17178Y50622D02*
X18745D01*
X17178Y50152D02*
Y50622D01*
X17181Y50612D02*
Y50622D01*
X2959Y51714D02*
X3467D01*
X2959Y50546D02*
X3467D01*
X4033Y51936D02*
X4388D01*
X3937Y51841D02*
X4033Y51936D01*
X3937Y48806D02*
Y51841D01*
Y48806D02*
X3982Y48761D01*
X4388D01*
X6668Y48184D02*
Y48692D01*
X7557Y48451D02*
Y49441D01*
X7087Y49911D02*
X7557Y49441D01*
X7087Y49911D02*
Y51308D01*
X7264Y51333D02*
X7595D01*
X5359Y48768D02*
X5372Y48781D01*
X5931D01*
X6096Y48946D01*
Y51257D01*
X6172Y51333D01*
X7264D01*
X9843Y48209D02*
Y48476D01*
Y48717D01*
X8982Y48476D02*
X9843D01*
X8957Y48451D02*
X8982Y48476D01*
X9843D02*
X10604D01*
X10744Y48615D01*
X27572Y51105D02*
X27635Y51168D01*
Y51887D01*
X26276Y49047D02*
Y49446D01*
X26467Y49637D01*
X25133Y49047D02*
Y49472D01*
X25298Y49637D01*
X25133Y43205D02*
X26276D01*
X27445D01*
Y49047D02*
Y49446D01*
X27635Y49637D01*
X24663Y51105D02*
X27572D01*
X10744Y48615D02*
Y50990D01*
X23216Y47955D02*
Y48120D01*
Y48273D01*
Y48425D01*
Y48577D01*
Y48730D01*
Y48895D01*
Y49047D01*
Y49212D01*
Y49378D01*
Y49543D01*
Y49708D01*
X10744Y50990D02*
Y52146D01*
X22301Y47981D02*
Y48133D01*
Y48285D01*
Y48438D01*
Y48590D01*
Y48743D01*
Y48895D01*
Y49047D01*
Y49200D01*
Y49352D01*
Y49505D01*
Y49657D01*
Y49809D01*
Y49962D01*
X16967Y52591D02*
X16980Y52603D01*
Y52883D01*
X17132Y53035D01*
X20434D01*
X23216Y50254D01*
Y49708D02*
Y50254D01*
X23076Y51105D02*
X24663D01*
X22581Y51981D02*
Y52489D01*
X23444Y51981D02*
Y52489D01*
X24282Y51981D02*
Y52489D01*
X26467Y51613D02*
Y51887D01*
X26378Y51524D02*
X26467Y51613D01*
X23571Y51524D02*
X26378D01*
X23444Y51651D02*
X23571Y51524D01*
X23444Y51651D02*
Y51981D01*
X22581Y51600D02*
X23076Y51105D01*
X22581Y51600D02*
Y51981D01*
X18987Y52578D02*
X18999Y52591D01*
X18987Y51638D02*
Y52578D01*
Y51638D02*
X19329Y51295D01*
X21146D01*
X22301Y50140D01*
Y49962D02*
Y50140D01*
X17178Y51117D02*
X17178Y50610D01*
D34*
X9944Y39853D02*
X10109D01*
X10147Y39891D01*
Y40272D01*
X10603Y38249D02*
X10604Y38251D01*
Y38341D01*
X10579Y38367D02*
X10604Y38341D01*
X10262Y38367D02*
X10579D01*
X9944Y38684D02*
X10262Y38367D01*
X9944Y38684D02*
Y39840D01*
X9957Y39853D01*
X13005Y39294D02*
X13284Y39573D01*
X11405Y41859D02*
X11709D01*
X12065Y41504D01*
Y40437D02*
Y41504D01*
X11633Y40005D02*
X12065Y40437D01*
X11633Y39992D02*
Y40005D01*
X11989Y41846D02*
X12090D01*
X12154Y41783D01*
Y40348D02*
Y41783D01*
X11773Y39967D02*
X12154Y40348D01*
X11773Y39865D02*
Y39967D01*
X11036Y41339D02*
X11100Y41275D01*
X11036Y41339D02*
Y41770D01*
X11367Y42101D01*
X12078D01*
X12256Y41923D01*
Y40284D02*
Y41923D01*
X11938Y39967D02*
X12256Y40284D01*
X11938Y39751D02*
Y39967D01*
X11925Y39738D02*
X11938Y39751D01*
X10617Y38824D02*
X10630Y38837D01*
X11227D01*
X8763Y42799D02*
X8776Y42786D01*
X8572Y42799D02*
X8763D01*
X8446Y42672D02*
X8572Y42799D01*
X8446Y41123D02*
Y42672D01*
X7811Y40488D02*
X8446Y41123D01*
X7811Y40323D02*
Y40488D01*
X18593Y38570D02*
X18745Y38417D01*
X16954Y38570D02*
X18593D01*
X16954Y39688D02*
X17094Y39827D01*
Y40577D01*
X16954Y38570D02*
Y39688D01*
X17094Y40577D02*
X18174D01*
X10439Y40704D02*
X10528Y40792D01*
Y41415D01*
X10350Y41592D02*
X10528Y41415D01*
X9995Y41592D02*
X10350D01*
X9703Y41885D02*
X9995Y41592D01*
X9220Y41885D02*
X9703D01*
X11024Y40056D02*
Y40068D01*
X10986Y40107D02*
X11024Y40068D01*
X10681Y40107D02*
X10986D01*
X10630Y40157D02*
X10681Y40107D01*
X10630Y40157D02*
Y41491D01*
X10363Y41758D02*
X10630Y41491D01*
X10020Y41758D02*
X10363D01*
X9474Y42304D02*
X10020Y41758D01*
X9474Y42304D02*
Y42647D01*
X11519Y41173D02*
X11646D01*
X11481Y41135D02*
X11519Y41173D01*
X11481Y40638D02*
Y41135D01*
X11278Y40195D02*
X11290Y40183D01*
Y39954D02*
Y40183D01*
X11278Y40195D02*
X11455D01*
X11481Y40338D02*
X11493Y40325D01*
Y40234D02*
Y40325D01*
X11455Y40195D02*
X11493Y40234D01*
X11227Y39891D02*
X11290Y39954D01*
X10960Y39891D02*
X11227D01*
X10808Y40043D02*
X10960Y39891D01*
X10363Y40043D02*
X10808D01*
X10300Y40107D02*
X10363Y40043D01*
X10300Y40107D02*
Y40348D01*
X10224Y40424D02*
X10300Y40348D01*
X16053Y41707D02*
X16243Y41516D01*
Y41211D02*
Y41516D01*
X16129Y41097D02*
X16243Y41211D01*
X13259Y41097D02*
X16129D01*
X12929Y40767D02*
X13259Y41097D01*
X12929Y39878D02*
Y40767D01*
X12827Y39776D02*
X12929Y39878D01*
X12243Y39776D02*
X12827D01*
X12052Y39586D02*
X12243Y39776D01*
X12052Y39027D02*
Y39586D01*
Y39027D02*
X12243Y38837D01*
X12395D01*
X15951Y41999D02*
X16358Y41592D01*
Y41135D02*
Y41592D01*
X16231Y41008D02*
X16358Y41135D01*
X13297Y41008D02*
X16231D01*
X13018Y40729D02*
X13297Y41008D01*
X13018Y39840D02*
Y40729D01*
X12865Y39688D02*
X13018Y39840D01*
X12281Y39688D02*
X12865D01*
X12141Y39548D02*
X12281Y39688D01*
X12141Y39103D02*
Y39548D01*
Y39103D02*
X12256Y38989D01*
X12382D01*
X16307Y41821D02*
Y41948D01*
Y41821D02*
X16485Y41643D01*
Y41123D02*
Y41643D01*
X16269Y40907D02*
X16485Y41123D01*
X13335Y40907D02*
X16269D01*
X13106Y40678D02*
X13335Y40907D01*
X13106Y39776D02*
Y40678D01*
X12916Y39586D02*
X13106Y39776D01*
X12319Y39586D02*
X12916D01*
X12230Y39497D02*
X12319Y39586D01*
X12230Y39154D02*
Y39497D01*
Y39154D02*
X12243Y39141D01*
X12382D01*
X16561Y41034D02*
Y41948D01*
X16332Y40805D02*
X16561Y41034D01*
X13399Y40805D02*
X16332D01*
X13195Y40602D02*
X13399Y40805D01*
X13195Y39688D02*
Y40602D01*
X12954Y39446D02*
X13195Y39688D01*
X12382Y39446D02*
X12954D01*
X16650Y41707D02*
X16713Y41770D01*
X16650Y40932D02*
Y41707D01*
X16434Y40716D02*
X16650Y40932D01*
X13437Y40716D02*
X16434D01*
X13284Y40564D02*
X13437Y40716D01*
X13284Y39573D02*
Y40564D01*
X12382Y39294D02*
X13005D01*
X9855Y41224D02*
X9969D01*
X12395Y42494D02*
X12751D01*
X12344Y42545D02*
X12395Y42494D01*
X12141Y42774D02*
X12243Y42672D01*
X11849Y42266D02*
Y42672D01*
Y42266D02*
X11951Y42164D01*
X13995D01*
X14046Y42113D01*
Y41910D02*
Y42113D01*
X12802Y42545D02*
X13170D01*
X12751Y42494D02*
X12802Y42545D01*
X11740Y37998D02*
X11753Y38011D01*
X11740Y37998D02*
Y38230D01*
Y37768D02*
Y37998D01*
X11138Y37262D02*
X11214Y37186D01*
X11138Y37262D02*
Y37897D01*
X11036Y37998D02*
X11138Y37897D01*
X11753Y38011D02*
X12167D01*
X12192Y37986D01*
Y37224D02*
Y37986D01*
X12154Y37186D02*
X12192Y37224D01*
X11214Y37186D02*
X12154D01*
X10603Y37998D02*
X11036D01*
X10732Y39929D02*
X10884Y39776D01*
X11239D01*
X11392Y39624D01*
Y38798D02*
Y39624D01*
X11227Y38633D02*
X11392Y38798D01*
X11227Y37300D02*
Y38633D01*
Y37300D02*
X11265Y37262D01*
X11671D01*
X11740Y37330D01*
Y37468D01*
X9182Y40958D02*
X9373D01*
X9131Y40907D02*
X9182Y40958D01*
X9131Y38748D02*
Y40907D01*
Y38748D02*
X9512Y38367D01*
X9703D01*
X10909Y40195D02*
X11278D01*
X10874Y40231D02*
X10909Y40195D01*
X10874Y40231D02*
Y40361D01*
X8141Y43040D02*
X8230Y43129D01*
X8141Y41237D02*
Y43040D01*
X7455Y40551D02*
X8141Y41237D01*
X8230Y43129D02*
X9182D01*
X9614Y42939D02*
X9639D01*
X9589Y42964D02*
X9614Y42939D01*
X8407Y42964D02*
X9589D01*
X8306Y42862D02*
X8407Y42964D01*
X8306Y41173D02*
Y42862D01*
X7633Y40500D02*
X8306Y41173D01*
X7633Y40221D02*
Y40500D01*
X7455Y39916D02*
Y40551D01*
X5156Y38760D02*
X5169Y38748D01*
X5156Y38354D02*
Y38760D01*
X5169Y38748D02*
X5258D01*
X6401Y37821D02*
X6528Y37948D01*
Y39078D01*
X6248Y37821D02*
X6401D01*
X9962Y40045D02*
Y40349D01*
Y40045D02*
X9967Y40040D01*
X9667Y39863D02*
Y40040D01*
X10874Y40361D02*
X10884D01*
X10848D02*
X10874Y40335D01*
X10107Y41146D02*
X10185Y41224D01*
X10274D01*
X10107Y41021D02*
Y41146D01*
X10046Y40754D02*
X10058Y40767D01*
Y40907D01*
X10107Y40955D01*
Y41021D01*
X9756Y40884D02*
X9807Y40935D01*
X9756Y40767D02*
Y40884D01*
X9807Y40935D02*
Y41021D01*
Y41176D02*
X9855Y41224D01*
X9807Y41021D02*
Y41176D01*
X10603Y37998D02*
Y38249D01*
Y37799D02*
Y37998D01*
X10617Y39611D02*
X11227D01*
X10617Y38989D02*
X11227D01*
X10617Y39141D02*
X11227D01*
X10617Y39294D02*
X11227D01*
X10617Y39446D02*
X11227D01*
X10926Y37424D02*
Y37824D01*
X10765Y37495D02*
X10836Y37424D01*
X10926D01*
X10592Y37495D02*
X10765D01*
X10749Y38549D02*
X10795Y38595D01*
X10916D02*
X10923Y38603D01*
X10795Y38595D02*
X10916D01*
X10603Y38549D02*
X10749D01*
X10923Y38203D02*
Y38603D01*
X12060Y38184D02*
Y38584D01*
Y37422D02*
Y37822D01*
X11905Y37422D02*
X12060D01*
X11849Y37478D02*
X11905Y37422D01*
X11749Y37478D02*
X11849D01*
X11740Y37468D02*
X11749Y37478D01*
X12059Y38583D02*
X12060Y38584D01*
X11900Y38583D02*
X12059D01*
X11848Y38530D02*
X11900Y38583D01*
X11740Y38530D02*
X11848D01*
X10603Y37799D02*
X10606Y37796D01*
X4458Y38633D02*
Y38900D01*
Y38633D02*
X4559Y38532D01*
X4915D01*
X9957Y40354D02*
X9962Y40349D01*
X9957Y40354D02*
Y40526D01*
X10084D01*
X9662Y40045D02*
X9667Y40040D01*
X9662Y40045D02*
Y40349D01*
X9665Y40351D01*
Y40538D01*
X9550Y41059D02*
Y41123D01*
X9525Y41148D02*
X9550Y41123D01*
X9144Y41148D02*
X9525D01*
X8979Y40983D02*
X9144Y41148D01*
X8979Y38468D02*
Y40983D01*
Y38468D02*
X9081Y38367D01*
X9220D01*
X5156Y39243D02*
X5245Y39332D01*
X6414D01*
X6528Y39218D01*
Y39078D02*
Y39218D01*
X4064Y39307D02*
X4115Y39357D01*
X4318Y38189D02*
Y38824D01*
X4280Y38151D02*
X4318Y38189D01*
X4166Y38151D02*
X4280D01*
X4112Y38205D02*
X4166Y38151D01*
X4112Y38205D02*
Y38383D01*
X4064Y39078D02*
Y39307D01*
Y39078D02*
X4318Y38824D01*
X12243Y42672D02*
X14694D01*
X5156Y38760D02*
Y39154D01*
Y39243D01*
X16523Y40577D02*
X17094D01*
X16408Y40462D02*
X16523Y40577D01*
X16281Y40462D02*
X16408D01*
X12382Y39878D02*
X12395Y39865D01*
X12764D01*
X12840Y39942D01*
Y40805D01*
X13221Y41186D01*
X16040D01*
X16104Y41250D01*
Y41465D01*
X15596Y41973D02*
X16104Y41465D01*
X15596Y41973D02*
Y42418D01*
X15672Y42494D01*
X16434D01*
D35*
X12852Y47600D02*
X13030Y47422D01*
X10566Y47600D02*
X12852D01*
X9855Y46888D02*
X10566Y47600D01*
X8446Y46888D02*
X9855D01*
X7455Y45898D02*
X8446Y46888D01*
X7455Y45730D02*
Y45898D01*
X13030Y47422D02*
X15430D01*
Y47689D01*
X15443Y47701D01*
X16205Y47435D02*
X16218Y47422D01*
X16205Y47435D02*
Y47701D01*
Y47435D02*
X18237D01*
Y47701D01*
X15430Y47422D02*
X16218D01*
X18237Y47435D02*
X20269D01*
Y47701D01*
D36*
X12382Y39992D02*
Y40881D01*
Y39992D02*
X12687D01*
X12243D02*
X12382D01*
X13970Y39840D02*
X14046Y39916D01*
X13970Y37732D02*
Y39840D01*
Y37732D02*
X14249Y37452D01*
X14719D01*
X14224Y38176D02*
X14376D01*
X14148Y38252D02*
X14224Y38176D01*
X14148Y38252D02*
Y39370D01*
X10363Y40881D02*
X10414Y40932D01*
Y41339D01*
X10274Y41478D02*
X10414Y41339D01*
X9931Y41478D02*
X10274D01*
X9690Y41720D02*
X9931Y41478D01*
X9461Y41720D02*
X9690D01*
X9373Y41631D02*
X9461Y41720D01*
X9220Y41631D02*
X9373D01*
X12217Y39967D02*
X12243Y39992D01*
X12116Y39967D02*
X12217D01*
X15278Y39154D02*
Y40488D01*
X12738Y41821D02*
X13145Y41415D01*
X14541D01*
X12751Y41631D02*
X13056Y41326D01*
X14656D01*
X12408Y41631D02*
X12751D01*
X12408Y41821D02*
X12738D01*
X14541Y41415D02*
X14605Y41478D01*
X14808D01*
X19183Y38284D02*
Y38583D01*
X19075Y38176D02*
X19183Y38284D01*
X14376Y38176D02*
X19075D01*
X12421Y42062D02*
X12687D01*
X13208Y41542D01*
X14440D01*
X14503Y41605D01*
X15456D01*
X13297Y38240D02*
X13386Y38329D01*
Y40399D01*
X13462Y40475D01*
X14948D01*
X15037Y40564D01*
X15278Y38608D02*
Y38913D01*
X15316Y38951D01*
X15469D01*
X15532Y39014D01*
Y40361D01*
D38*
X10333Y39778D02*
G03*
X10333Y39778I-50J0D01*
G01*
X4253Y37906D02*
Y39110D01*
X2613Y37906D02*
Y39110D01*
X4253D01*
X2613Y37906D02*
X4253D01*
X9373Y40688D02*
X10373D01*
X9373Y39688D02*
X10373D01*
X9373D02*
Y40688D01*
X10373Y39688D02*
Y40688D01*
D39*
X2502Y37008D02*
Y53251D01*
Y37008D02*
X28245D01*
Y53251D01*
X2502D02*
X28245D01*
D40*
X13043Y52750D02*
D03*
X3250D02*
D03*
X3000Y37500D02*
D03*
X17500D02*
D03*
X27500Y52750D02*
D03*
X27000Y37500D02*
D03*
D41*
X24282Y52489D02*
D03*
Y51981D02*
D03*
X23444D02*
D03*
Y52489D02*
D03*
X9843Y48717D02*
D03*
Y48209D02*
D03*
X6668Y48184D02*
D03*
Y48692D02*
D03*
X22581Y52489D02*
D03*
Y51981D02*
D03*
D42*
X2959Y50546D02*
D03*
X3467D02*
D03*
X2959Y51714D02*
D03*
X3467D02*
D03*
D43*
X6312Y39772D02*
D03*
X6338Y42162D02*
D03*
X3327Y44628D02*
D03*
X6350Y43313D02*
D03*
X7455Y45380D02*
D03*
X7328Y46997D02*
D03*
X3372Y43696D02*
D03*
X4896D02*
D03*
X5658D02*
D03*
X3372Y42172D02*
D03*
X5658D02*
D03*
X4896D02*
D03*
X2864Y43696D02*
D03*
X3118D02*
D03*
X5150D02*
D03*
X5404D02*
D03*
X3118Y42172D02*
D03*
X5404D02*
D03*
X5150D02*
D03*
X4470Y45847D02*
D03*
X5994D02*
D03*
X6756D02*
D03*
X4470Y44323D02*
D03*
X6756D02*
D03*
X5994D02*
D03*
X3962Y45847D02*
D03*
X4216D02*
D03*
X6248D02*
D03*
X6502D02*
D03*
X4216Y44323D02*
D03*
X6502D02*
D03*
X6248D02*
D03*
X6312Y41039D02*
D03*
X3372Y41325D02*
D03*
X4896D02*
D03*
X5658D02*
D03*
X3372Y39801D02*
D03*
X5658D02*
D03*
X4896D02*
D03*
X2864Y41325D02*
D03*
X3118D02*
D03*
X5150D02*
D03*
X5404D02*
D03*
X3118Y39801D02*
D03*
X5404D02*
D03*
X5150D02*
D03*
X13538Y39916D02*
D03*
X13792D02*
D03*
D44*
X6312Y40122D02*
D03*
X6338Y42512D02*
D03*
X6350Y43663D02*
D03*
X7455Y45730D02*
D03*
X7328Y46647D02*
D03*
X2864Y42172D02*
D03*
X3962Y44323D02*
D03*
X6312Y41389D02*
D03*
X2864Y39801D02*
D03*
X14046Y39916D02*
D03*
D45*
X2977Y44628D02*
D03*
D46*
X4359Y48768D02*
D03*
X5359D02*
D03*
X5388Y50984D02*
D03*
X4388D02*
D03*
X4372Y49777D02*
D03*
X5372D02*
D03*
X5388Y51936D02*
D03*
X4388D02*
D03*
D47*
X7557Y48451D02*
D03*
X8957D02*
D03*
X3264Y49454D02*
D03*
Y48054D02*
D03*
D48*
X19183Y38583D02*
D03*
Y39345D02*
D03*
X21215D02*
D03*
X19183Y37821D02*
D03*
X21215D02*
D03*
X19183Y41276D02*
D03*
Y42038D02*
D03*
X21215D02*
D03*
X19183Y40514D02*
D03*
X21215D02*
D03*
X11455Y44272D02*
D03*
X10693D02*
D03*
Y46304D02*
D03*
X12217Y44272D02*
D03*
Y46304D02*
D03*
D49*
X12166Y47148D02*
D03*
Y52990D02*
D03*
X10744Y47148D02*
D03*
Y52990D02*
D03*
X22103Y39282D02*
D03*
X27945D02*
D03*
X22103Y37885D02*
D03*
X27945D02*
D03*
X22129Y41949D02*
D03*
X27971D02*
D03*
X22103Y40602D02*
D03*
X27945D02*
D03*
X27445Y49047D02*
D03*
Y43205D02*
D03*
X25133Y49047D02*
D03*
Y43205D02*
D03*
X26276Y49047D02*
D03*
Y43205D02*
D03*
D50*
X12060Y38184D02*
D03*
X11410D02*
D03*
X12060Y38584D02*
D03*
X11410D02*
D03*
X12060Y37422D02*
D03*
X11410D02*
D03*
X12060Y37822D02*
D03*
X11410D02*
D03*
X10923Y38203D02*
D03*
X10273D02*
D03*
X10923Y38603D02*
D03*
X10273D02*
D03*
X10926Y37424D02*
D03*
X10276D02*
D03*
X10926Y37824D02*
D03*
X10276D02*
D03*
X10914Y42714D02*
D03*
Y42064D02*
D03*
X10514Y42714D02*
D03*
Y42064D02*
D03*
D51*
X7595Y50433D02*
D03*
D52*
Y51333D02*
D03*
D53*
X9220Y42647D02*
D03*
D54*
Y42393D02*
D03*
Y41885D02*
D03*
Y41631D02*
D03*
Y42139D02*
D03*
X3912Y38633D02*
D03*
Y38383D02*
D03*
X4112Y38633D02*
D03*
X6248Y47015D02*
D03*
X5486D02*
D03*
X4470D02*
D03*
X4978D02*
D03*
X5232D02*
D03*
X5740D02*
D03*
X5994D02*
D03*
D55*
X3641Y39110D02*
D03*
Y37906D02*
D03*
D56*
X3505Y46965D02*
D03*
Y46457D02*
D03*
D57*
X27635Y49637D02*
D03*
Y51887D02*
D03*
X25298Y49637D02*
D03*
Y51887D02*
D03*
X26467Y49637D02*
D03*
Y51887D02*
D03*
X17178Y51117D02*
D03*
X14928D02*
D03*
X17178Y50152D02*
D03*
X14928D02*
D03*
D58*
X21031Y47701D02*
D03*
X20269D02*
D03*
X20015D02*
D03*
X19253D02*
D03*
X17983D02*
D03*
X17221D02*
D03*
X16967D02*
D03*
X16205D02*
D03*
X15697D02*
D03*
X15443D02*
D03*
X14935D02*
D03*
X14681D02*
D03*
X14173D02*
D03*
X13919D02*
D03*
X21285D02*
D03*
X18999D02*
D03*
X18237D02*
D03*
X15951D02*
D03*
X15189D02*
D03*
X14427D02*
D03*
X13665D02*
D03*
D59*
X20015Y52591D02*
D03*
X17983D02*
D03*
X16967D02*
D03*
X14935D02*
D03*
X13919D02*
D03*
X18999D02*
D03*
X15951D02*
D03*
D60*
X20841Y50495D02*
D03*
X14110D02*
D03*
D61*
X18720Y50622D02*
D03*
X18567D02*
D03*
X18415D02*
D03*
X18263D02*
D03*
X18110D02*
D03*
X17958D02*
D03*
X17805D02*
D03*
X17348D02*
D03*
X17653D02*
D03*
X17501D02*
D03*
X17178Y50475D02*
D03*
X17181Y50622D02*
D03*
X17175Y50330D02*
D03*
X17178Y50780D02*
D03*
Y50930D02*
D03*
D62*
X10617Y38824D02*
D03*
X9957Y39853D02*
D03*
X16408Y43612D02*
D03*
X12382Y40881D02*
D03*
X4458Y38900D02*
D03*
X14148Y39370D02*
D03*
X14567Y40081D02*
D03*
X14719Y37452D02*
D03*
X18745Y38417D02*
D03*
X16954Y38570D02*
D03*
X17094Y40577D02*
D03*
X18174D02*
D03*
X10757Y40678D02*
D03*
X10706Y41770D02*
D03*
X9563Y41592D02*
D03*
X11278Y41440D02*
D03*
X11646Y41173D02*
D03*
X12687Y39992D02*
D03*
X12116Y39967D02*
D03*
X11633Y39992D02*
D03*
X12878Y42393D02*
D03*
X12395D02*
D03*
X12344Y42545D02*
D03*
X12141Y42774D02*
D03*
X11849Y42672D02*
D03*
X12078Y42266D02*
D03*
X7226Y40704D02*
D03*
Y41059D02*
D03*
X9284Y40704D02*
D03*
X7277Y42494D02*
D03*
X9804Y39230D02*
D03*
X7277Y43383D02*
D03*
X7811Y43243D02*
D03*
X9817Y45364D02*
D03*
X8915Y41681D02*
D03*
X8585D02*
D03*
X8712Y42558D02*
D03*
X8700Y43294D02*
D03*
X9081Y44704D02*
D03*
Y46114D02*
D03*
Y46457D02*
D03*
X9550Y41059D02*
D03*
X9373Y40958D02*
D03*
X8014Y39649D02*
D03*
X8547Y39916D02*
D03*
X12738Y41250D02*
D03*
X22898Y46723D02*
D03*
X22758Y46444D02*
D03*
X20104Y42532D02*
D03*
X21984Y46812D02*
D03*
X7557Y41605D02*
D03*
X11100Y41262D02*
D03*
X15037Y40564D02*
D03*
X15532Y40361D02*
D03*
X15278Y40488D02*
D03*
X12395Y41250D02*
D03*
X20168Y43180D02*
D03*
X23190Y46101D02*
D03*
X18174Y43002D02*
D03*
X12776Y42799D02*
D03*
X14503D02*
D03*
X15634Y42697D02*
D03*
X16205D02*
D03*
X14122Y43002D02*
D03*
X13475Y42989D02*
D03*
X15342Y42951D02*
D03*
X14275Y42456D02*
D03*
X10185Y41999D02*
D03*
X7722Y41783D02*
D03*
X5156Y39154D02*
D03*
X5258Y38748D02*
D03*
X5156Y38354D02*
D03*
X6528Y39078D02*
D03*
X6248Y37821D02*
D03*
X6871Y38798D02*
D03*
X8115Y39307D02*
D03*
X15278Y38608D02*
D03*
X12421Y42062D02*
D03*
X15278Y39154D02*
D03*
X14808Y41478D02*
D03*
X12408Y41821D02*
D03*
X13297Y38240D02*
D03*
X14656Y41326D02*
D03*
X12408Y41631D02*
D03*
X15951Y41999D02*
D03*
X11925Y39738D02*
D03*
X11989Y41846D02*
D03*
X11773Y39865D02*
D03*
X11024Y40056D02*
D03*
X11227Y39611D02*
D03*
X10224Y40424D02*
D03*
X10147Y40272D02*
D03*
X11405Y41859D02*
D03*
X10732Y39929D02*
D03*
X8776Y42786D02*
D03*
X9182Y43129D02*
D03*
X7455Y39916D02*
D03*
X7633Y40221D02*
D03*
X7811Y40323D02*
D03*
X9703Y38367D02*
D03*
X9220D02*
D03*
X14046Y41910D02*
D03*
X9639Y42939D02*
D03*
X13170Y42545D02*
D03*
X16307Y41948D02*
D03*
X9665Y44729D02*
D03*
X10439Y40704D02*
D03*
X10363Y40881D02*
D03*
X9969Y41224D02*
D03*
X9881Y47371D02*
D03*
X19787Y40526D02*
D03*
X17755Y38392D02*
D03*
X14351Y39256D02*
D03*
X14376Y38176D02*
D03*
X11227Y38837D02*
D03*
X16434Y42494D02*
D03*
X12382Y39878D02*
D03*
X10617Y39611D02*
D03*
X16053Y41707D02*
D03*
X12395Y38837D02*
D03*
X12382Y38989D02*
D03*
X11227D02*
D03*
X10617D02*
D03*
X12382Y39141D02*
D03*
X11227D02*
D03*
X10617D02*
D03*
X16713Y41770D02*
D03*
X12382Y39294D02*
D03*
X11227D02*
D03*
X10617D02*
D03*
X16561Y41948D02*
D03*
X12382Y39446D02*
D03*
X11227D02*
D03*
X10617D02*
D03*
X11938Y41427D02*
D03*
X4915Y38532D02*
D03*
X4115Y39357D02*
D03*
X10084Y40526D02*
D03*
X9665Y40538D02*
D03*
X10274Y41224D02*
D03*
X17818Y44323D02*
D03*
X16942Y43650D02*
D03*
X16015Y44272D02*
D03*
X14224D02*
D03*
X14605Y43828D02*
D03*
X24727Y49720D02*
D03*
X24714Y46431D02*
D03*
X16497Y46228D02*
D03*
X16916D02*
D03*
X16320Y46380D02*
D03*
X17170D02*
D03*
X16167Y46571D02*
D03*
X17183Y46596D02*
D03*
X13589Y45174D02*
D03*
X14478D02*
D03*
X16256Y45161D02*
D03*
X17742Y45148D02*
D03*
X18631Y45161D02*
D03*
X16840Y45148D02*
D03*
X15367Y45161D02*
D03*
X15456Y41605D02*
D03*
X14694Y42672D02*
D03*
X16218Y45618D02*
D03*
X18136Y45631D02*
D03*
X12500Y37567D02*
D03*
X9360Y39230D02*
D03*
X9081Y44044D02*
D03*
X23355Y45720D02*
D03*
X16281Y40462D02*
D03*
X21984Y45860D02*
D03*
X19520Y45047D02*
D03*
Y44679D02*
D03*
X17297Y46190D02*
D03*
X20015Y46888D02*
D03*
X17043Y45885D02*
D03*
X15989Y45517D02*
D03*
X16980Y46723D02*
D03*
X14376D02*
D03*
X13919Y46901D02*
D03*
X14173D02*
D03*
X20129Y44107D02*
D03*
X20117Y45441D02*
D03*
X16662Y45783D02*
D03*
X20206Y44552D02*
D03*
X20384Y43840D02*
D03*
X15710Y46304D02*
D03*
X13284Y45491D02*
D03*
X18809Y45161D02*
D03*
X9474Y47523D02*
D03*
X13030Y45923D02*
D03*
X16789Y45657D02*
D03*
X13119Y48247D02*
D03*
D63*
X22301Y47981D02*
D03*
Y48133D02*
D03*
Y48285D02*
D03*
Y48438D02*
D03*
Y48590D02*
D03*
Y48743D02*
D03*
Y48895D02*
D03*
Y49047D02*
D03*
Y49200D02*
D03*
Y49352D02*
D03*
Y49505D02*
D03*
Y49657D02*
D03*
Y49809D02*
D03*
Y49962D02*
D03*
X23216Y47955D02*
D03*
Y48120D02*
D03*
Y48425D02*
D03*
Y48273D02*
D03*
Y48895D02*
D03*
Y49708D02*
D03*
Y49543D02*
D03*
Y49378D02*
D03*
Y49212D02*
D03*
Y49047D02*
D03*
Y48730D02*
D03*
Y48577D02*
D03*
D64*
X8941Y49685D02*
X9449D01*
X8941Y52474D02*
X9449D01*
Y51839D02*
Y52019D01*
Y52174D01*
Y52019D02*
X9817D01*
X8941Y51839D02*
Y52007D01*
Y52174D01*
X8560Y52007D02*
X8941D01*
X9449Y51229D02*
Y51397D01*
Y51539D01*
Y51397D02*
X9804D01*
X8941Y51229D02*
Y51384D01*
Y51539D01*
X8572Y51384D02*
X8941D01*
X9449Y50620D02*
Y50787D01*
Y50929D01*
Y50787D02*
X9804D01*
X8941Y50620D02*
Y50749D01*
Y50929D01*
X8585Y50749D02*
X8941D01*
X9449Y49985D02*
Y50152D01*
Y50320D01*
Y50152D02*
X9804D01*
X8941Y49985D02*
Y50140D01*
Y50320D01*
X8572Y50140D02*
X8941D01*
M02*
