%FSLAX42Y42*%
%MOMM*%
G71*
G01*
G75*
G04 Layer_Color=16711935*
%ADD10R,1.00X1.60*%
%ADD11R,1.60X1.00*%
%ADD12R,1.60X1.80*%
%ADD13R,0.60X2.20*%
%ADD14R,0.60X2.20*%
%ADD15R,0.60X1.20*%
%ADD16R,1.60X1.00*%
%ADD17R,2.00X2.00*%
%ADD18R,1.60X1.60*%
%ADD19R,2.00X2.00*%
%ADD20R,1.00X0.90*%
%ADD21O,0.60X1.20*%
%ADD22R,2.00X1.40*%
%ADD23R,1.00X1.60*%
%ADD24R,0.90X1.00*%
%ADD25R,1.80X0.35*%
%ADD26O,1.80X0.35*%
%ADD27O,0.30X1.80*%
%ADD28O,1.80X0.30*%
%ADD29R,0.60X1.30*%
%ADD30O,0.60X1.30*%
%ADD31C,1.00*%
%ADD32C,0.50*%
%ADD33C,2.00*%
%ADD34C,0.30*%
%ADD35C,1.25*%
%ADD36C,0.35*%
%ADD37C,0.13*%
%ADD38C,0.10*%
%ADD39C,0.25*%
%ADD40C,4.00*%
G04:AMPARAMS|DCode=41|XSize=2.5mm|YSize=2.5mm|CornerRadius=0.63mm|HoleSize=0mm|Usage=FLASHONLY|Rotation=90.000|XOffset=0mm|YOffset=0mm|HoleType=Round|Shape=RoundedRectangle|*
%AMROUNDEDRECTD41*
21,1,2.50,1.25,0,0,90.0*
21,1,1.25,2.50,0,0,90.0*
1,1,1.25,0.63,0.63*
1,1,1.25,0.63,-0.63*
1,1,1.25,-0.63,-0.63*
1,1,1.25,-0.63,0.63*
%
%ADD41ROUNDEDRECTD41*%
G04:AMPARAMS|DCode=42|XSize=2.5mm|YSize=2.5mm|CornerRadius=0.63mm|HoleSize=0mm|Usage=FLASHONLY|Rotation=180.000|XOffset=0mm|YOffset=0mm|HoleType=Round|Shape=RoundedRectangle|*
%AMROUNDEDRECTD42*
21,1,2.50,1.25,0,0,180.0*
21,1,1.25,2.50,0,0,180.0*
1,1,1.25,-0.63,0.63*
1,1,1.25,0.63,0.63*
1,1,1.25,0.63,-0.63*
1,1,1.25,-0.63,-0.63*
%
%ADD42ROUNDEDRECTD42*%
%ADD43C,1.50*%
%ADD44R,1.50X1.50*%
%ADD45R,1.50X1.50*%
%ADD46C,2.50*%
%ADD47C,3.00*%
%ADD48C,2.59*%
%ADD49C,3.30*%
%ADD50C,1.52*%
%ADD51C,3.20*%
%ADD52R,3.20X3.20*%
%ADD53R,1.60X1.60*%
%ADD54C,1.60*%
%ADD55C,3.80*%
%ADD56C,2.80*%
%ADD57C,2.00*%
G04:AMPARAMS|DCode=58|XSize=2mm|YSize=2.5mm|CornerRadius=0.5mm|HoleSize=0mm|Usage=FLASHONLY|Rotation=180.000|XOffset=0mm|YOffset=0mm|HoleType=Round|Shape=RoundedRectangle|*
%AMROUNDEDRECTD58*
21,1,2.00,1.50,0,0,180.0*
21,1,1.00,2.50,0,0,180.0*
1,1,1.00,-0.50,0.75*
1,1,1.00,0.50,0.75*
1,1,1.00,0.50,-0.75*
1,1,1.00,-0.50,-0.75*
%
%ADD58ROUNDEDRECTD58*%
G04:AMPARAMS|DCode=59|XSize=2.8mm|YSize=3.8mm|CornerRadius=0.7mm|HoleSize=0mm|Usage=FLASHONLY|Rotation=180.000|XOffset=0mm|YOffset=0mm|HoleType=Round|Shape=RoundedRectangle|*
%AMROUNDEDRECTD59*
21,1,2.80,2.40,0,0,180.0*
21,1,1.40,3.80,0,0,180.0*
1,1,1.40,-0.70,1.20*
1,1,1.40,0.70,1.20*
1,1,1.40,0.70,-1.20*
1,1,1.40,-0.70,-1.20*
%
%ADD59ROUNDEDRECTD59*%
%ADD60C,4.70*%
%ADD61C,1.27*%
%ADD62C,1.00*%
%ADD63C,1.20*%
%ADD64C,1.50*%
%ADD65R,1.20X1.80*%
%ADD66R,1.80X1.20*%
%ADD67R,1.80X2.00*%
%ADD68R,0.80X2.40*%
%ADD69R,0.80X2.40*%
%ADD70R,0.80X1.40*%
%ADD71R,1.80X1.20*%
%ADD72R,2.20X2.20*%
%ADD73R,1.80X1.80*%
%ADD74R,2.20X2.20*%
%ADD75R,1.20X1.10*%
%ADD76O,0.80X1.40*%
%ADD77R,2.20X1.60*%
%ADD78R,1.20X1.80*%
%ADD79R,1.10X1.20*%
%ADD80R,2.00X0.55*%
%ADD81O,2.00X0.55*%
%ADD82O,0.50X2.00*%
%ADD83O,2.00X0.50*%
%ADD84R,0.80X1.50*%
%ADD85O,0.80X1.50*%
%ADD86C,4.20*%
G04:AMPARAMS|DCode=87|XSize=2.7mm|YSize=2.7mm|CornerRadius=0.68mm|HoleSize=0mm|Usage=FLASHONLY|Rotation=90.000|XOffset=0mm|YOffset=0mm|HoleType=Round|Shape=RoundedRectangle|*
%AMROUNDEDRECTD87*
21,1,2.70,1.35,0,0,90.0*
21,1,1.35,2.70,0,0,90.0*
1,1,1.35,0.68,0.68*
1,1,1.35,0.68,-0.68*
1,1,1.35,-0.68,-0.68*
1,1,1.35,-0.68,0.68*
%
%ADD87ROUNDEDRECTD87*%
G04:AMPARAMS|DCode=88|XSize=2.7mm|YSize=2.7mm|CornerRadius=0.68mm|HoleSize=0mm|Usage=FLASHONLY|Rotation=180.000|XOffset=0mm|YOffset=0mm|HoleType=Round|Shape=RoundedRectangle|*
%AMROUNDEDRECTD88*
21,1,2.70,1.35,0,0,180.0*
21,1,1.35,2.70,0,0,180.0*
1,1,1.35,-0.68,0.68*
1,1,1.35,0.68,0.68*
1,1,1.35,0.68,-0.68*
1,1,1.35,-0.68,-0.68*
%
%ADD88ROUNDEDRECTD88*%
%ADD89C,1.70*%
%ADD90R,1.70X1.70*%
%ADD91R,1.70X1.70*%
%ADD92C,2.70*%
%ADD93C,3.20*%
%ADD94C,2.79*%
%ADD95C,3.50*%
%ADD96C,1.72*%
%ADD97C,3.40*%
%ADD98R,3.40X3.40*%
%ADD99R,1.80X1.80*%
%ADD100C,1.80*%
%ADD101C,2.20*%
G04:AMPARAMS|DCode=102|XSize=2.2mm|YSize=2.7mm|CornerRadius=0.55mm|HoleSize=0mm|Usage=FLASHONLY|Rotation=180.000|XOffset=0mm|YOffset=0mm|HoleType=Round|Shape=RoundedRectangle|*
%AMROUNDEDRECTD102*
21,1,2.20,1.60,0,0,180.0*
21,1,1.10,2.70,0,0,180.0*
1,1,1.10,-0.55,0.80*
1,1,1.10,0.55,0.80*
1,1,1.10,0.55,-0.80*
1,1,1.10,-0.55,-0.80*
%
%ADD102ROUNDEDRECTD102*%
G04:AMPARAMS|DCode=103|XSize=3mm|YSize=4mm|CornerRadius=0.75mm|HoleSize=0mm|Usage=FLASHONLY|Rotation=180.000|XOffset=0mm|YOffset=0mm|HoleType=Round|Shape=RoundedRectangle|*
%AMROUNDEDRECTD103*
21,1,3.00,2.50,0,0,180.0*
21,1,1.50,4.00,0,0,180.0*
1,1,1.50,-0.75,1.25*
1,1,1.50,0.75,1.25*
1,1,1.50,0.75,-1.25*
1,1,1.50,-0.75,-1.25*
%
%ADD103ROUNDEDRECTD103*%
%ADD104C,4.90*%
%ADD105C,1.47*%
%ADD106C,1.40*%
D38*
X10333Y39778D02*
G03*
X10333Y39778I-50J0D01*
G01*
X4253Y37906D02*
Y39110D01*
X2613Y37906D02*
Y39110D01*
X4253D01*
X2613Y37906D02*
X4253D01*
X9373Y40688D02*
X10373D01*
X9373Y39688D02*
X10373D01*
X9373D02*
Y40688D01*
X10373Y39688D02*
Y40688D01*
D39*
X2502Y37008D02*
Y53251D01*
Y37008D02*
X28245D01*
Y53251D01*
X2502D02*
X28245D01*
D40*
X3641Y39110D02*
D03*
Y37906D02*
D03*
D47*
X3505Y46965D02*
D03*
Y46457D02*
D03*
D63*
X10617Y38824D02*
D03*
X9957Y39853D02*
D03*
X16408Y43612D02*
D03*
X12382Y40881D02*
D03*
X4458Y38900D02*
D03*
X14148Y39370D02*
D03*
X14567Y40081D02*
D03*
X14719Y37452D02*
D03*
X18745Y38417D02*
D03*
X16954Y38570D02*
D03*
X17094Y40577D02*
D03*
X18174D02*
D03*
X10757Y40678D02*
D03*
X10706Y41770D02*
D03*
X9563Y41592D02*
D03*
X11278Y41440D02*
D03*
X11646Y41173D02*
D03*
X12687Y39992D02*
D03*
X12116Y39967D02*
D03*
X11633Y39992D02*
D03*
X12878Y42393D02*
D03*
X12395D02*
D03*
X12344Y42545D02*
D03*
X12141Y42774D02*
D03*
X11849Y42672D02*
D03*
X12078Y42266D02*
D03*
X7226Y40704D02*
D03*
Y41059D02*
D03*
X9284Y40704D02*
D03*
X7277Y42494D02*
D03*
X9804Y39230D02*
D03*
X7277Y43383D02*
D03*
X7811Y43243D02*
D03*
X9817Y45364D02*
D03*
X8915Y41681D02*
D03*
X8585D02*
D03*
X8712Y42558D02*
D03*
X8700Y43294D02*
D03*
X9081Y44704D02*
D03*
Y46114D02*
D03*
Y46457D02*
D03*
X9550Y41059D02*
D03*
X9373Y40958D02*
D03*
X8014Y39649D02*
D03*
X8547Y39916D02*
D03*
X12738Y41250D02*
D03*
X22898Y46723D02*
D03*
X22758Y46444D02*
D03*
X20104Y42532D02*
D03*
X21984Y46812D02*
D03*
X7557Y41605D02*
D03*
X11100Y41262D02*
D03*
X15037Y40564D02*
D03*
X15532Y40361D02*
D03*
X15278Y40488D02*
D03*
X12395Y41250D02*
D03*
X20168Y43180D02*
D03*
X23190Y46101D02*
D03*
X18174Y43002D02*
D03*
X12776Y42799D02*
D03*
X14503D02*
D03*
X15634Y42697D02*
D03*
X16205D02*
D03*
X14122Y43002D02*
D03*
X13475Y42989D02*
D03*
X15342Y42951D02*
D03*
X14275Y42456D02*
D03*
X10185Y41999D02*
D03*
X7722Y41783D02*
D03*
X5156Y39154D02*
D03*
X5258Y38748D02*
D03*
X5156Y38354D02*
D03*
X6528Y39078D02*
D03*
X6248Y37821D02*
D03*
X6871Y38798D02*
D03*
X8115Y39307D02*
D03*
X15278Y38608D02*
D03*
X12421Y42062D02*
D03*
X15278Y39154D02*
D03*
X14808Y41478D02*
D03*
X12408Y41821D02*
D03*
X13297Y38240D02*
D03*
X14656Y41326D02*
D03*
X12408Y41631D02*
D03*
X15951Y41999D02*
D03*
X11925Y39738D02*
D03*
X11989Y41846D02*
D03*
X11773Y39865D02*
D03*
X11024Y40056D02*
D03*
X11227Y39611D02*
D03*
X10224Y40424D02*
D03*
X10147Y40272D02*
D03*
X11405Y41859D02*
D03*
X10732Y39929D02*
D03*
X8776Y42786D02*
D03*
X9182Y43129D02*
D03*
X7455Y39916D02*
D03*
X7633Y40221D02*
D03*
X7811Y40323D02*
D03*
X9703Y38367D02*
D03*
X9220D02*
D03*
X14046Y41910D02*
D03*
X9639Y42939D02*
D03*
X13170Y42545D02*
D03*
X16307Y41948D02*
D03*
X9665Y44729D02*
D03*
X10439Y40704D02*
D03*
X10363Y40881D02*
D03*
X9969Y41224D02*
D03*
X9881Y47371D02*
D03*
X19787Y40526D02*
D03*
X17755Y38392D02*
D03*
X14351Y39256D02*
D03*
X14376Y38176D02*
D03*
X11227Y38837D02*
D03*
X16434Y42494D02*
D03*
X12382Y39878D02*
D03*
X10617Y39611D02*
D03*
X16053Y41707D02*
D03*
X12395Y38837D02*
D03*
X12382Y38989D02*
D03*
X11227D02*
D03*
X10617D02*
D03*
X12382Y39141D02*
D03*
X11227D02*
D03*
X10617D02*
D03*
X16713Y41770D02*
D03*
X12382Y39294D02*
D03*
X11227D02*
D03*
X10617D02*
D03*
X16561Y41948D02*
D03*
X12382Y39446D02*
D03*
X11227D02*
D03*
X10617D02*
D03*
X11938Y41427D02*
D03*
X4915Y38532D02*
D03*
X4115Y39357D02*
D03*
X10084Y40526D02*
D03*
X9665Y40538D02*
D03*
X10274Y41224D02*
D03*
X17818Y44323D02*
D03*
X16942Y43650D02*
D03*
X16015Y44272D02*
D03*
X14224D02*
D03*
X14605Y43828D02*
D03*
X24727Y49720D02*
D03*
X24714Y46431D02*
D03*
X16497Y46228D02*
D03*
X16916D02*
D03*
X16320Y46380D02*
D03*
X17170D02*
D03*
X16167Y46571D02*
D03*
X17183Y46596D02*
D03*
X13589Y45174D02*
D03*
X14478D02*
D03*
X16256Y45161D02*
D03*
X17742Y45148D02*
D03*
X18631Y45161D02*
D03*
X16840Y45148D02*
D03*
X15367Y45161D02*
D03*
X15456Y41605D02*
D03*
X14694Y42672D02*
D03*
X16218Y45618D02*
D03*
X18136Y45631D02*
D03*
X12500Y37567D02*
D03*
X9360Y39230D02*
D03*
X9081Y44044D02*
D03*
X23355Y45720D02*
D03*
X16281Y40462D02*
D03*
X21984Y45860D02*
D03*
X19520Y45047D02*
D03*
Y44679D02*
D03*
X17297Y46190D02*
D03*
X20015Y46888D02*
D03*
X17043Y45885D02*
D03*
X15989Y45517D02*
D03*
X16980Y46723D02*
D03*
X14376D02*
D03*
X13919Y46901D02*
D03*
X14173D02*
D03*
X20129Y44107D02*
D03*
X20117Y45441D02*
D03*
X16662Y45783D02*
D03*
X20206Y44552D02*
D03*
X20384Y43840D02*
D03*
X15710Y46304D02*
D03*
X13284Y45491D02*
D03*
X18809Y45161D02*
D03*
X9474Y47523D02*
D03*
X13030Y45923D02*
D03*
X16789Y45657D02*
D03*
X13119Y48247D02*
D03*
D65*
X11174Y40361D02*
D03*
X10874D02*
D03*
X10107Y41021D02*
D03*
X9807D02*
D03*
X9756Y40767D02*
D03*
X10056D02*
D03*
X10541Y42394D02*
D03*
X10841D02*
D03*
X9662Y40349D02*
D03*
X9962D02*
D03*
X9667Y40040D02*
D03*
X9967D02*
D03*
X5319Y40988D02*
D03*
X5019D02*
D03*
Y40150D02*
D03*
X5319D02*
D03*
X5307Y43350D02*
D03*
X5007D02*
D03*
X6392Y45491D02*
D03*
X6092D02*
D03*
X4951Y46455D02*
D03*
X5251D02*
D03*
X6292Y47366D02*
D03*
X5992D02*
D03*
D66*
X11481Y40338D02*
D03*
Y40638D02*
D03*
X10592Y37495D02*
D03*
Y37795D02*
D03*
X10603Y38549D02*
D03*
Y38249D02*
D03*
X11740Y37468D02*
D03*
Y37768D02*
D03*
Y38530D02*
D03*
Y38230D02*
D03*
X9881Y42217D02*
D03*
Y42517D02*
D03*
X10185Y42217D02*
D03*
Y42517D02*
D03*
X9449Y49685D02*
D03*
Y49985D02*
D03*
X8941Y49685D02*
D03*
Y49985D02*
D03*
X9449Y50320D02*
D03*
Y50620D02*
D03*
X8941Y50320D02*
D03*
Y50620D02*
D03*
X9449Y50929D02*
D03*
Y51229D02*
D03*
X8941Y50929D02*
D03*
Y51229D02*
D03*
X9449Y51539D02*
D03*
Y51839D02*
D03*
X8941Y51539D02*
D03*
Y51839D02*
D03*
X9449Y52174D02*
D03*
Y52474D02*
D03*
X8941Y52174D02*
D03*
Y52474D02*
D03*
X4185Y45209D02*
D03*
Y44909D02*
D03*
X3112Y40681D02*
D03*
Y40381D02*
D03*
X5993Y42512D02*
D03*
Y42212D02*
D03*
X3125Y43043D02*
D03*
Y42743D02*
D03*
D67*
X5652Y42677D02*
D03*
X5372D02*
D03*
X5652Y42982D02*
D03*
X5372D02*
D03*
D73*
X4112Y38383D02*
D03*
X6502Y47015D02*
D03*
D86*
X13043Y52750D02*
D03*
X3250D02*
D03*
X3000Y37500D02*
D03*
X17500D02*
D03*
X27500Y52750D02*
D03*
X27000Y37500D02*
D03*
D87*
X24282Y52489D02*
D03*
Y51981D02*
D03*
X23444D02*
D03*
Y52489D02*
D03*
X9843Y48717D02*
D03*
Y48209D02*
D03*
X6668Y48184D02*
D03*
Y48692D02*
D03*
X22581Y52489D02*
D03*
Y51981D02*
D03*
D88*
X2959Y50546D02*
D03*
X3467D02*
D03*
X2959Y51714D02*
D03*
X3467D02*
D03*
D89*
X6312Y39772D02*
D03*
X6338Y42162D02*
D03*
X3327Y44628D02*
D03*
X6350Y43313D02*
D03*
X7455Y45380D02*
D03*
X7328Y46997D02*
D03*
X3372Y43696D02*
D03*
X4896D02*
D03*
X5658D02*
D03*
X3372Y42172D02*
D03*
X5658D02*
D03*
X4896D02*
D03*
X2864Y43696D02*
D03*
X3118D02*
D03*
X5150D02*
D03*
X5404D02*
D03*
X3118Y42172D02*
D03*
X5404D02*
D03*
X5150D02*
D03*
X4470Y45847D02*
D03*
X5994D02*
D03*
X6756D02*
D03*
X4470Y44323D02*
D03*
X6756D02*
D03*
X5994D02*
D03*
X3962Y45847D02*
D03*
X4216D02*
D03*
X6248D02*
D03*
X6502D02*
D03*
X4216Y44323D02*
D03*
X6502D02*
D03*
X6248D02*
D03*
X6312Y41039D02*
D03*
X3372Y41325D02*
D03*
X4896D02*
D03*
X5658D02*
D03*
X3372Y39801D02*
D03*
X5658D02*
D03*
X4896D02*
D03*
X2864Y41325D02*
D03*
X3118D02*
D03*
X5150D02*
D03*
X5404D02*
D03*
X3118Y39801D02*
D03*
X5404D02*
D03*
X5150D02*
D03*
X13538Y39916D02*
D03*
X13792D02*
D03*
D90*
X6312Y40122D02*
D03*
X6338Y42512D02*
D03*
X6350Y43663D02*
D03*
X7455Y45730D02*
D03*
X7328Y46647D02*
D03*
X2864Y42172D02*
D03*
X3962Y44323D02*
D03*
X6312Y41389D02*
D03*
X2864Y39801D02*
D03*
X14046Y39916D02*
D03*
D91*
X2977Y44628D02*
D03*
D92*
X4359Y48768D02*
D03*
X5359D02*
D03*
X5388Y50984D02*
D03*
X4388D02*
D03*
X4372Y49777D02*
D03*
X5372D02*
D03*
X5388Y51936D02*
D03*
X4388D02*
D03*
D93*
X7557Y48451D02*
D03*
X8957D02*
D03*
X3264Y49454D02*
D03*
Y48054D02*
D03*
D94*
X19183Y38583D02*
D03*
Y39345D02*
D03*
X21215D02*
D03*
X19183Y37821D02*
D03*
X21215D02*
D03*
X19183Y41276D02*
D03*
Y42038D02*
D03*
X21215D02*
D03*
X19183Y40514D02*
D03*
X21215D02*
D03*
X11455Y44272D02*
D03*
X10693D02*
D03*
Y46304D02*
D03*
X12217Y44272D02*
D03*
Y46304D02*
D03*
D95*
X12166Y47148D02*
D03*
Y52990D02*
D03*
X10744Y47148D02*
D03*
Y52990D02*
D03*
X22103Y39282D02*
D03*
X27945D02*
D03*
X22103Y37885D02*
D03*
X27945D02*
D03*
X22129Y41949D02*
D03*
X27971D02*
D03*
X22103Y40602D02*
D03*
X27945D02*
D03*
X27445Y49047D02*
D03*
Y43205D02*
D03*
X25133Y49047D02*
D03*
Y43205D02*
D03*
X26276Y49047D02*
D03*
Y43205D02*
D03*
D96*
X12060Y38184D02*
D03*
X11410D02*
D03*
X12060Y38584D02*
D03*
X11410D02*
D03*
X12060Y37422D02*
D03*
X11410D02*
D03*
X12060Y37822D02*
D03*
X11410D02*
D03*
X10923Y38203D02*
D03*
X10273D02*
D03*
X10923Y38603D02*
D03*
X10273D02*
D03*
X10926Y37424D02*
D03*
X10276D02*
D03*
X10926Y37824D02*
D03*
X10276D02*
D03*
X10914Y42714D02*
D03*
Y42064D02*
D03*
X10514Y42714D02*
D03*
Y42064D02*
D03*
D97*
X7595Y50433D02*
D03*
D98*
Y51333D02*
D03*
D99*
X9220Y42647D02*
D03*
D100*
Y42393D02*
D03*
Y41885D02*
D03*
Y41631D02*
D03*
Y42139D02*
D03*
X3912Y38633D02*
D03*
Y38383D02*
D03*
X4112Y38633D02*
D03*
X6248Y47015D02*
D03*
X5486D02*
D03*
X4470D02*
D03*
X4978D02*
D03*
X5232D02*
D03*
X5740D02*
D03*
X5994D02*
D03*
D101*
X27635Y49637D02*
D03*
Y51887D02*
D03*
X25298Y49637D02*
D03*
Y51887D02*
D03*
X26467Y49637D02*
D03*
Y51887D02*
D03*
X17178Y51117D02*
D03*
X14928D02*
D03*
X17178Y50152D02*
D03*
X14928D02*
D03*
D102*
X21031Y47701D02*
D03*
X20269D02*
D03*
X20015D02*
D03*
X19253D02*
D03*
X17983D02*
D03*
X17221D02*
D03*
X16967D02*
D03*
X16205D02*
D03*
X15697D02*
D03*
X15443D02*
D03*
X14935D02*
D03*
X14681D02*
D03*
X14173D02*
D03*
X13919D02*
D03*
X21285D02*
D03*
X18999D02*
D03*
X18237D02*
D03*
X15951D02*
D03*
X15189D02*
D03*
X14427D02*
D03*
X13665D02*
D03*
D103*
X20015Y52591D02*
D03*
X17983D02*
D03*
X16967D02*
D03*
X14935D02*
D03*
X13919D02*
D03*
X18999D02*
D03*
X15951D02*
D03*
D104*
X20841Y50495D02*
D03*
X14110D02*
D03*
D105*
X18720Y50622D02*
D03*
X18567D02*
D03*
X18415D02*
D03*
X18263D02*
D03*
X18110D02*
D03*
X17958D02*
D03*
X17805D02*
D03*
X17348D02*
D03*
X17653D02*
D03*
X17501D02*
D03*
X17178Y50475D02*
D03*
X17181Y50622D02*
D03*
X17175Y50330D02*
D03*
X17178Y50780D02*
D03*
Y50930D02*
D03*
D106*
X22301Y47981D02*
D03*
Y48133D02*
D03*
Y48285D02*
D03*
Y48438D02*
D03*
Y48590D02*
D03*
Y48743D02*
D03*
Y48895D02*
D03*
Y49047D02*
D03*
Y49200D02*
D03*
Y49352D02*
D03*
Y49505D02*
D03*
Y49657D02*
D03*
Y49809D02*
D03*
Y49962D02*
D03*
X23216Y47955D02*
D03*
Y48120D02*
D03*
Y48425D02*
D03*
Y48273D02*
D03*
Y48895D02*
D03*
Y49708D02*
D03*
Y49543D02*
D03*
Y49378D02*
D03*
Y49212D02*
D03*
Y49047D02*
D03*
Y48730D02*
D03*
Y48577D02*
D03*
M02*
