%FSLAX42Y42*%
%MOMM*%
G71*
G01*
G75*
G04 Layer_Physical_Order=1*
G04 Layer_Color=255*
%ADD10R,1.00X1.60*%
%ADD11R,1.60X1.00*%
%ADD12R,1.60X1.80*%
%ADD13R,0.60X2.20*%
%ADD14R,0.60X2.20*%
%ADD15R,0.60X1.20*%
%ADD16R,1.60X1.00*%
%ADD17R,2.00X2.00*%
%ADD18R,1.60X1.60*%
%ADD19R,2.00X2.00*%
%ADD20R,1.00X0.90*%
%ADD21O,0.60X1.20*%
%ADD22R,2.00X1.40*%
%ADD23R,1.00X1.60*%
%ADD24R,0.90X1.00*%
%ADD25R,1.80X0.35*%
%ADD26O,1.80X0.35*%
%ADD27O,0.30X1.80*%
%ADD28O,1.80X0.30*%
%ADD29R,0.60X1.30*%
%ADD30O,0.60X1.30*%
%ADD31C,1.00*%
%ADD32C,0.50*%
%ADD33C,2.00*%
%ADD34C,0.30*%
%ADD35C,1.25*%
%ADD36C,0.35*%
%ADD37C,0.13*%
%ADD38C,0.10*%
%ADD39C,0.25*%
%ADD40C,4.00*%
G04:AMPARAMS|DCode=41|XSize=2.5mm|YSize=2.5mm|CornerRadius=0.63mm|HoleSize=0mm|Usage=FLASHONLY|Rotation=90.000|XOffset=0mm|YOffset=0mm|HoleType=Round|Shape=RoundedRectangle|*
%AMROUNDEDRECTD41*
21,1,2.50,1.25,0,0,90.0*
21,1,1.25,2.50,0,0,90.0*
1,1,1.25,0.63,0.63*
1,1,1.25,0.63,-0.63*
1,1,1.25,-0.63,-0.63*
1,1,1.25,-0.63,0.63*
%
%ADD41ROUNDEDRECTD41*%
G04:AMPARAMS|DCode=42|XSize=2.5mm|YSize=2.5mm|CornerRadius=0.63mm|HoleSize=0mm|Usage=FLASHONLY|Rotation=180.000|XOffset=0mm|YOffset=0mm|HoleType=Round|Shape=RoundedRectangle|*
%AMROUNDEDRECTD42*
21,1,2.50,1.25,0,0,180.0*
21,1,1.25,2.50,0,0,180.0*
1,1,1.25,-0.63,0.63*
1,1,1.25,0.63,0.63*
1,1,1.25,0.63,-0.63*
1,1,1.25,-0.63,-0.63*
%
%ADD42ROUNDEDRECTD42*%
%ADD43C,1.50*%
%ADD44R,1.50X1.50*%
%ADD45R,1.50X1.50*%
%ADD46C,2.50*%
%ADD47C,3.00*%
%ADD48C,2.59*%
%ADD49C,3.30*%
%ADD50C,1.52*%
%ADD51C,3.20*%
%ADD52R,3.20X3.20*%
%ADD53R,1.60X1.60*%
%ADD54C,1.60*%
%ADD55C,3.80*%
%ADD56C,2.80*%
%ADD57C,2.00*%
G04:AMPARAMS|DCode=58|XSize=2mm|YSize=2.5mm|CornerRadius=0.5mm|HoleSize=0mm|Usage=FLASHONLY|Rotation=180.000|XOffset=0mm|YOffset=0mm|HoleType=Round|Shape=RoundedRectangle|*
%AMROUNDEDRECTD58*
21,1,2.00,1.50,0,0,180.0*
21,1,1.00,2.50,0,0,180.0*
1,1,1.00,-0.50,0.75*
1,1,1.00,0.50,0.75*
1,1,1.00,0.50,-0.75*
1,1,1.00,-0.50,-0.75*
%
%ADD58ROUNDEDRECTD58*%
G04:AMPARAMS|DCode=59|XSize=2.8mm|YSize=3.8mm|CornerRadius=0.7mm|HoleSize=0mm|Usage=FLASHONLY|Rotation=180.000|XOffset=0mm|YOffset=0mm|HoleType=Round|Shape=RoundedRectangle|*
%AMROUNDEDRECTD59*
21,1,2.80,2.40,0,0,180.0*
21,1,1.40,3.80,0,0,180.0*
1,1,1.40,-0.70,1.20*
1,1,1.40,0.70,1.20*
1,1,1.40,0.70,-1.20*
1,1,1.40,-0.70,-1.20*
%
%ADD59ROUNDEDRECTD59*%
%ADD60C,4.70*%
%ADD61C,1.27*%
%ADD62C,1.00*%
%ADD63C,1.20*%
G36*
X14936Y39914D02*
X14940Y39883D01*
X14949Y39862D01*
X14953Y39853D01*
X14962Y39842D01*
X14936Y39790D01*
X14898Y39752D01*
X14493D01*
Y40052D01*
X14221D01*
Y40091D01*
X14199D01*
Y40104D01*
X14199D01*
Y40457D01*
X14394D01*
X14936Y39914D01*
D02*
G37*
G36*
X15084Y39727D02*
X15106Y39718D01*
X15138Y39714D01*
X15944D01*
X15976Y39672D01*
X15997Y39621D01*
X15928Y39553D01*
X15909Y39528D01*
X15903Y39513D01*
X15562D01*
Y39423D01*
X15470Y39384D01*
X15413Y39441D01*
X15388Y39460D01*
X15368Y39468D01*
X15360Y39472D01*
X15329Y39476D01*
X15001D01*
Y39633D01*
X15061Y39712D01*
X15084Y39727D01*
X15084Y39727D01*
D02*
G37*
G36*
X16587Y40929D02*
Y40299D01*
X16496Y40207D01*
X15742D01*
X15694Y40247D01*
X15666Y40293D01*
X15671Y40303D01*
X15680Y40331D01*
X15683Y40361D01*
X15680Y40390D01*
X15671Y40418D01*
X15657Y40444D01*
X15651Y40453D01*
Y40958D01*
X16485D01*
X16495Y40968D01*
X16587Y40929D01*
D02*
G37*
G36*
X13899Y40104D02*
D01*
Y40104D01*
X13885Y40091D01*
X13871D01*
Y39741D01*
X13871D01*
Y39729D01*
X13800Y39659D01*
X13634D01*
X13631Y39667D01*
X13609Y39756D01*
X13636Y39770D01*
X13662Y39792D01*
X13684Y39818D01*
X13700Y39849D01*
X13710Y39882D01*
X13714Y39916D01*
X13710Y39950D01*
X13700Y39983D01*
X13684Y40014D01*
X13662Y40040D01*
X13636Y40062D01*
X13625Y40068D01*
Y40131D01*
X13639D01*
Y40273D01*
X13719Y40352D01*
X13899D01*
Y40104D01*
D02*
G37*
G36*
X17115Y39819D02*
Y39432D01*
X16889Y39206D01*
X16797Y39244D01*
Y39513D01*
X16764D01*
X16761Y39530D01*
X16758Y39539D01*
X16750Y39559D01*
X16731Y39584D01*
X16683Y39632D01*
X16658Y39650D01*
X16638Y39659D01*
X16630Y39662D01*
X16599Y39666D01*
X16646Y39714D01*
X16827D01*
X16860Y39718D01*
X16882Y39727D01*
X16891Y39731D01*
X16917Y39751D01*
X17023Y39857D01*
X17115Y39819D01*
D02*
G37*
G36*
X18762Y38587D02*
X18834Y38499D01*
Y37947D01*
X17921D01*
X17881Y37987D01*
Y38310D01*
X17894Y38334D01*
X17902Y38363D01*
X17905Y38392D01*
X17902Y38422D01*
X17894Y38450D01*
X17880Y38476D01*
X17861Y38499D01*
X17859Y38538D01*
X17892Y38570D01*
Y38570D01*
X17892Y38570D01*
X18252D01*
Y38573D01*
X18363D01*
X18370Y38572D01*
X18670D01*
X18699Y38575D01*
X18727Y38584D01*
X18748Y38595D01*
X18762Y38587D01*
D02*
G37*
G36*
X15414Y38254D02*
Y37859D01*
X15418Y37828D01*
X15421Y37820D01*
X15429Y37799D01*
X15448Y37775D01*
X15498Y37725D01*
X15522Y37707D01*
X15537Y37701D01*
X15551Y37695D01*
X15562Y37693D01*
Y37629D01*
X16162D01*
Y37629D01*
X16162D01*
X16162Y37629D01*
X16197D01*
Y37629D01*
X16797D01*
Y37691D01*
X17142D01*
X17161Y37679D01*
X17209Y37608D01*
X17204Y37596D01*
X17193Y37549D01*
X17189Y37500D01*
X17193Y37451D01*
X17204Y37404D01*
X17223Y37359D01*
X17248Y37317D01*
X17280Y37280D01*
X17317Y37248D01*
X17359Y37223D01*
X17404Y37204D01*
X17438Y37196D01*
X17427Y37097D01*
X13500D01*
X13261Y37387D01*
X13303Y37477D01*
X13409D01*
Y37446D01*
X13769D01*
Y37702D01*
X13861Y37740D01*
X13975Y37626D01*
Y37443D01*
X14335D01*
Y37743D01*
X14534D01*
Y37443D01*
X14569D01*
X14571Y37423D01*
X14580Y37395D01*
X14594Y37369D01*
X14613Y37346D01*
X14636Y37327D01*
X14662Y37313D01*
X14690Y37304D01*
X14719Y37302D01*
X14749Y37304D01*
X14777Y37313D01*
X14803Y37327D01*
X14826Y37346D01*
X14845Y37369D01*
X14859Y37395D01*
X14867Y37423D01*
X14869Y37443D01*
X14894D01*
Y37743D01*
X15174D01*
Y38043D01*
X14678D01*
X14660Y38064D01*
Y38240D01*
X14926D01*
Y38281D01*
X15386D01*
X15414Y38254D01*
D02*
G37*
G36*
X17994Y41262D02*
X18471D01*
X18479Y41262D01*
X18730D01*
X18760Y41264D01*
X18834Y41019D01*
Y39380D01*
X18791Y39337D01*
X18772Y39314D01*
X18758Y39288D01*
X18750Y39260D01*
X18747Y39230D01*
Y39013D01*
X18607Y38874D01*
X18370D01*
X18363Y38873D01*
X18190D01*
Y38870D01*
X17892D01*
Y38838D01*
X17663D01*
X17633Y38834D01*
X17624Y38831D01*
X17604Y38823D01*
X17579Y38804D01*
X17506Y38730D01*
X17487Y38705D01*
X17478Y38685D01*
X17475Y38677D01*
X17471Y38646D01*
Y37971D01*
X17427Y37928D01*
X16797D01*
Y37989D01*
X16497D01*
Y38010D01*
X16497D01*
Y38370D01*
D01*
Y38370D01*
X16497Y38370D01*
Y38391D01*
X16497D01*
Y38751D01*
D01*
Y38751D01*
X16504Y38758D01*
X16810D01*
Y38822D01*
X16820Y38824D01*
X16828Y38827D01*
X16849Y38836D01*
X16873Y38854D01*
X17318Y39299D01*
X17337Y39323D01*
X17342Y39338D01*
X17348Y39352D01*
X17352Y39383D01*
Y40743D01*
X17893Y41283D01*
X17994D01*
Y41262D01*
D02*
G37*
G36*
X13339Y40361D02*
Y40131D01*
X13373D01*
Y39976D01*
X13366Y39950D01*
X13362Y39916D01*
X13366Y39882D01*
X13376Y39849D01*
X13392Y39818D01*
X13414Y39792D01*
X13440Y39770D01*
X13467Y39756D01*
X13445Y39667D01*
X13442Y39659D01*
X13349D01*
Y39299D01*
X13364D01*
X13380Y39283D01*
D01*
X13380Y39283D01*
X13384Y39252D01*
X13388Y39243D01*
X13396Y39223D01*
X13415Y39199D01*
X13415Y39199D01*
X13415Y39199D01*
X13415Y39199D01*
X13467Y39146D01*
X13492Y39128D01*
X13506Y39122D01*
X13520Y39116D01*
X13551Y39112D01*
X13614D01*
Y39069D01*
X13614D01*
Y38712D01*
X13314D01*
Y38663D01*
X13183D01*
X13152Y38659D01*
X13138Y38653D01*
X13123Y38647D01*
X13099Y38628D01*
X13090Y38619D01*
X12997Y38657D01*
X12993Y40081D01*
X13030Y40119D01*
X13050Y40145D01*
X13054Y40154D01*
X13063Y40176D01*
X13067Y40208D01*
Y40219D01*
X13247Y40399D01*
X13339Y40361D01*
D02*
G37*
G36*
X11028Y41191D02*
X11049Y41175D01*
X11074Y41165D01*
X11100Y41161D01*
X11126Y41165D01*
X11150Y41175D01*
X11171Y41191D01*
X11171Y41191D01*
X11178Y41189D01*
Y41189D01*
X11178Y41189D01*
X11210D01*
Y41024D01*
X11106D01*
Y40764D01*
X11106D01*
Y40763D01*
X11085Y40742D01*
X10694D01*
Y40764D01*
X10694D01*
Y41024D01*
X10660D01*
Y41082D01*
X10658Y41099D01*
X10654Y41107D01*
X10651Y41115D01*
X10641Y41128D01*
X10633Y41136D01*
X10645Y41164D01*
X10781D01*
Y41193D01*
X11027D01*
X11028Y41191D01*
D02*
G37*
G36*
X21588Y46665D02*
X21622Y46665D01*
X21652Y46634D01*
Y46634D01*
X21652D01*
D01*
X21656Y46604D01*
X21667Y46576D01*
X21686Y46552D01*
X21711Y46527D01*
X21711Y46527D01*
X21735Y46509D01*
X21763Y46497D01*
X21793Y46493D01*
X22085D01*
X22085Y46493D01*
D01*
D01*
D01*
X22085Y46493D01*
X22085Y46493D01*
D01*
X22085Y46493D01*
X22116Y46496D01*
Y46287D01*
X22120Y46254D01*
X22129Y46233D01*
X22133Y46224D01*
X22153Y46198D01*
X22391Y45960D01*
Y43385D01*
X22058Y43052D01*
X20438D01*
X20324Y43113D01*
X20310Y43132D01*
X20315Y43151D01*
X20318Y43180D01*
X20826Y43230D01*
X20826D01*
D01*
X21250Y43230D01*
X21500Y43481D01*
Y46665D01*
X21588D01*
Y46665D01*
D02*
G37*
G36*
X10350Y43993D02*
X10580D01*
Y43840D01*
X10583Y43814D01*
X10593Y43790D01*
X10609Y43769D01*
X10787Y43591D01*
X10808Y43575D01*
X10832Y43565D01*
X10858Y43562D01*
X11268D01*
Y43396D01*
X11269Y43389D01*
Y43329D01*
X11294D01*
X11298Y43325D01*
X11301Y43322D01*
Y43285D01*
X11269D01*
Y43092D01*
X11241Y43081D01*
X11146Y43176D01*
X11133Y43186D01*
X11125Y43189D01*
X11117Y43193D01*
X11112Y43193D01*
X11062Y43243D01*
X10986Y43320D01*
X10909Y43396D01*
X8966D01*
X8725Y43637D01*
X8623Y43739D01*
Y44362D01*
X9868D01*
X9894Y44365D01*
X9918Y44375D01*
X9939Y44391D01*
X9946Y44398D01*
X10350Y43993D01*
D02*
G37*
G36*
X9194Y46596D02*
X9195D01*
Y46463D01*
X9125Y46393D01*
X8944D01*
Y46457D01*
X8684D01*
Y46257D01*
X8809D01*
X8816Y46251D01*
X8822Y46249D01*
X8835Y46244D01*
X8845Y46243D01*
X8854Y46241D01*
X8854Y46241D01*
X9157D01*
X9176Y46244D01*
X9195Y46251D01*
X9210Y46263D01*
X9298Y46351D01*
X9326Y46340D01*
Y46085D01*
X9328Y46066D01*
X9336Y46047D01*
X9348Y46032D01*
X9589Y45790D01*
Y44795D01*
X9577Y44780D01*
X9567Y44756D01*
X9564Y44729D01*
X9567Y44703D01*
X9577Y44679D01*
X9593Y44658D01*
X9614Y44642D01*
X9639Y44632D01*
X9665Y44629D01*
X9691Y44632D01*
X9715Y44642D01*
X9736Y44658D01*
X9752Y44679D01*
X9762Y44703D01*
X9766Y44729D01*
X9762Y44756D01*
X9752Y44780D01*
X9740Y44795D01*
Y45243D01*
X9767Y45277D01*
X9791Y45267D01*
X9817Y45264D01*
X9843Y45267D01*
X9868Y45277D01*
X9888Y45293D01*
X9890Y45296D01*
X9919Y45286D01*
Y44717D01*
Y44656D01*
X9826Y44564D01*
X8623D01*
Y46698D01*
Y46761D01*
X8674Y46812D01*
X9194D01*
Y46596D01*
D02*
G37*
G36*
X23750Y46999D02*
Y42979D01*
X23500Y42727D01*
X22551D01*
X22513Y42820D01*
X22835Y43142D01*
X22835Y43142D01*
X22846Y43156D01*
X22855Y43168D01*
X22860Y43180D01*
X22867Y43198D01*
X22872Y43231D01*
Y45896D01*
X22910Y45934D01*
X23035Y46002D01*
X23080Y45999D01*
X23084Y45994D01*
X23106Y45976D01*
X23133Y45962D01*
X23161Y45953D01*
X23190Y45950D01*
X23220Y45953D01*
X23248Y45962D01*
X23274Y45976D01*
X23297Y45994D01*
X23316Y46017D01*
X23322Y46029D01*
X23419Y46126D01*
X23439Y46152D01*
X23443Y46161D01*
X23452Y46183D01*
X23456Y46215D01*
Y46876D01*
X23456Y46876D01*
X23452Y46905D01*
X23452Y46908D01*
X23439Y46939D01*
X23419Y46965D01*
X23409Y46975D01*
Y47210D01*
X23502Y47248D01*
X23750Y46999D01*
D02*
G37*
G36*
X12510Y43574D02*
X12548Y43536D01*
Y42960D01*
X12520Y42948D01*
X12481Y42987D01*
X12467Y42998D01*
X12459Y43001D01*
X12451Y43004D01*
X12433Y43007D01*
X11484D01*
X11468Y43022D01*
X11469Y43025D01*
X11469D01*
X11469Y43025D01*
Y43285D01*
X11437D01*
Y43322D01*
X11440Y43325D01*
X11444Y43329D01*
X11469D01*
Y43389D01*
X11470Y43396D01*
Y43648D01*
X11466Y43674D01*
X11456Y43698D01*
X11440Y43719D01*
X11425Y43734D01*
X11404Y43750D01*
X11380Y43760D01*
X11354Y43763D01*
X10900D01*
X10782Y43882D01*
Y43993D01*
X12090D01*
X12510Y43574D01*
D02*
G37*
G36*
X12266Y41196D02*
X12266Y41196D01*
X12281Y41184D01*
X12299Y41177D01*
X12319Y41174D01*
X12330D01*
X12345Y41162D01*
X12369Y41152D01*
X12395Y41149D01*
X12421Y41152D01*
X12446Y41162D01*
X12467Y41178D01*
X12477Y41191D01*
X12505Y41182D01*
Y40813D01*
X12484Y40792D01*
X12436Y40745D01*
X12321D01*
Y40742D01*
X12190D01*
Y40745D01*
X11990D01*
Y40742D01*
X11888D01*
Y40764D01*
X11888D01*
Y41024D01*
X11879D01*
Y41155D01*
X11944D01*
Y41256D01*
X11965D01*
Y41256D01*
X12165D01*
Y41257D01*
X12193Y41269D01*
X12266Y41196D01*
D02*
G37*
G36*
X11779Y41871D02*
X11782Y41868D01*
X11777Y41858D01*
X11775Y41853D01*
X11773Y41836D01*
Y41761D01*
X11739D01*
Y41502D01*
X11737Y41501D01*
X11727Y41487D01*
X11723Y41479D01*
X11720Y41470D01*
X11718Y41453D01*
Y41308D01*
X11720Y41290D01*
X11723Y41282D01*
X11727Y41274D01*
X11737Y41260D01*
X11743Y41254D01*
Y41024D01*
X11688D01*
Y40764D01*
X11688D01*
Y40763D01*
X11667Y40742D01*
X11306D01*
Y40764D01*
X11306D01*
Y40898D01*
X11326Y40917D01*
X11337Y40931D01*
X11340Y40940D01*
X11343Y40948D01*
X11346Y40965D01*
Y41189D01*
X11378D01*
Y41220D01*
X11582D01*
X11600Y41222D01*
X11608Y41225D01*
X11616Y41229D01*
X11631Y41240D01*
X11643Y41252D01*
X11654Y41266D01*
X11659Y41278D01*
X11661Y41283D01*
X11663Y41300D01*
Y41478D01*
X11661Y41496D01*
X11659Y41501D01*
X11654Y41512D01*
X11643Y41526D01*
X11631Y41539D01*
X11629Y41540D01*
Y41761D01*
X11629D01*
X11629Y41772D01*
X11750Y41893D01*
X11751D01*
X11779Y41871D01*
D02*
G37*
G36*
X10836Y41806D02*
X10701Y41671D01*
X10646D01*
Y41703D01*
X10386D01*
Y41516D01*
X10160D01*
Y41681D01*
Y41707D01*
X10287Y41834D01*
X10825D01*
X10836Y41806D01*
D02*
G37*
G36*
X19328Y42555D02*
X18960Y42188D01*
X18911D01*
X18881Y42185D01*
X18853Y42177D01*
X18827Y42163D01*
X18804Y42144D01*
X18715Y42055D01*
X18696Y42032D01*
X18682Y42006D01*
X18674Y41978D01*
X18671Y41948D01*
Y41566D01*
X18668Y41563D01*
X18479D01*
X18471Y41562D01*
X17994D01*
Y41521D01*
X17923D01*
X17884Y41613D01*
X18886Y42648D01*
D01*
X19289D01*
X19328Y42555D01*
D02*
G37*
D10*
X8379Y39305D02*
D03*
X8679D02*
D03*
X12721Y40170D02*
D03*
X12421D02*
D03*
X12721Y40615D02*
D03*
X12421D02*
D03*
X12090Y40170D02*
D03*
X11790D02*
D03*
X12090Y40615D02*
D03*
X11790D02*
D03*
X11788Y40894D02*
D03*
X12088D02*
D03*
X10594D02*
D03*
X10894D02*
D03*
X11206D02*
D03*
X11506D02*
D03*
X11839Y41631D02*
D03*
X12139D02*
D03*
X11529D02*
D03*
X11229D02*
D03*
X16012Y38571D02*
D03*
X15712D02*
D03*
X16347Y38190D02*
D03*
X16647D02*
D03*
X16012Y38952D02*
D03*
X15712D02*
D03*
X16347Y38571D02*
D03*
X16647D02*
D03*
X16012Y37809D02*
D03*
X15712D02*
D03*
X16647D02*
D03*
X16347D02*
D03*
X15712Y38190D02*
D03*
X16012D02*
D03*
X16647Y39333D02*
D03*
X16347D02*
D03*
X16660Y38938D02*
D03*
X16360D02*
D03*
X16012Y39333D02*
D03*
X15712D02*
D03*
X13736Y42231D02*
D03*
X13436D02*
D03*
X13736Y41927D02*
D03*
X13436D02*
D03*
X14269Y42231D02*
D03*
X13969D02*
D03*
X13591Y44977D02*
D03*
X13891D02*
D03*
X19279Y43713D02*
D03*
X18979D02*
D03*
X20384Y43663D02*
D03*
X20684D02*
D03*
X20384Y44107D02*
D03*
X20684D02*
D03*
X20384Y44552D02*
D03*
X20684D02*
D03*
X20384Y44996D02*
D03*
X20684D02*
D03*
X20384Y45441D02*
D03*
X20684D02*
D03*
X20384Y45885D02*
D03*
X20684D02*
D03*
X13799Y39479D02*
D03*
X13499D02*
D03*
X13489Y40311D02*
D03*
X13789D02*
D03*
X14958Y48997D02*
D03*
X14658D02*
D03*
X14958Y48717D02*
D03*
X14658D02*
D03*
X13764Y38889D02*
D03*
X13464D02*
D03*
X13464Y38532D02*
D03*
X13764D02*
D03*
X13464Y38254D02*
D03*
X13764D02*
D03*
X11669Y43155D02*
D03*
X11369D02*
D03*
X18976Y48844D02*
D03*
X19276D02*
D03*
X18976Y48565D02*
D03*
X19276D02*
D03*
X18976Y48285D02*
D03*
X19276D02*
D03*
X16944Y48844D02*
D03*
X17244D02*
D03*
X16944Y48565D02*
D03*
X17244D02*
D03*
X16944Y48285D02*
D03*
X17244D02*
D03*
X16254Y47346D02*
D03*
X15954D02*
D03*
X20297Y47396D02*
D03*
X20597D02*
D03*
X18290Y47371D02*
D03*
X18590D02*
D03*
X19306Y44996D02*
D03*
X19006D02*
D03*
X18979Y43383D02*
D03*
X19279D02*
D03*
X14056Y43745D02*
D03*
X13756D02*
D03*
X14780Y44977D02*
D03*
X14480D02*
D03*
X15669D02*
D03*
X15369D02*
D03*
X16182Y43790D02*
D03*
X16482D02*
D03*
X16558Y44977D02*
D03*
X16258D02*
D03*
X17447D02*
D03*
X17147D02*
D03*
X18049Y43796D02*
D03*
X18349D02*
D03*
X18336Y44977D02*
D03*
X18036D02*
D03*
X11369Y43459D02*
D03*
X11669D02*
D03*
X21008Y48844D02*
D03*
X21308D02*
D03*
X21008Y48285D02*
D03*
X21308D02*
D03*
X21008Y48565D02*
D03*
X21308D02*
D03*
X14349Y40310D02*
D03*
X14049D02*
D03*
D11*
X10516Y41303D02*
D03*
Y41603D02*
D03*
X14503Y43305D02*
D03*
Y43005D02*
D03*
X13259D02*
D03*
Y43305D02*
D03*
X8814Y46357D02*
D03*
Y46657D02*
D03*
X6962Y41384D02*
D03*
Y41684D02*
D03*
X6960Y39799D02*
D03*
Y39499D02*
D03*
X7011Y43386D02*
D03*
Y43086D02*
D03*
X7201Y44686D02*
D03*
Y44386D02*
D03*
X14681Y48110D02*
D03*
Y48410D02*
D03*
X18479Y41412D02*
D03*
Y41112D02*
D03*
X18370Y38423D02*
D03*
Y38723D02*
D03*
X18072Y38420D02*
D03*
Y38720D02*
D03*
X14994Y37593D02*
D03*
Y37893D02*
D03*
X14714Y37593D02*
D03*
Y37893D02*
D03*
X14155Y37593D02*
D03*
Y37893D02*
D03*
X13589Y37596D02*
D03*
Y37896D02*
D03*
X14435Y37893D02*
D03*
Y37593D02*
D03*
X13876Y37893D02*
D03*
Y37593D02*
D03*
X21768Y46815D02*
D03*
Y47115D02*
D03*
X22682Y46840D02*
D03*
Y47140D02*
D03*
X16205Y48410D02*
D03*
Y48110D02*
D03*
X15951Y48410D02*
D03*
Y48110D02*
D03*
X14186Y45000D02*
D03*
Y44700D02*
D03*
X15075Y45000D02*
D03*
Y44700D02*
D03*
X14173Y48110D02*
D03*
Y48410D02*
D03*
X15964Y45000D02*
D03*
Y44700D02*
D03*
X16853Y45000D02*
D03*
Y44700D02*
D03*
X13919Y48110D02*
D03*
Y48410D02*
D03*
X17742Y45000D02*
D03*
Y44700D02*
D03*
X15697Y48410D02*
D03*
Y48110D02*
D03*
X18631Y45000D02*
D03*
Y44700D02*
D03*
X13665Y48110D02*
D03*
Y48410D02*
D03*
X14566Y39602D02*
D03*
Y39902D02*
D03*
X9462Y38071D02*
D03*
Y38371D02*
D03*
X8980Y38071D02*
D03*
Y38371D02*
D03*
X8456Y38083D02*
D03*
Y38383D02*
D03*
X7964Y38096D02*
D03*
Y38396D02*
D03*
X16180Y48745D02*
D03*
Y49045D02*
D03*
X18504Y48435D02*
D03*
Y48135D02*
D03*
X14376Y51768D02*
D03*
Y52068D02*
D03*
X14910Y51768D02*
D03*
Y52068D02*
D03*
X15469Y51768D02*
D03*
Y52068D02*
D03*
X16002Y51768D02*
D03*
Y52068D02*
D03*
X13868Y51768D02*
D03*
Y52068D02*
D03*
X19029Y45629D02*
D03*
Y45329D02*
D03*
X20015Y47094D02*
D03*
Y47394D02*
D03*
X14173Y47094D02*
D03*
Y47394D02*
D03*
X17983Y47069D02*
D03*
Y47369D02*
D03*
X13919Y47094D02*
D03*
Y47394D02*
D03*
X15703Y47060D02*
D03*
Y47360D02*
D03*
X13665Y47094D02*
D03*
Y47394D02*
D03*
X7988Y46398D02*
D03*
Y46698D02*
D03*
X14312Y39902D02*
D03*
Y39602D02*
D03*
X14821Y39902D02*
D03*
Y39602D02*
D03*
X14554Y42314D02*
D03*
Y42014D02*
D03*
X16434Y45921D02*
D03*
Y45621D02*
D03*
X15062Y42674D02*
D03*
Y42974D02*
D03*
X18174Y41112D02*
D03*
Y41412D02*
D03*
X20625Y48385D02*
D03*
Y48085D02*
D03*
D12*
X5047Y37459D02*
D03*
X4767D02*
D03*
X5034Y37725D02*
D03*
X4754D02*
D03*
X4734Y39104D02*
D03*
X4454D02*
D03*
X6101Y39164D02*
D03*
X5821D02*
D03*
X4737Y39345D02*
D03*
X4457D02*
D03*
D13*
X9401Y47276D02*
D03*
X9274D02*
D03*
X9147D02*
D03*
X9528Y46756D02*
D03*
X9401D02*
D03*
X9274D02*
D03*
X9147D02*
D03*
X23152Y47656D02*
D03*
X23025D02*
D03*
X22898D02*
D03*
X23279Y47136D02*
D03*
X23152D02*
D03*
X23025D02*
D03*
X22898D02*
D03*
X21988Y47142D02*
D03*
X22115D02*
D03*
X22242D02*
D03*
X22369D02*
D03*
X21988Y47662D02*
D03*
X22115D02*
D03*
X22242D02*
D03*
D14*
X9528Y47276D02*
D03*
X23279Y47656D02*
D03*
X22369Y47662D02*
D03*
D15*
X18326Y44698D02*
D03*
X18453D02*
D03*
X18072D02*
D03*
X18199D02*
D03*
X18453Y44138D02*
D03*
X18326D02*
D03*
X18199D02*
D03*
X18072D02*
D03*
X17424Y44685D02*
D03*
X17551D02*
D03*
X17170D02*
D03*
X17297D02*
D03*
X17551Y44125D02*
D03*
X17424D02*
D03*
X17297D02*
D03*
X17170D02*
D03*
X16535Y44685D02*
D03*
X16662D02*
D03*
X16281D02*
D03*
X16408D02*
D03*
X16662Y44125D02*
D03*
X16535D02*
D03*
X16408D02*
D03*
X16281D02*
D03*
X15646Y44685D02*
D03*
X15773D02*
D03*
X15392D02*
D03*
X15519D02*
D03*
X15773Y44125D02*
D03*
X15646D02*
D03*
X15519D02*
D03*
X15392D02*
D03*
X14757Y44685D02*
D03*
X14884D02*
D03*
X14503D02*
D03*
X14630D02*
D03*
X14884Y44125D02*
D03*
X14757D02*
D03*
X14630D02*
D03*
X14503D02*
D03*
X13868Y44685D02*
D03*
X13995D02*
D03*
X13614D02*
D03*
X13741D02*
D03*
X13995Y44125D02*
D03*
X13868D02*
D03*
X13741D02*
D03*
X13614D02*
D03*
X16662Y46051D02*
D03*
X16789D02*
D03*
X16916D02*
D03*
X17043D02*
D03*
X17297D02*
D03*
X17170D02*
D03*
X17043Y45491D02*
D03*
X16916D02*
D03*
X16789D02*
D03*
X16662D02*
D03*
X17424D02*
D03*
X17297D02*
D03*
X17170D02*
D03*
X14288Y38960D02*
D03*
Y38400D02*
D03*
X14160Y38960D02*
D03*
X14034D02*
D03*
X14796D02*
D03*
X14668D02*
D03*
X14541D02*
D03*
X14415D02*
D03*
X14160Y38400D02*
D03*
X14415D02*
D03*
X14541D02*
D03*
X14668D02*
D03*
X14796D02*
D03*
X14002Y42790D02*
D03*
Y43350D02*
D03*
X14129Y42790D02*
D03*
X14256D02*
D03*
X13494D02*
D03*
X13621D02*
D03*
X13748D02*
D03*
X13875D02*
D03*
X14129Y43350D02*
D03*
X13875D02*
D03*
X13748D02*
D03*
X13621D02*
D03*
X13494D02*
D03*
X19380Y44704D02*
D03*
X19253D02*
D03*
X19126D02*
D03*
X18999D02*
D03*
X19253Y44144D02*
D03*
X19380D02*
D03*
X18999D02*
D03*
X19126D02*
D03*
D16*
X6962Y40340D02*
D03*
Y40040D02*
D03*
X7591Y44374D02*
D03*
Y44674D02*
D03*
X7011Y42825D02*
D03*
Y42525D02*
D03*
X8980Y37789D02*
D03*
Y37489D02*
D03*
X8456Y37797D02*
D03*
Y37497D02*
D03*
X7964Y37789D02*
D03*
Y37489D02*
D03*
X7988Y46961D02*
D03*
Y47261D02*
D03*
X12979Y43302D02*
D03*
Y43002D02*
D03*
X6962Y40853D02*
D03*
Y41153D02*
D03*
X9462Y37489D02*
D03*
Y37789D02*
D03*
D17*
X3273Y45618D02*
D03*
X2873D02*
D03*
D18*
X18956Y49098D02*
D03*
X19293D02*
D03*
X16924D02*
D03*
X17261D02*
D03*
X20988D02*
D03*
X21325D02*
D03*
X4112Y38383D02*
D03*
X6502Y47015D02*
D03*
D19*
X18504Y49092D02*
D03*
Y48692D02*
D03*
X16586Y49098D02*
D03*
Y48698D02*
D03*
X20625Y49066D02*
D03*
Y48666D02*
D03*
D20*
X10902Y41360D02*
D03*
Y41157D02*
D03*
X10681Y41259D02*
D03*
X11499Y41386D02*
D03*
Y41182D02*
D03*
X11278Y41284D02*
D03*
X12065Y41351D02*
D03*
Y41148D02*
D03*
X11844Y41250D02*
D03*
D21*
X17424Y46051D02*
D03*
X14034Y38400D02*
D03*
X14256Y43350D02*
D03*
D22*
X8729Y39653D02*
D03*
X8317D02*
D03*
X8729Y40161D02*
D03*
X8317D02*
D03*
D23*
X20932Y45441D02*
D03*
X21232D02*
D03*
X20932Y45885D02*
D03*
X21232D02*
D03*
X20932Y44552D02*
D03*
X21232D02*
D03*
X20932Y44996D02*
D03*
X21232D02*
D03*
X20927Y43663D02*
D03*
X21227D02*
D03*
X20932Y44107D02*
D03*
X21232D02*
D03*
X4520Y37722D02*
D03*
X4220D02*
D03*
X4521Y37465D02*
D03*
X4221D02*
D03*
D24*
X19537Y45227D02*
D03*
X19334D02*
D03*
X19435Y45448D02*
D03*
D25*
X5582Y38475D02*
D03*
X6287D02*
D03*
X5582Y38020D02*
D03*
Y38085D02*
D03*
Y38150D02*
D03*
Y38215D02*
D03*
Y38280D02*
D03*
Y38345D02*
D03*
Y38410D02*
D03*
Y38540D02*
D03*
Y38605D02*
D03*
Y38670D02*
D03*
Y38735D02*
D03*
Y38800D02*
D03*
Y38865D02*
D03*
X6287Y38410D02*
D03*
Y38345D02*
D03*
Y38280D02*
D03*
Y38215D02*
D03*
Y38150D02*
D03*
Y38085D02*
D03*
Y38865D02*
D03*
Y38800D02*
D03*
Y38735D02*
D03*
Y38670D02*
D03*
Y38605D02*
D03*
Y38540D02*
D03*
D26*
Y38020D02*
D03*
D27*
X10248Y39633D02*
D03*
X10198D02*
D03*
X10148D02*
D03*
X10098D02*
D03*
X10048D02*
D03*
X9998D02*
D03*
X9948D02*
D03*
X9898D02*
D03*
X9848D02*
D03*
X9798D02*
D03*
X9748D02*
D03*
X9698D02*
D03*
X9648D02*
D03*
X9598D02*
D03*
X9548D02*
D03*
X9498D02*
D03*
Y40743D02*
D03*
X9548D02*
D03*
X9598D02*
D03*
X9648D02*
D03*
X9698D02*
D03*
X9748D02*
D03*
X9798D02*
D03*
X9848D02*
D03*
X9898D02*
D03*
X9948D02*
D03*
X9998D02*
D03*
X10048D02*
D03*
X10098D02*
D03*
X10148D02*
D03*
X10198D02*
D03*
X10248D02*
D03*
D28*
X9318Y39813D02*
D03*
Y39863D02*
D03*
Y39913D02*
D03*
Y39963D02*
D03*
Y40013D02*
D03*
Y40063D02*
D03*
Y40113D02*
D03*
Y40163D02*
D03*
Y40213D02*
D03*
Y40263D02*
D03*
Y40313D02*
D03*
Y40363D02*
D03*
Y40413D02*
D03*
Y40463D02*
D03*
Y40513D02*
D03*
Y40563D02*
D03*
X10428D02*
D03*
Y40513D02*
D03*
Y40463D02*
D03*
Y40413D02*
D03*
Y40363D02*
D03*
Y40313D02*
D03*
Y40263D02*
D03*
Y40213D02*
D03*
Y40163D02*
D03*
Y40113D02*
D03*
Y40063D02*
D03*
Y40013D02*
D03*
Y39963D02*
D03*
Y39913D02*
D03*
Y39863D02*
D03*
Y39813D02*
D03*
D29*
X16307Y43205D02*
D03*
Y42215D02*
D03*
X15799Y43205D02*
D03*
X15926D02*
D03*
X16053D02*
D03*
X16180D02*
D03*
X16434D02*
D03*
X16561D02*
D03*
X16688D02*
D03*
X16815D02*
D03*
X16942D02*
D03*
X16180Y42215D02*
D03*
X16053D02*
D03*
X15926D02*
D03*
X16942D02*
D03*
X16815D02*
D03*
X16688D02*
D03*
X16561D02*
D03*
X16434D02*
D03*
D30*
X15799D02*
D03*
D31*
X13005Y45174D02*
X13589D01*
X12256Y45923D02*
X13005Y45174D01*
X10350Y45923D02*
X12256D01*
X10249Y46025D02*
X10350Y45923D01*
X10249Y46025D02*
Y47003D01*
X9881Y47371D02*
X10249Y47003D01*
X5994Y45174D02*
Y45847D01*
Y44323D02*
Y45174D01*
X9906Y41288D02*
X9969Y41224D01*
X9207Y41288D02*
X9906D01*
X9093Y41173D02*
X9207Y41288D01*
X9093Y40945D02*
Y41173D01*
X9042Y40894D02*
X9093Y40945D01*
X6962Y40340D02*
Y40894D01*
X7234Y42525D02*
X7264Y42494D01*
X7277D01*
X7011Y42525D02*
X7234D01*
X7274Y43386D02*
X7277Y43383D01*
X7011Y43386D02*
X7274D01*
X8687Y42139D02*
X9220D01*
X8331Y41783D02*
X8687Y42139D01*
X7722Y41783D02*
X8331D01*
X8001Y42393D02*
X9220D01*
X6777Y42525D02*
X7011D01*
X6617Y42685D02*
X6777Y42525D01*
X6617Y42685D02*
Y43243D01*
X6548Y43313D02*
X6617Y43243D01*
X6350Y43313D02*
X6548D01*
X11369Y43396D02*
Y43648D01*
X11354Y43663D02*
X11369Y43648D01*
X10858Y43663D02*
X11354D01*
X10681Y43840D02*
X10858Y43663D01*
X10681Y43840D02*
Y44260D01*
X10693Y44272D01*
X19495Y40526D02*
X19787D01*
X19195D02*
X19495D01*
X19183Y40514D02*
X19195Y40526D01*
X18479Y41412D02*
X18730D01*
X18670Y38723D02*
X18898Y38951D01*
X19012Y39345D02*
X19183D01*
X18898Y39230D02*
X19012Y39345D01*
X18898Y38951D02*
Y39230D01*
X18370Y38723D02*
X18670D01*
X5918Y41580D02*
Y42140D01*
X5941Y42162D01*
X6338D01*
X6154Y41039D02*
X6312D01*
X6033Y41161D02*
X6154Y41039D01*
X6312Y40982D02*
Y41039D01*
Y40982D02*
X6442Y40853D01*
X6962D01*
X6312Y39577D02*
Y39772D01*
Y39577D02*
X6390Y39499D01*
X6960D01*
Y39799D02*
X6962Y39802D01*
Y40040D01*
Y41153D02*
Y41384D01*
X6149Y40122D02*
X6312D01*
X6020Y39992D02*
X6149Y40122D01*
X6020Y39573D02*
Y39992D01*
X5969Y39522D02*
X6020Y39573D01*
X5066Y39522D02*
X5969D01*
X4896Y39693D02*
X5066Y39522D01*
X4896Y39693D02*
Y39801D01*
X6033Y41161D02*
Y41465D01*
X5918Y41580D02*
X6033Y41465D01*
X4967Y41580D02*
X5918D01*
X4896Y41509D02*
X4967Y41580D01*
X4896Y41325D02*
Y41509D01*
X7011Y42825D02*
Y43086D01*
Y43386D02*
Y43535D01*
X6883Y43663D02*
X7011Y43535D01*
X6350Y43663D02*
X6883D01*
X6217Y43313D02*
X6350D01*
X6134Y43396D02*
X6217Y43313D01*
X6134Y43396D02*
Y43802D01*
X5867Y44069D02*
X6134Y43802D01*
X5059Y44069D02*
X5867D01*
X4896Y43906D02*
X5059Y44069D01*
X4896Y43696D02*
Y43906D01*
X3118Y43377D02*
Y43696D01*
Y43377D02*
X3797Y42697D01*
Y41478D02*
Y42697D01*
X3644Y41325D02*
X3797Y41478D01*
X3118Y41325D02*
X3644D01*
X7328Y46471D02*
X7401Y46398D01*
X7328Y46471D02*
Y46647D01*
X7401Y46398D02*
X7988D01*
Y46698D02*
Y46961D01*
X7485Y47261D02*
X7988D01*
X7328Y47104D02*
X7485Y47261D01*
X7328Y46997D02*
Y47104D01*
X4470Y46292D02*
X4572Y46190D01*
X4470Y46292D02*
Y47015D01*
X4572Y46190D02*
X6375D01*
X6502Y46063D01*
Y45847D02*
Y46063D01*
X7074Y45060D02*
Y45479D01*
Y45060D02*
X7201Y44933D01*
Y44686D02*
Y44933D01*
Y44386D02*
X7579D01*
X7591Y44374D01*
Y44674D02*
Y44948D01*
X7455Y45085D02*
X7591Y44948D01*
X7455Y45085D02*
Y45380D01*
X7325Y45730D02*
X7455D01*
X7074Y45479D02*
X7325Y45730D01*
X6502Y45568D02*
X6591Y45479D01*
X6502Y45568D02*
Y45847D01*
X4216Y44323D02*
X4470D01*
X3118Y42172D02*
X3372D01*
X3118Y43696D02*
X3372D01*
X3118D02*
Y44050D01*
X2977Y44190D02*
X3118Y44050D01*
X2977Y44190D02*
Y44628D01*
Y45065D01*
X3273Y45361D01*
Y45618D01*
X4216D01*
Y45847D01*
Y45618D02*
X4470D01*
Y45847D01*
X2873Y45618D02*
Y46752D01*
X3086Y46965D01*
X3505D01*
X6591Y45479D02*
X6921D01*
X7074D01*
X7595Y50433D02*
X7596Y50432D01*
X7963D01*
X8153Y50622D01*
Y52337D01*
X8293Y52476D01*
X10160D01*
X10439Y52197D01*
X11951D02*
X12166Y52412D01*
Y52990D01*
X10439Y52197D02*
X11951D01*
X24714Y46418D02*
X24981Y46152D01*
X22129Y41949D02*
X25971D01*
X27317Y40602D02*
X27945D01*
X25971Y41949D02*
X27317Y40602D01*
X20841Y39719D02*
X21215Y39345D01*
X20841Y39719D02*
Y41663D01*
X21215Y42038D01*
X26467Y50698D02*
Y51887D01*
X25794Y48514D02*
Y50025D01*
X24308Y47028D02*
X25794Y48514D01*
X24308Y42761D02*
Y47028D01*
X24079Y42532D02*
X24308Y42761D01*
X21710Y42532D02*
X24079D01*
X21215Y42038D02*
X21710Y42532D01*
X25794Y50025D02*
X26467Y50698D01*
X24981Y46152D02*
X26683D01*
X26937Y45898D01*
Y42113D02*
Y45898D01*
Y42113D02*
X27101Y41949D01*
X27971D01*
X19126Y37821D02*
X19432D01*
X19495Y37884D01*
Y40526D01*
X18730Y41412D02*
X18821Y41504D01*
Y41948D01*
X18911Y42038D01*
X19183D01*
X6962Y40894D02*
X9042D01*
X25298Y50305D02*
Y51887D01*
X7811Y43243D02*
X8001Y43053D01*
Y42393D02*
Y43053D01*
X6962Y41684D02*
Y41861D01*
X7620Y42520D01*
Y43739D01*
X8344Y44463D01*
X9868D01*
X10071Y44666D01*
X11227D01*
X11455Y44437D01*
Y44272D02*
Y44437D01*
X6312Y41389D02*
Y41542D01*
X6464Y41694D01*
X6952D01*
X6962Y41684D01*
X24714Y49720D02*
X25298Y50305D01*
D32*
X9817Y45364D02*
Y45923D01*
X9528Y46212D02*
X9817Y45923D01*
X9528Y46212D02*
Y46756D01*
X11669Y43459D02*
Y43703D01*
X11481Y43891D02*
X11669Y43703D01*
X11062Y43891D02*
X11481D01*
X11024Y43929D02*
X11062Y43891D01*
X11024Y43929D02*
Y44399D01*
X10935Y44488D02*
X11024Y44399D01*
X10312Y44488D02*
X10935D01*
X10058Y44234D02*
X10312Y44488D01*
X8750Y44234D02*
X10058D01*
X8700Y44183D02*
X8750Y44234D01*
X8700Y43961D02*
Y44183D01*
Y43961D02*
X8839Y43821D01*
Y43656D02*
Y43821D01*
X8700Y43517D02*
X8839Y43656D01*
X8700Y43294D02*
Y43517D01*
X18809Y42532D02*
X20104D01*
X17094Y40818D02*
X18809Y42532D01*
X17094Y40577D02*
Y40818D01*
X19126Y44669D02*
X19130Y44673D01*
X7226Y41618D02*
X8001Y42393D01*
X3641Y38392D02*
X3649Y38383D01*
X3912D01*
X4915Y39141D02*
Y39446D01*
X4788Y39573D02*
X4915Y39446D01*
X4734Y39104D02*
X4878D01*
X4915Y39141D01*
X3734Y39573D02*
X4788D01*
X3641Y39480D02*
X3734Y39573D01*
X3641Y39110D02*
Y39480D01*
X10897Y41440D02*
X11278D01*
X16434Y43205D02*
Y43599D01*
X16421Y43612D02*
X16434Y43599D01*
X16408Y43612D02*
X16421D01*
X14566Y40081D02*
X14567Y40081D01*
X14566Y39902D02*
Y40081D01*
X17094Y39827D02*
Y40577D01*
X10894Y40894D02*
X10909Y40879D01*
Y40691D02*
Y40879D01*
X10693Y41783D02*
X10706Y41770D01*
X9652Y41783D02*
X10693D01*
X9563Y41694D02*
X9652Y41783D01*
X9563Y41592D02*
Y41694D01*
X8458Y41440D02*
X10274D01*
X8293Y41605D02*
X8458Y41440D01*
X10274D02*
X10897D01*
X10274Y41224D02*
Y41440D01*
X7557Y41605D02*
X8293D01*
X11669Y43155D02*
Y43459D01*
X12878Y42253D02*
Y42393D01*
Y42253D02*
X12899Y42231D01*
X13436D01*
X10998Y42393D02*
X12395D01*
X10914Y42477D02*
X10998Y42393D01*
X10914Y42477D02*
Y42714D01*
X16205Y42697D02*
X16942D01*
Y42215D02*
Y42697D01*
X12776Y42621D02*
X12878Y42520D01*
X12776Y42621D02*
Y42799D01*
X12878Y42393D02*
Y42520D01*
X10452Y42266D02*
X12078D01*
X10185Y41999D02*
X10452Y42266D01*
X7226Y40704D02*
X9284D01*
X7226Y41059D02*
Y41618D01*
X11410Y38367D02*
Y38584D01*
Y38184D02*
Y38367D01*
Y37822D02*
Y38184D01*
Y37422D02*
Y37822D01*
X10276Y37424D02*
Y37824D01*
X10273Y37827D02*
X10276Y37824D01*
X10273Y37827D02*
Y38203D01*
Y38603D01*
X9401Y46085D02*
X9665Y45822D01*
X9081Y44704D02*
Y46114D01*
X9401Y46085D02*
Y46756D01*
X9665Y44729D02*
Y45822D01*
X8407Y42672D02*
X8522Y42558D01*
X8407Y42672D02*
Y43231D01*
X8585Y41681D02*
X8915D01*
X8522Y42558D02*
X8712D01*
X8407Y43231D02*
X8471Y43294D01*
X8700D01*
X9081Y46457D02*
Y46469D01*
X9147Y46536D01*
Y46756D01*
X8014Y39649D02*
X8017Y39653D01*
X8317D01*
X8547Y39916D02*
X8661D01*
X8729Y39984D01*
Y40161D01*
X16980Y39713D02*
X17094Y39827D01*
X15049Y39713D02*
X16980D01*
X14973Y39789D02*
X15049Y39713D01*
X14973Y39789D02*
Y39865D01*
X14948Y39891D02*
X14973Y39865D01*
X14832Y39891D02*
X14948D01*
X14821Y39902D02*
X14832Y39891D01*
X14566Y39902D02*
X14821D01*
X12217Y41351D02*
X12319Y41250D01*
X12395D01*
X23190Y46101D02*
X23216D01*
X23330Y46215D01*
Y46876D01*
X23279Y46927D02*
X23330Y46876D01*
X23279Y46927D02*
Y47136D01*
X18174Y43002D02*
X18339Y43167D01*
X12975Y43307D02*
X12979Y43302D01*
X12802Y43307D02*
X12975D01*
X12776Y43282D02*
X12802Y43307D01*
X12776Y42799D02*
Y43282D01*
X14503Y42799D02*
Y43005D01*
X13868Y42926D02*
X13875Y42919D01*
Y43350D01*
Y42790D02*
Y42919D01*
X13627Y42926D02*
X13868D01*
X14129Y42790D02*
Y42995D01*
X14122Y43002D02*
X14129Y42995D01*
X13475Y42989D02*
X13494Y42970D01*
Y42790D02*
Y42970D01*
X13621Y42920D02*
X13627Y42926D01*
X13621Y42790D02*
Y42920D01*
X15799Y42977D02*
Y43205D01*
X15773Y42951D02*
X15799Y42977D01*
X15342Y42951D02*
X15773D01*
X10514Y42064D02*
X10914D01*
X14275Y42456D02*
Y42507D01*
X9576Y42393D02*
X9982Y41986D01*
X10185Y41999D02*
X10198Y41986D01*
X9220Y42393D02*
X9576D01*
X8115Y39307D02*
X8117Y39305D01*
X8379D01*
X13667Y40478D02*
X14018D01*
X13499Y40311D02*
X13667Y40478D01*
X14018D02*
X14046Y40451D01*
Y39916D02*
Y40451D01*
X13499Y39955D02*
Y40311D01*
X13779Y39929D02*
Y40311D01*
X13436Y41927D02*
X13567D01*
X13856Y42231D02*
X13969D01*
X13736D02*
X13856D01*
X13614Y42783D02*
X13621Y42790D01*
X13614Y42596D02*
Y42783D01*
X13564Y42545D02*
X13614Y42596D01*
X13170Y42545D02*
X13564D01*
X13748Y42501D02*
Y42790D01*
X13589Y42342D02*
X13748Y42501D01*
X13589Y41961D02*
Y42342D01*
X15926Y42608D02*
Y43066D01*
X16053Y43205D02*
Y43345D01*
X15989Y43409D02*
X16053Y43345D01*
X15215Y43409D02*
X15989D01*
X14973Y43650D02*
X15215Y43409D01*
X14491Y43650D02*
X14973D01*
X14389Y43752D02*
X14491Y43650D01*
X14063Y43752D02*
X14389D01*
X14056Y43745D02*
X14063Y43752D01*
X16180Y43205D02*
Y43421D01*
X16065Y43536D02*
X16180Y43421D01*
X15304Y43536D02*
X16065D01*
X15011Y43828D02*
X15304Y43536D01*
X14605Y43828D02*
X15011D01*
X14351Y39180D02*
Y39256D01*
Y39180D02*
X14415Y39116D01*
Y38960D02*
Y39116D01*
X13741Y43942D02*
Y43980D01*
Y43942D02*
X13756Y43927D01*
Y43745D02*
Y43927D01*
X13056Y43485D02*
X13462D01*
X13494Y43350D02*
Y43452D01*
X13462Y43485D02*
X13494Y43452D01*
X13297Y43167D02*
X13551D01*
X13875Y43350D02*
Y43452D01*
X13868Y43459D02*
X13875Y43452D01*
X13754Y43459D02*
X13868D01*
X13748Y43454D02*
X13754Y43459D01*
X13748Y43350D02*
Y43454D01*
X14338Y43345D02*
X14379Y43305D01*
X14261Y43345D02*
X14338D01*
X14256Y43350D02*
X14261Y43345D01*
X15799Y42482D02*
X15926Y42608D01*
X16307Y43205D02*
Y43459D01*
X16561Y43205D02*
Y43459D01*
X12979Y43409D02*
X13056Y43485D01*
X12979Y43302D02*
Y43409D01*
X10514Y42714D02*
X10914D01*
X14129Y43350D02*
X14256D01*
X12979Y43002D02*
X12982Y43005D01*
X13259D01*
Y43205D02*
X13297Y43167D01*
X13551D02*
X13621Y43238D01*
X13259Y43205D02*
Y43305D01*
X13621Y43238D02*
Y43350D01*
X13567Y41927D02*
X13589Y41948D01*
X13969Y42231D02*
X13970Y42232D01*
Y42227D02*
Y42520D01*
X14002Y42552D01*
Y42790D01*
X14269Y42231D02*
X14275Y42237D01*
X14256Y42525D02*
X14275Y42507D01*
X14256Y42525D02*
Y42790D01*
X8814Y46657D02*
Y46723D01*
X8846Y46756D01*
X9147D01*
X15799Y42215D02*
Y42482D01*
X16688Y43396D02*
X16942Y43650D01*
X16688Y43205D02*
Y43396D01*
X16561Y43459D02*
X16897Y43796D01*
X18049D01*
X16167Y43774D02*
X16182Y43790D01*
X16167Y43599D02*
Y43774D01*
Y43599D02*
X16307Y43459D01*
X14046Y39549D02*
Y39916D01*
X13975Y39479D02*
X14046Y39549D01*
X13799Y39479D02*
X13975D01*
X13499Y39955D02*
X13538Y39916D01*
X21232Y45441D02*
Y45885D01*
Y44996D02*
Y45441D01*
Y44552D02*
Y44996D01*
Y44107D02*
Y44552D01*
Y43667D02*
Y44107D01*
X21227Y43663D02*
X21232Y43667D01*
X20684Y45885D02*
X20932D01*
X20684Y45441D02*
X20932D01*
X20684Y44996D02*
X20932D01*
X20684Y44552D02*
X20932D01*
X20701Y44107D02*
X20932D01*
X20684Y43663D02*
X20927D01*
X13591Y44842D02*
Y44977D01*
Y44842D02*
X13614Y44819D01*
Y44685D02*
Y44819D01*
X13891Y44879D02*
Y44977D01*
X13868Y44856D02*
X13891Y44879D01*
X13868Y44685D02*
Y44856D01*
X14010Y44700D02*
X14186D01*
X13995Y44685D02*
X14010Y44700D01*
X14480Y44804D02*
Y44977D01*
Y44804D02*
X14503Y44781D01*
Y44685D02*
Y44781D01*
X14186Y45000D02*
X14457D01*
X14480Y44977D01*
X14780Y44828D02*
Y44977D01*
X14757Y44805D02*
X14780Y44828D01*
X14757Y44685D02*
Y44805D01*
X15075Y45000D02*
X15346D01*
X15369Y44977D01*
Y44842D02*
Y44977D01*
Y44842D02*
X15392Y44819D01*
Y44685D02*
Y44819D01*
X15669Y44866D02*
Y44977D01*
X15646Y44843D02*
X15669Y44866D01*
X15646Y44685D02*
Y44843D01*
X15964Y45000D02*
X16235D01*
X16258Y44977D01*
Y44829D02*
X16281Y44806D01*
Y44685D02*
Y44806D01*
X16258Y44829D02*
Y44977D01*
X16558Y44866D02*
Y44977D01*
X16535Y44843D02*
X16558Y44866D01*
X16535Y44685D02*
Y44843D01*
X16853Y45000D02*
X17124D01*
X17147Y44977D01*
Y44854D02*
Y44977D01*
Y44854D02*
X17170Y44831D01*
Y44685D02*
Y44831D01*
X17447Y44879D02*
Y44977D01*
X17424Y44856D02*
X17447Y44879D01*
X17424Y44685D02*
Y44856D01*
X17727Y44685D02*
X17742Y44700D01*
X17551Y44685D02*
X17727D01*
X16677Y44700D02*
X16853D01*
X16662Y44685D02*
X16677Y44700D01*
X15788D02*
X15964D01*
X15773Y44685D02*
X15788Y44700D01*
X14899D02*
X15075D01*
X14884Y44685D02*
X14899Y44700D01*
X17742Y45000D02*
X18013D01*
X18036Y44977D01*
Y44854D02*
Y44977D01*
Y44854D02*
X18072Y44819D01*
Y44698D02*
Y44819D01*
X18326Y44831D02*
X18336Y44841D01*
X18326Y44698D02*
Y44831D01*
X18326Y44698D02*
X18326Y44698D01*
X18336Y44841D02*
Y44977D01*
X19002Y45000D02*
X19006Y44996D01*
X18455Y44700D02*
X18631D01*
X18453Y44698D02*
X18455Y44700D01*
X18631D02*
X18690D01*
X19306Y44996D02*
Y45199D01*
X19334Y45227D01*
X19006Y44996D02*
Y45306D01*
X19029Y45329D01*
X18326Y43980D02*
Y44138D01*
Y43980D02*
X18349Y43957D01*
Y43796D02*
Y43957D01*
X17424Y44125D02*
Y44285D01*
X17462Y44323D01*
X18136D01*
X18199Y44260D01*
Y44138D02*
Y44260D01*
X16482Y43790D02*
Y43927D01*
X16535Y43980D01*
Y44125D01*
X15646D02*
Y44246D01*
X15672Y44272D01*
X16370D01*
X16408Y44234D01*
Y44125D02*
Y44234D01*
X15519Y44006D02*
Y44125D01*
Y44006D02*
X15545Y43980D01*
X16535D01*
X17297Y44031D02*
Y44125D01*
Y44031D02*
X17348Y43980D01*
X18326D01*
X13868Y44125D02*
Y44246D01*
X13894Y44272D01*
X14592D01*
X14630Y44234D01*
Y44125D02*
Y44234D01*
X14757Y44018D02*
Y44125D01*
X14719Y43980D02*
X14757Y44018D01*
X13741Y43980D02*
Y44125D01*
Y43980D02*
X14719D01*
X19257Y44673D02*
Y44809D01*
X19279Y44831D01*
X19634D01*
X19710Y44907D01*
Y45415D01*
X19678Y45448D02*
X19710Y45415D01*
X19435Y45448D02*
X19678D01*
X18336Y44977D02*
Y45171D01*
X18181Y45326D02*
X18336Y45171D01*
X17348Y45326D02*
X18181D01*
X17297Y45377D02*
X17348Y45326D01*
X17297Y45377D02*
Y45491D01*
X17447Y44977D02*
Y45177D01*
X17399Y45225D02*
X17447Y45177D01*
X17196Y45225D02*
X17399D01*
X17043Y45377D02*
X17196Y45225D01*
X17043Y45377D02*
Y45491D01*
X16558Y44977D02*
Y45158D01*
X16675Y45276D01*
X16701D01*
X16789Y45364D01*
Y45491D01*
X16916Y46051D02*
Y46228D01*
X17170Y46051D02*
Y46380D01*
X16142Y46571D02*
X16167D01*
X17424Y46051D02*
Y46545D01*
X17374Y46596D02*
X17424Y46545D01*
X17183Y46596D02*
X17374D01*
X13591Y44977D02*
Y45172D01*
X13589Y45174D02*
X13591Y45172D01*
X14480Y44977D02*
Y45174D01*
X14478Y45174D02*
X14480D01*
X14480Y45174D01*
X16258Y44977D02*
Y45159D01*
X17742Y45000D02*
Y45148D01*
X16853Y45000D02*
X16853Y45000D01*
Y45136D01*
X16840Y45148D02*
X16853Y45136D01*
X15369Y44977D02*
Y45160D01*
X15367Y45161D02*
X15368D01*
X15369Y45160D01*
X18504Y45491D02*
X18631Y45365D01*
X16942Y42697D02*
Y42939D01*
X17590Y43586D01*
X18517D01*
X18644Y43713D01*
X14465Y40919D02*
X15304Y40081D01*
X16548D01*
X16713Y40246D01*
X18771Y43066D02*
X20053D01*
X20168Y43180D01*
X17755Y37935D02*
Y38392D01*
Y37935D02*
X17868Y37821D01*
X19126D01*
X15176Y41592D02*
X15316Y41732D01*
X15672D01*
X15862Y41542D01*
X16713D01*
X15367Y42532D02*
X15532Y42697D01*
X15634D01*
X14379Y43305D02*
X14503D01*
X14002Y43350D02*
Y43479D01*
X14046Y43523D01*
X14796Y42901D02*
X14884Y42812D01*
X15926D01*
Y43205D01*
X14046Y43523D02*
X14668D01*
X14796Y43396D01*
Y42901D02*
Y43396D01*
X15062Y42532D02*
Y42674D01*
Y42532D02*
X15367D01*
X15319Y42974D02*
X15342Y42951D01*
X15062Y42974D02*
X15319D01*
X14554Y42314D02*
Y42532D01*
X14503Y42558D02*
Y42799D01*
Y42558D02*
X14529Y42532D01*
X15062D01*
X13736Y41763D02*
Y41927D01*
Y41763D02*
X13767Y41732D01*
X14224D01*
X14275Y41783D01*
X14269Y42231D02*
X14275Y42226D01*
X14290Y42014D02*
X14554D01*
X14275Y41783D02*
Y41999D01*
Y42226D01*
Y41999D02*
X14290Y42014D01*
X16434Y45921D02*
Y46038D01*
X16448Y46051D01*
X16662D01*
X16431Y45618D02*
X16434Y45621D01*
X16218Y45618D02*
X16431D01*
X18631Y45000D02*
Y45365D01*
X17424Y45491D02*
X18136D01*
X18504D01*
X18136D02*
Y45631D01*
X16713Y40246D02*
Y41008D01*
X12738D02*
Y41250D01*
Y41008D02*
X12827Y40919D01*
X14465D01*
X16713Y41008D02*
X18771Y43066D01*
X13602Y41592D02*
X15176D01*
X13564Y41923D02*
X13567Y41927D01*
X13564Y41631D02*
Y41923D01*
Y41631D02*
X13602Y41592D01*
X17323Y42964D02*
X17742Y43383D01*
X16713Y41542D02*
X17323Y42151D01*
Y42964D01*
X14275Y42202D02*
Y42456D01*
X9982Y41986D02*
X10198D01*
X22369Y46503D02*
Y47142D01*
Y46503D02*
X22428Y46444D01*
X22758D01*
X12721Y40170D02*
X12903D01*
X12941Y40208D01*
Y40272D01*
X13252Y40583D01*
X14446D01*
X15062Y39967D01*
Y39916D02*
Y39967D01*
Y39916D02*
X15138Y39840D01*
X16827D01*
X16954Y39967D01*
Y40894D01*
X18834Y42774D01*
X22288D01*
X22746Y43231D01*
Y45949D01*
X23152Y46355D01*
Y47136D01*
X6248Y37821D02*
X7137D01*
X7633Y37325D01*
X10249D02*
X10276Y37298D01*
Y37424D01*
X9462Y37339D02*
Y37489D01*
X9449Y37325D02*
X9462Y37339D01*
X9449Y37325D02*
X10249D01*
X8980Y37326D02*
Y37489D01*
X8979Y37325D02*
X9449D01*
X7964Y37339D02*
Y37489D01*
X7633Y37325D02*
X7950D01*
X8979D02*
X8980Y37326D01*
X8456Y37336D02*
Y37497D01*
X7950Y37325D02*
X7964Y37339D01*
X7950Y37325D02*
X8446D01*
X8979D01*
X22242Y46287D02*
Y47142D01*
Y46287D02*
X22517Y46012D01*
Y43332D02*
Y46012D01*
X22111Y42926D02*
X22517Y43332D01*
X18809Y42926D02*
X22111D01*
X16840Y40958D02*
X18809Y42926D01*
X16840Y40107D02*
Y40958D01*
X16701Y39967D02*
X16840Y40107D01*
X15227Y39967D02*
X16701D01*
X14478Y40716D02*
X15227Y39967D01*
X12822Y40716D02*
X14478D01*
X12721Y40615D02*
X12822Y40716D01*
X12500Y37567D02*
Y37605D01*
X10276Y37222D02*
Y37298D01*
Y37222D02*
X10363Y37135D01*
X12421D01*
X12500Y37214D01*
Y37605D01*
X11410Y38367D02*
X11435Y38392D01*
X12395D01*
X12500Y38287D01*
Y37605D02*
Y38287D01*
X8814Y46357D02*
X8854Y46317D01*
X9157D01*
X9271Y46431D01*
Y46753D01*
X9274Y46756D01*
X21984Y45860D02*
Y45898D01*
X10757Y40678D02*
X10897D01*
X10909Y40691D01*
X12065Y41351D02*
X12217D01*
X19537Y45064D02*
Y45227D01*
X19520Y45047D02*
X19537Y45064D01*
X19520Y44577D02*
Y44679D01*
X19495Y44552D02*
X19520Y44577D01*
X19876Y44679D02*
X20002Y44552D01*
X19126Y44564D02*
Y44669D01*
X19114Y44552D02*
X19126Y44564D01*
X21227Y43465D02*
Y43663D01*
X21196Y43434D02*
X21227Y43465D01*
X19114Y44552D02*
X19495D01*
X18631Y44552D02*
X18631Y44552D01*
X17742D02*
X18631D01*
X20002Y43701D02*
X20269Y43434D01*
X21196D01*
X20002Y43701D02*
Y44552D01*
X17742Y44552D02*
Y44700D01*
X15075Y44552D02*
Y44700D01*
X18631Y44552D02*
Y44700D01*
X16853Y44552D02*
Y44700D01*
X17742Y44552D02*
X17742Y44552D01*
X16853D02*
X17742D01*
X16853Y44552D02*
X16853Y44552D01*
X15951D02*
X16853D01*
X15964Y44564D02*
Y44700D01*
X15951Y44552D02*
X15964Y44564D01*
X15075Y44552D02*
X15951D01*
X15075D02*
X15075Y44552D01*
X14186Y44590D02*
X14224Y44552D01*
X15075D01*
X14186Y44590D02*
Y44700D01*
X17261Y48861D02*
Y49098D01*
X17244Y48844D02*
X17261Y48861D01*
X17244Y48565D02*
Y48844D01*
Y48285D02*
Y48565D01*
X16924Y48864D02*
Y49098D01*
Y48864D02*
X16944Y48844D01*
Y48565D02*
Y48844D01*
Y48285D02*
Y48565D01*
Y48054D02*
Y48285D01*
Y48054D02*
X16967Y48031D01*
Y47701D02*
Y48031D01*
X17221Y47701D02*
Y48031D01*
X17244Y48054D01*
Y48285D01*
X16586Y49098D02*
X16924D01*
X16539Y48745D02*
X16586Y48698D01*
X16180Y48745D02*
X16539D01*
X16038Y49045D02*
X16180D01*
X15964Y48971D02*
X16038Y49045D01*
X19293Y48861D02*
Y49098D01*
X19276Y48844D02*
X19293Y48861D01*
X19276Y48565D02*
Y48844D01*
Y48285D02*
Y48565D01*
Y48080D02*
Y48285D01*
X19240Y48044D02*
X19276Y48080D01*
X19240Y47714D02*
Y48044D01*
Y47714D02*
X19253Y47701D01*
X18956Y49002D02*
Y49098D01*
X18976Y48844D02*
Y48982D01*
X18956Y49002D02*
X18976Y48982D01*
Y48565D02*
Y48844D01*
Y48285D02*
Y48565D01*
Y48080D02*
Y48285D01*
Y48080D02*
X18999Y48057D01*
Y47701D02*
Y48057D01*
X18510Y49098D02*
X18956D01*
X18504Y49092D02*
X18510Y49098D01*
X18504Y48435D02*
Y48692D01*
Y47777D02*
Y48135D01*
X18237Y47701D02*
X18428D01*
X18504Y47777D01*
X21325Y48861D02*
Y49098D01*
X21308Y48844D02*
X21325Y48861D01*
X21308Y48565D02*
Y48844D01*
Y48285D02*
Y48565D01*
Y48080D02*
Y48285D01*
X21285Y47701D02*
Y48057D01*
X21308Y48080D01*
X20988Y48864D02*
Y49098D01*
Y48864D02*
X21008Y48844D01*
Y48565D02*
Y48844D01*
Y48285D02*
Y48565D01*
Y48092D02*
Y48285D01*
Y48092D02*
X21031Y48070D01*
Y47701D02*
Y48070D01*
X20657Y49098D02*
X20988D01*
X20625Y49066D02*
X20657Y49098D01*
X20625Y48385D02*
Y48666D01*
Y47803D02*
Y48085D01*
X20269Y47701D02*
X20523D01*
X20625Y47803D01*
X20015Y47394D02*
Y47701D01*
X20018Y47396D02*
X20297D01*
X20015Y47394D02*
X20018Y47396D01*
X16205Y47549D02*
Y47701D01*
X16254Y47346D02*
X16256Y47348D01*
X16205Y47549D02*
X16256Y47498D01*
Y47348D02*
Y47498D01*
X15951Y47348D02*
Y47701D01*
Y47348D02*
X15954Y47346D01*
X15951Y47701D02*
Y48110D01*
X15964Y48387D02*
Y48410D01*
Y48971D01*
X15951Y48410D02*
X15964D01*
X16205D01*
X15951Y48110D02*
X16205D01*
X15697D02*
X15951D01*
X15517Y48410D02*
X15697D01*
X15481Y48374D02*
X15517Y48410D01*
X15481Y48031D02*
Y48374D01*
Y48031D02*
X15557Y47955D01*
X15659D01*
X15697Y47917D01*
Y47701D02*
Y47917D01*
X16205Y47701D02*
X16218Y47714D01*
X16370D01*
X16459Y47803D01*
Y48323D01*
X16373Y48410D02*
X16459Y48323D01*
X16205Y48410D02*
X16373D01*
X14681Y47701D02*
Y48110D01*
X13665Y48410D02*
X13919D01*
X14173D01*
X14681D01*
X14658Y48550D02*
Y48717D01*
Y48550D02*
X14681Y48527D01*
Y48410D02*
Y48527D01*
X14935Y47701D02*
Y47942D01*
X14958Y47965D01*
Y48717D01*
Y48997D01*
X13665Y47701D02*
Y48110D01*
Y47394D02*
Y47701D01*
X13919Y47394D02*
Y47701D01*
X14173Y47394D02*
Y47701D01*
Y48110D01*
X13919Y47701D02*
Y48110D01*
X15703Y47360D02*
Y47695D01*
X15697Y47701D02*
X15703Y47695D01*
X17983Y47369D02*
Y47701D01*
Y47369D02*
X18288D01*
X18290Y47371D01*
X17297Y46051D02*
Y46190D01*
X20015Y46888D02*
Y47094D01*
X17043Y45885D02*
Y46051D01*
X16650Y45479D02*
X16662Y45491D01*
X15989Y45517D02*
X16027Y45479D01*
X16650D01*
X17170Y45491D02*
Y45644D01*
X17577Y45707D02*
X17615Y45745D01*
Y46622D01*
X16980Y46723D02*
X17513D01*
X14211Y46558D02*
X14376Y46723D01*
X13665Y46634D02*
X13741Y46558D01*
X13665Y46634D02*
Y47094D01*
X13741Y46558D02*
X14211D01*
X17170Y45644D02*
X17234Y45707D01*
X17577D01*
X17513Y46723D02*
X17615Y46622D01*
X13919Y46901D02*
Y47094D01*
X14173Y46901D02*
Y47094D01*
X20015Y45961D02*
Y46888D01*
Y45961D02*
X20091Y45885D01*
X20384D01*
X20129Y44107D02*
X20384D01*
X20117Y45441D02*
X20384D01*
X16916Y45491D02*
Y45657D01*
X16662Y45491D02*
Y45783D01*
X20206Y44552D02*
X20384D01*
Y43663D02*
Y43840D01*
X15703Y46311D02*
X15710Y46304D01*
X15703Y46311D02*
Y47060D01*
X13891Y44977D02*
Y45705D01*
X14008Y45822D01*
X15456D01*
X16167Y46533D01*
Y46571D01*
X14780Y44977D02*
Y45552D01*
X14884Y45657D01*
X15481D01*
X16205Y46380D01*
X16320D01*
X16256Y46228D02*
X16497D01*
X15669Y44977D02*
Y45641D01*
X16256Y46228D01*
X16177Y45921D02*
X16434D01*
X15773Y44685D02*
X15799Y44711D01*
Y45542D02*
X16177Y45921D01*
X15799Y44711D02*
Y45542D01*
X19435Y45448D02*
Y45843D01*
X19029Y45629D02*
Y45838D01*
X19380Y45898D02*
X19435Y45843D01*
X19029Y45838D02*
X19088Y45898D01*
X19380D01*
X18979Y43713D02*
Y43947D01*
X19003Y43971D01*
Y44113D01*
X19126Y44109D02*
X19130Y44113D01*
X19384Y44009D02*
Y44113D01*
X19279Y43383D02*
Y43713D01*
Y43904D02*
X19384Y44009D01*
X19279Y43713D02*
Y43904D01*
Y43193D02*
Y43383D01*
X19253Y43167D02*
X19279Y43193D01*
X18979Y43383D02*
X19088D01*
X19126Y43421D01*
Y44109D01*
X19520Y44679D02*
X19876D01*
X18339Y43167D02*
X19253D01*
X17742Y43383D02*
X18979D01*
X18644Y43713D02*
X18979D01*
X18631Y45000D02*
X19002D01*
X18631Y44552D02*
X19114D01*
X14427Y46977D02*
Y47701D01*
X14529Y46368D02*
Y46876D01*
X14427Y46977D02*
X14529Y46876D01*
X14427Y46266D02*
X14529Y46368D01*
X13843Y46266D02*
X14427D01*
X13284Y45707D02*
X13843Y46266D01*
X13284Y45491D02*
Y45707D01*
X18809Y45161D02*
Y45428D01*
X18847Y45466D01*
X19152D01*
X19334Y45284D01*
Y45227D02*
Y45284D01*
X13663Y48412D02*
X13665Y48410D01*
X18590Y47183D02*
Y47371D01*
X16789Y46051D02*
Y46876D01*
X16878Y46965D01*
X17577D01*
X17767Y46774D01*
X19431D02*
X19863Y46342D01*
Y45047D02*
Y46342D01*
Y45047D02*
X19914Y44996D01*
X20384D01*
X17983Y46787D02*
Y47069D01*
X17971Y46774D02*
X17983Y46787D01*
X17767Y46774D02*
X17971D01*
X19431D01*
X15954Y47140D02*
Y47346D01*
Y47140D02*
X15989Y47104D01*
X16396D01*
X16510Y47219D01*
X18123D01*
X18186Y47155D01*
X19444D01*
X19545Y47257D01*
X20282D01*
X20371Y47168D01*
X20549D01*
X20597Y47216D01*
Y47396D01*
X16815Y45695D02*
X16878D01*
X16916Y45657D01*
X16789Y45669D02*
X16815Y45695D01*
X16789Y45657D02*
Y45669D01*
X13030Y45923D02*
X13119Y46012D01*
X13206Y48410D02*
X13665D01*
X13119Y48323D02*
X13206Y48410D01*
X13119Y46012D02*
Y48323D01*
X14656Y48999D02*
X14658Y48997D01*
X14656Y48999D02*
Y49212D01*
X14783Y49339D01*
X15646D01*
X16332Y50025D01*
Y52019D01*
X16284Y52068D02*
X16332Y52019D01*
X16002Y52068D02*
X16284D01*
D33*
X20015Y51524D02*
Y52591D01*
X19113Y50622D02*
X20015Y51524D01*
X17203Y50622D02*
X19113D01*
X17183Y50602D02*
X17203Y50622D01*
X2959Y51714D02*
X3467D01*
X3835D01*
X3937Y51613D01*
Y51067D02*
Y51613D01*
Y51067D02*
X4020Y50984D01*
X4388D01*
X2959Y50546D02*
X3264D01*
X3467D01*
X3264Y49454D02*
Y50546D01*
Y48054D02*
Y48463D01*
X3562Y48761D01*
X4388D01*
Y49793D02*
Y50984D01*
X4372Y49777D02*
X4388Y49793D01*
X5388Y50984D02*
Y51936D01*
X5372Y48780D02*
Y49777D01*
X5359Y48768D02*
X5372Y48780D01*
X6668Y48184D02*
Y48692D01*
X9843Y48209D02*
Y48717D01*
X6668Y48692D02*
Y50419D01*
X6682Y50433D02*
X7123D01*
X5388Y50984D02*
X5861D01*
X6412Y50433D01*
X6668Y48184D02*
X7023D01*
X7328Y47879D01*
X9207Y47231D02*
Y47879D01*
X7328D02*
X9207D01*
X6668Y50419D02*
X6682Y50433D01*
X6412D02*
X6682D01*
X7595D01*
X13868Y52068D02*
X14376D01*
X14910D01*
X15469D01*
X16002D01*
X13919Y52118D02*
Y52591D01*
X13868Y52068D02*
X13919Y52118D01*
X15951D02*
Y52591D01*
Y52118D02*
X16002Y52068D01*
X14935Y52093D02*
Y52591D01*
X14910Y52068D02*
X14935Y52093D01*
X13868Y51768D02*
X14376D01*
X14910D01*
X15469D01*
X16002D01*
X14928Y50152D02*
Y51117D01*
Y51750D01*
X14910Y51768D02*
X14928Y51750D01*
X9474Y47231D02*
Y47879D01*
X12471D01*
X12548Y47955D01*
Y51460D01*
X12855Y51768D01*
X13868D01*
X23216Y47612D02*
Y47955D01*
Y48120D01*
Y48273D01*
Y48425D01*
Y48577D01*
Y48730D01*
Y48895D01*
Y49047D01*
Y49212D01*
Y49378D01*
Y49543D01*
Y49708D01*
Y49720D01*
X22301Y47612D02*
Y47981D01*
Y48133D01*
Y48285D01*
Y48438D01*
Y48590D01*
Y48743D01*
Y48895D01*
Y49047D01*
Y49200D01*
Y49352D01*
Y49505D01*
Y49657D01*
Y49809D01*
Y49962D01*
X22581Y51981D02*
Y52489D01*
X22047Y47600D02*
Y51105D01*
X22581Y51638D01*
Y51981D01*
X23444D02*
Y52489D01*
X17983Y52591D02*
Y52934D01*
X18085Y53035D01*
X23165D01*
X23444Y52756D01*
Y52489D02*
Y52756D01*
X22962Y47612D02*
Y50635D01*
X23736Y51410D02*
X24181D01*
X24282Y51511D01*
Y51981D01*
X22962Y50635D02*
X23736Y51410D01*
X24282Y51981D02*
Y52489D01*
X25171D01*
X25298Y51887D02*
Y52362D01*
X25171Y52489D02*
X25298Y52362D01*
X17178Y50152D02*
Y51117D01*
D34*
X10604Y38837D02*
X10617Y38824D01*
X10490Y38887D02*
X10541Y38837D01*
X10211Y38887D02*
X10490D01*
X10048Y39050D02*
X10211Y38887D01*
X10541Y38837D02*
X10604D01*
X9944Y39853D02*
X9957D01*
X11519Y40513D02*
X11722Y40310D01*
X10428Y40513D02*
X11519D01*
X12090Y40170D02*
Y40297D01*
X12078Y40310D02*
X12090Y40297D01*
X11722Y40310D02*
X12078D01*
Y40488D02*
X12090Y40500D01*
Y40615D01*
X11659Y40488D02*
X12078D01*
X10428Y40563D02*
X11583D01*
X11659Y40488D01*
X11570Y39853D02*
X11773D01*
X10428Y40413D02*
X11352D01*
X11455Y40463D02*
X11633Y40284D01*
X10428Y40463D02*
X11455D01*
X9548Y41057D02*
X9550Y41059D01*
X9548Y40743D02*
Y41057D01*
X11882Y38184D02*
X12060D01*
X11786Y38087D02*
X11882Y38184D01*
X11786Y37338D02*
Y38087D01*
X11659Y37211D02*
X11786Y37338D01*
X10681Y37211D02*
X11659D01*
X10630Y37262D02*
X10681Y37211D01*
X10630Y37262D02*
Y38595D01*
X10782Y38748D01*
Y39726D01*
X10545Y39963D02*
X10782Y39726D01*
X10428Y39963D02*
X10545D01*
X10428Y40163D02*
X11094D01*
X11138Y40119D01*
Y39814D02*
Y40119D01*
X11024Y39700D02*
X11138Y39814D01*
X11024Y38767D02*
Y39700D01*
Y38767D02*
X11112Y38678D01*
Y38138D02*
Y38678D01*
X10926Y37952D02*
X11112Y38138D01*
X10926Y37824D02*
Y37952D01*
X6871Y38290D02*
Y38798D01*
X6794Y38214D02*
X6871Y38290D01*
X6288Y38214D02*
X6794D01*
X6287Y38215D02*
X6288Y38214D01*
X4915Y39141D02*
X4928Y39154D01*
X5156D01*
X5131Y39180D02*
X5156Y39154D01*
X9498Y40743D02*
Y40933D01*
X9474Y40958D02*
X9498Y40933D01*
X9373Y40958D02*
X9474D01*
X10897Y41440D02*
X10902Y41435D01*
X4496Y38773D02*
X4648Y38926D01*
X4166Y38773D02*
X4496D01*
X4483Y38633D02*
X4699Y38849D01*
X4112Y38633D02*
X4483D01*
X9103Y39913D02*
X9318D01*
X9068Y39878D02*
X9103Y39913D01*
X9068Y39116D02*
Y39878D01*
X8877Y38926D02*
X9068Y39116D01*
X7747Y38926D02*
X8877D01*
X7633Y39040D02*
X7747Y38926D01*
X7633Y39040D02*
Y40221D01*
X9204Y39633D02*
X9498D01*
X9169Y39599D02*
X9204Y39633D01*
X9169Y39040D02*
Y39599D01*
X8890Y38760D02*
X9169Y39040D01*
X7620Y38760D02*
X8890D01*
X7455Y38926D02*
X7620Y38760D01*
X7455Y38926D02*
Y39916D01*
X14288Y38960D02*
Y39091D01*
X14435Y37419D02*
X14440Y37414D01*
X14541D01*
X13881D02*
X14440D01*
X14435Y37419D02*
Y37593D01*
X14994Y37447D02*
Y37593D01*
X14935Y37389D02*
X14994Y37447D01*
X14872Y37389D02*
X14935D01*
X14796Y37313D02*
X14872Y37389D01*
X14643Y37313D02*
X14796D01*
X14541Y37414D02*
X14643Y37313D01*
X13876Y37419D02*
X13881Y37414D01*
X13876Y37419D02*
Y37593D01*
X18072Y38420D02*
X18075Y38423D01*
X18370D01*
X18375Y38417D01*
X18745D01*
X16953Y38571D02*
X16954Y38570D01*
X16647Y38571D02*
X16953D01*
X18174Y40577D02*
Y41112D01*
X18326D02*
X18479D01*
X18174D02*
X18326D01*
X11506Y40691D02*
Y40894D01*
X10198Y40743D02*
Y40932D01*
X10274Y41008D01*
X10456D01*
X10490Y40974D01*
Y40754D02*
Y40974D01*
X10439Y40704D02*
X10490Y40754D01*
X10902Y41360D02*
Y41435D01*
X10350Y40869D02*
X10363Y40881D01*
X10350Y40805D02*
Y40869D01*
X10288Y40743D02*
X10350Y40805D01*
X10248Y40743D02*
X10288D01*
X11499Y41182D02*
X11508Y41173D01*
X11646D01*
X11633Y39992D02*
Y40284D01*
X11316Y42545D02*
X12344D01*
X11024Y42837D02*
X11316Y42545D01*
X10338Y42837D02*
X11024D01*
X10274Y42774D02*
X10338Y42837D01*
X9525Y42774D02*
X10274D01*
X9411Y42888D02*
X9525Y42774D01*
X8788Y42888D02*
X9411D01*
X8776Y42875D02*
X8788Y42888D01*
X8776Y42786D02*
Y42875D01*
X11379Y42672D02*
X11849D01*
X11112Y42939D02*
X11379Y42672D01*
X9639Y42939D02*
X11112D01*
X12103Y42812D02*
X12141Y42774D01*
X11417Y42812D02*
X12103D01*
X11100Y43129D02*
X11417Y42812D01*
X9182Y43129D02*
X11100D01*
X9848Y39439D02*
Y39633D01*
X9804Y39395D02*
X9848Y39439D01*
X9804Y39230D02*
Y39395D01*
X7811Y39116D02*
Y40323D01*
Y39116D02*
X7899Y39027D01*
X8979Y39192D02*
Y40081D01*
X9010Y40113D01*
X9318D01*
X7899Y39027D02*
X8814D01*
X8979Y39192D01*
X22898Y46723D02*
Y47136D01*
X23025Y46609D02*
Y47136D01*
X22987Y46571D02*
X23025Y46609D01*
X22733Y46571D02*
X22987D01*
X22682Y46622D02*
X22733Y46571D01*
X22682Y46622D02*
Y46840D01*
X21984Y46812D02*
X21988Y46817D01*
Y47142D01*
X22115Y46639D02*
Y47142D01*
X22085Y46609D02*
X22115Y46639D01*
X21793Y46609D02*
X22085D01*
X21768Y46634D02*
X21793Y46609D01*
X21768Y46634D02*
Y46815D01*
X5581Y38798D02*
X5582Y38800D01*
X5436Y38798D02*
X5581D01*
X5385Y38849D02*
X5436Y38798D01*
X4699Y38849D02*
X5385D01*
X5439Y38345D02*
X5582D01*
X5296Y38202D02*
X5439Y38345D01*
X5296Y37592D02*
Y38202D01*
X5163Y37459D02*
X5296Y37592D01*
X5047Y37459D02*
X5163D01*
X11087Y41275D02*
X11100D01*
X11071Y41259D02*
X11087Y41275D01*
X10681Y41259D02*
X11071D01*
X10639Y41300D02*
X10681Y41259D01*
X10579Y41300D02*
X10639D01*
X10528Y41250D02*
X10579Y41300D01*
X10528Y41148D02*
Y41250D01*
Y41148D02*
X10594Y41082D01*
Y40894D02*
Y41082D01*
X5139Y38540D02*
X5582D01*
X4928Y38329D02*
X5139Y38540D01*
X4928Y37910D02*
Y38329D01*
X4902Y37884D02*
X4928Y37910D01*
X4381Y37884D02*
X4902D01*
X4343Y37846D02*
X4381Y37884D01*
X4343Y37757D02*
Y37846D01*
X4318Y37732D02*
X4343Y37757D01*
X4230Y37732D02*
X4318D01*
X4220Y37722D02*
X4230Y37732D01*
X5188Y38475D02*
X5582D01*
X5156Y38443D02*
X5188Y38475D01*
X5156Y38354D02*
Y38443D01*
X5436Y38215D02*
X5582D01*
X5372Y38151D02*
X5436Y38215D01*
X5580Y38671D02*
X5582Y38670D01*
X5423Y38671D02*
X5580D01*
X5347Y38748D02*
X5423Y38671D01*
X5258Y38748D02*
X5347D01*
X5471Y38865D02*
X5582D01*
X5410Y38926D02*
X5471Y38865D01*
X4648Y38926D02*
X5410D01*
X5372Y37871D02*
Y38151D01*
X5415Y38410D02*
X5582D01*
X5034Y38028D02*
X5415Y38410D01*
X5034Y37725D02*
Y38028D01*
X5423Y37821D02*
X6248D01*
X5372Y37871D02*
X5423Y37821D01*
X4991Y38608D02*
X5579D01*
X4915Y38532D02*
X4991Y38608D01*
X5579D02*
X5582Y38605D01*
X5372Y38151D02*
X5581D01*
X5816Y38151D02*
Y38215D01*
Y38151D02*
X5817Y38151D01*
X5816Y38150D02*
X5817Y38151D01*
X5582Y38150D02*
X5816D01*
X5581Y38151D02*
X5582Y38150D01*
X5816Y38215D02*
X5817Y38214D01*
X5582Y38215D02*
X5816D01*
X6287Y38410D02*
X6469D01*
X6528Y38468D01*
Y39078D01*
X6442Y39164D02*
X6528Y39078D01*
X6101Y39164D02*
X6442D01*
X11328Y41859D02*
X11405D01*
X16180Y41872D02*
Y42215D01*
Y41872D02*
X16281Y41770D01*
X15926Y42050D02*
X15951Y42024D01*
Y41999D02*
Y42024D01*
X16053Y42088D02*
X16078Y42062D01*
Y41948D02*
Y42062D01*
X13856Y41961D02*
X13894Y41923D01*
X13856Y41961D02*
Y42231D01*
X13894Y41923D02*
X14008D01*
X14021Y41910D01*
X11367Y39903D02*
X11532Y39738D01*
X11367Y39903D02*
Y40234D01*
X11287Y40313D02*
X11367Y40234D01*
X11532Y39738D02*
X11925D01*
X10428Y40313D02*
X11287D01*
X11849Y41846D02*
X11989D01*
X11839Y41836D02*
X11849Y41846D01*
X11506Y40132D02*
Y40259D01*
X11352Y40413D02*
X11506Y40259D01*
X11839Y41631D02*
Y41836D01*
X11773Y39853D02*
Y39865D01*
X11468Y39954D02*
X11570Y39853D01*
X11468Y39954D02*
Y40094D01*
X11506Y40132D01*
X10224Y40424D02*
X10287Y40361D01*
X10289Y40363D01*
X10428D01*
X10979Y40113D02*
X11024Y40068D01*
Y40056D02*
Y40068D01*
X10428Y40113D02*
X10979D01*
X10909Y38616D02*
X10923Y38603D01*
X10909Y38616D02*
Y39903D01*
X10750Y40063D02*
X10909Y39903D01*
X10428Y40063D02*
X10750D01*
X10147Y40272D02*
X10156Y40263D01*
X10428D01*
X10719Y39929D02*
X10732D01*
X10635Y40013D02*
X10719Y39929D01*
X10428Y40013D02*
X10635D01*
X9948Y38879D02*
Y39633D01*
X9741Y38671D02*
X9948Y38879D01*
X8014Y38671D02*
X9741D01*
X7964Y38622D02*
X8014Y38671D01*
X7964Y38396D02*
Y38622D01*
X9998Y38726D02*
Y39633D01*
X9843Y38570D02*
X9998Y38726D01*
X8496Y38570D02*
X9843D01*
X8456Y38530D02*
X8496Y38570D01*
X8456Y38383D02*
Y38530D01*
X9466Y38367D02*
X9703D01*
X9462Y38371D02*
X9466Y38367D01*
X8984D02*
X9220D01*
X8980Y38371D02*
X8984Y38367D01*
X14021Y41910D02*
X14046D01*
X9318Y40063D02*
Y40113D01*
X8768Y40163D02*
X9318D01*
X8865Y40411D02*
X9013Y40263D01*
X9318D01*
X8357Y40411D02*
X8865D01*
X8317Y40161D02*
X8318Y40162D01*
Y40373D01*
X8357Y40411D01*
X16307Y41948D02*
Y42215D01*
X16281Y41770D02*
X16713D01*
X12090Y40170D02*
X12421D01*
X12078Y40615D02*
X12421D01*
X22682Y47257D02*
X22733Y47308D01*
X22898Y47136D02*
Y47295D01*
X22885Y47308D02*
X22898Y47295D01*
X22733Y47308D02*
X22885D01*
X22682Y47140D02*
Y47257D01*
X21768Y47244D02*
X21819Y47295D01*
X21988Y47142D02*
Y47290D01*
X21984Y47295D02*
X21988Y47290D01*
X21819Y47295D02*
X21984D01*
X21768Y47115D02*
Y47244D01*
X10185Y41224D02*
X10274D01*
X10148Y41187D02*
X10185Y41224D01*
X10148Y40743D02*
Y41187D01*
X9969Y41046D02*
Y41224D01*
X11227Y38837D02*
X12395D01*
X10490Y39611D02*
X10617D01*
X12382Y39649D02*
Y39878D01*
X12344Y39611D02*
X12382Y39649D01*
X16434Y42215D02*
Y42494D01*
X11227Y39611D02*
X12344D01*
X10428Y39673D02*
X10490Y39611D01*
X10428Y39673D02*
Y39813D01*
X15926Y42050D02*
Y42215D01*
X16053Y42088D02*
Y42215D01*
Y41923D02*
X16078Y41948D01*
X16053Y41707D02*
Y41923D01*
X10048Y39050D02*
Y39633D01*
X11227Y38989D02*
X12382D01*
X10287D02*
X10617D01*
X10098Y39178D02*
X10287Y38989D01*
X10098Y39178D02*
Y39633D01*
X10312Y39141D02*
X10617D01*
X10148Y39305D02*
X10312Y39141D01*
X10148Y39305D02*
Y39633D01*
X11227Y39141D02*
X12382D01*
X11227Y39294D02*
X12382D01*
X10312D02*
X10617D01*
X10198Y39408D02*
X10312Y39294D01*
X10198Y39408D02*
Y39633D01*
X10248Y39497D02*
Y39633D01*
Y39497D02*
X10300Y39446D01*
X10617D01*
X16561Y41948D02*
Y42215D01*
X11227Y39446D02*
X12382D01*
X10902Y41360D02*
X10927Y41386D01*
X11499D02*
X11528Y41415D01*
X12065Y41148D02*
X12088Y41125D01*
Y40894D02*
Y41125D01*
X11506Y40894D02*
Y41175D01*
X10894Y41149D02*
X10902Y41157D01*
X10894Y40894D02*
Y41149D01*
X15712Y39154D02*
Y39333D01*
Y38952D02*
Y39154D01*
X16647Y38190D02*
Y38571D01*
X8674Y39310D02*
Y39522D01*
X8729Y39578D01*
Y39653D01*
X8674Y39310D02*
X8679Y39305D01*
X9462Y37789D02*
Y38071D01*
X8980Y37789D02*
Y38071D01*
X8456Y37797D02*
Y38083D01*
X7964Y37789D02*
Y38096D01*
X4454Y39104D02*
X4458Y39100D01*
Y38900D02*
Y39100D01*
X4220Y37722D02*
X4221Y37720D01*
Y37465D02*
Y37720D01*
X5796Y38540D02*
X6121Y38215D01*
X6287D01*
X5582Y38540D02*
X5796D01*
X4166Y38773D02*
X4178D01*
X3937D02*
X4166D01*
X4765Y37460D02*
X4767Y37459D01*
X4532Y37460D02*
X4765D01*
X4750Y37722D02*
X4754Y37725D01*
X4520Y37722D02*
X4750D01*
X3912Y38748D02*
X3937Y38773D01*
X3912Y38633D02*
Y38748D01*
X5821Y38841D02*
Y39164D01*
X5715Y38735D02*
X5821Y38841D01*
X5605Y38735D02*
X5715D01*
X4623Y39256D02*
X4712Y39345D01*
X4559Y39192D02*
X4597Y39230D01*
X4712Y39345D02*
X4737D01*
X4610Y39256D02*
X4623D01*
X4597Y39243D02*
X4610Y39256D01*
X4597Y39230D02*
Y39243D01*
X4542Y39192D02*
X4559D01*
X4454Y39104D02*
X4542Y39192D01*
X4445Y39357D02*
X4457Y39345D01*
X4115Y39357D02*
X4445D01*
X8317Y39524D02*
X8379Y39462D01*
Y39305D02*
Y39462D01*
X8317Y39524D02*
Y39653D01*
X9848Y40526D02*
X10084D01*
X9848D02*
Y40743D01*
Y40157D02*
Y40526D01*
Y40094D02*
X10185D01*
X9848D02*
Y40157D01*
Y39633D02*
Y40094D01*
X10185D02*
X10304Y40213D01*
X10428D01*
X9898Y39633D02*
Y39807D01*
X9944Y39853D01*
X9843Y40163D02*
X9848Y40157D01*
X9318Y40163D02*
X9843D01*
X9665Y40313D02*
Y40538D01*
Y40313D02*
X9769D01*
X9318D02*
X9665D01*
X9769D02*
X9798Y40342D01*
Y40743D01*
X9969Y41046D02*
X10098Y40917D01*
Y40743D02*
Y40917D01*
X11278Y41440D02*
X11316Y41402D01*
X11482D01*
X11499Y41386D01*
X14503Y43305D02*
X14658D01*
X14694Y43269D01*
Y42672D02*
Y43269D01*
X9360Y39230D02*
X9804D01*
X10916Y40684D02*
X11721D01*
X12088Y40828D02*
Y40894D01*
X11721Y40684D02*
X11944D01*
X12088Y40828D01*
X11938Y41427D02*
X11989D01*
X12065Y41351D01*
X6287Y38280D02*
X6670D01*
X6731Y38341D01*
Y39167D01*
X6871Y39307D01*
X7099D01*
X7214Y39421D01*
Y40348D01*
X7428Y40563D01*
X9318D01*
X6287Y38020D02*
X6981D01*
X7061Y38100D01*
Y39141D01*
X7290Y39370D01*
Y40284D01*
X7518Y40513D01*
X9318D01*
D35*
X3641Y38392D02*
Y39110D01*
Y37906D02*
Y38392D01*
D36*
X12088Y40894D02*
X12101Y40881D01*
X12382D01*
X13475Y39129D02*
X13500D01*
X13399D02*
X13475D01*
X13464Y39118D02*
X13475Y39129D01*
X13373Y39700D02*
X13386Y39688D01*
X13373Y39700D02*
Y39738D01*
Y39154D02*
Y39700D01*
X13081Y37744D02*
X13843D01*
X13005Y38748D02*
X13157Y38900D01*
X13453D01*
X13876Y37593D02*
X13881Y37598D01*
Y37706D01*
X13843Y37744D02*
X13881Y37706D01*
X13005Y37821D02*
X13081Y37744D01*
X13005Y37821D02*
Y38748D01*
X13453Y38900D02*
X13464Y38889D01*
X13551Y39230D02*
X14097D01*
X13499Y39283D02*
X13551Y39230D01*
X14148Y39281D02*
Y39370D01*
X14097Y39230D02*
X14148Y39281D01*
X13499Y39283D02*
Y39479D01*
X13779Y39904D02*
X13792Y39916D01*
X13779Y39738D02*
Y39904D01*
X13729Y39688D02*
X13779Y39738D01*
X13386Y39688D02*
X13729D01*
X13373Y39700D02*
Y39853D01*
X13464Y38889D02*
Y39118D01*
X13475Y39129D02*
X14249D01*
X13373Y39154D02*
X13399Y39129D01*
X14249D02*
X14288Y39091D01*
X14719Y37452D02*
Y37588D01*
X16647Y39225D02*
Y39333D01*
X16360Y38938D02*
X16647Y39225D01*
X11189Y42062D02*
X12421D01*
X10729Y41603D02*
X11189Y42062D01*
X10516Y41603D02*
X10729D01*
X11278Y41284D02*
X11281Y41288D01*
X11582D01*
X11595Y41300D01*
Y41478D01*
X11582Y41491D02*
X11595Y41478D01*
X11455Y41491D02*
X11582D01*
X11316Y41631D02*
X11455Y41491D01*
X11229Y41631D02*
X11316D01*
X11875Y39967D02*
X12116D01*
X11790Y40051D02*
X11875Y39967D01*
X11790Y40051D02*
Y40170D01*
X13233Y39992D02*
X13373Y39853D01*
X12687Y39992D02*
X13233D01*
X12760Y37596D02*
X13589D01*
X12573Y37783D02*
X12760Y37596D01*
X12573Y37783D02*
Y42799D01*
X12433Y42939D02*
X12573Y42799D01*
X11455Y42939D02*
X12433D01*
X11369Y43025D02*
X11455Y42939D01*
X11369Y43025D02*
Y43155D01*
X11811Y40917D02*
Y41283D01*
X11788Y40894D02*
X11811Y40917D01*
X11786Y41308D02*
X11811Y41283D01*
X11786Y41308D02*
Y41453D01*
X11839Y41506D02*
Y41631D01*
X11786Y41453D02*
X11839Y41506D01*
X11278Y40965D02*
Y41284D01*
X11206Y40894D02*
X11278Y40965D01*
X11227Y41643D02*
Y41758D01*
X12306Y41821D02*
X12408D01*
X12167Y41961D02*
X12306Y41821D01*
X11722Y41961D02*
X12167D01*
X11557Y41796D02*
X11722Y41961D01*
X11557Y41658D02*
Y41796D01*
X11529Y41631D02*
X11557Y41658D01*
X15278Y38400D02*
Y38608D01*
Y38400D02*
X15435D01*
X14796D02*
X15278D01*
Y38960D02*
Y39154D01*
X14796Y38960D02*
X15278D01*
X15532Y39154D02*
X15712D01*
X15329Y39357D02*
X15532Y39154D01*
X14948Y39357D02*
X15329D01*
X14668Y39078D02*
X14948Y39357D01*
X14668Y38960D02*
Y39078D01*
X11227Y41758D02*
X11328Y41859D01*
X13450Y38240D02*
X13464Y38254D01*
X13297Y38240D02*
X13450D01*
X12139Y41631D02*
X12408D01*
X14060Y39902D02*
X14312D01*
X14046Y39916D02*
X14060Y39902D01*
X14566Y39205D02*
Y39602D01*
X14541Y39180D02*
X14566Y39205D01*
X14541Y38960D02*
Y39180D01*
X14376Y38176D02*
X14415Y38214D01*
Y38400D01*
X14541Y38064D02*
Y38400D01*
X14452Y37974D02*
X14541Y38064D01*
X14452Y37896D02*
Y37974D01*
X16347Y38925D02*
X16360Y38938D01*
X16347Y38571D02*
Y38925D01*
X13588Y37897D02*
X13589Y37896D01*
X13208Y37897D02*
X13588D01*
X13132Y37973D02*
X13208Y37897D01*
X13132Y37973D02*
Y38494D01*
X13183Y38545D01*
X13452D01*
X13464Y38532D01*
X11369Y43155D02*
Y43459D01*
X14706Y37896D02*
X14960D01*
X14435Y37893D02*
X14714D01*
X15875Y38519D02*
X15927Y38571D01*
X16012D01*
X15875Y37884D02*
Y38519D01*
X15812Y37821D02*
X15875Y37884D01*
X15723Y37821D02*
X15812D01*
X15712Y37809D02*
X15723Y37821D01*
X15435Y38400D02*
X15532Y38303D01*
X15582Y37809D02*
X15712D01*
X15532Y37859D02*
X15582Y37809D01*
X15532Y37859D02*
Y38303D01*
X14034Y38960D02*
X14160D01*
X14566Y39602D02*
X14821D01*
X14312D02*
X14566D01*
X13486Y38254D02*
X13764Y38532D01*
X13464Y38254D02*
X13486D01*
X14160Y38252D02*
Y38400D01*
Y38228D02*
Y38252D01*
X14159Y38254D02*
X14160Y38252D01*
X13764Y38254D02*
X14159D01*
X14155Y37593D02*
Y37614D01*
X13876Y37893D02*
X14155Y37614D01*
X13589Y37896D02*
X13873D01*
X13876Y37893D01*
X14714Y37593D02*
X14719Y37588D01*
X18367Y38720D02*
X18370Y38723D01*
X18072Y38720D02*
X18367D01*
X16347Y37809D02*
Y38190D01*
X16012D02*
X16347D01*
X16012Y37809D02*
Y38190D01*
Y37809D02*
X16347D01*
Y39287D02*
Y39333D01*
X16012Y38952D02*
X16347Y39287D01*
X16599Y39548D02*
X16647Y39500D01*
X16091Y39548D02*
X16599D01*
X16012Y39469D02*
X16091Y39548D01*
X16647Y39333D02*
Y39500D01*
X16012Y39333D02*
Y39469D01*
X14202Y37907D02*
Y38187D01*
X14160Y38228D02*
X14202Y38187D01*
X15532Y40361D02*
Y41529D01*
X15456Y41605D02*
X15532Y41529D01*
X15278Y40488D02*
X15392D01*
X15430Y40526D01*
Y41389D01*
X15342Y41478D02*
X15430Y41389D01*
X14808Y41478D02*
X15342D01*
X15037Y40564D02*
X15164D01*
X15278Y40678D01*
Y41224D01*
X15176Y41326D02*
X15278Y41224D01*
X14656Y41326D02*
X15176D01*
X16660Y38938D02*
X16789D01*
X17234Y39383D01*
Y40792D01*
X17843Y41402D01*
X18163D01*
X18174Y41412D01*
X16647Y37809D02*
X17476D01*
X17590Y37922D01*
Y38646D01*
X17663Y38720D01*
X18072D01*
X18174Y41412D02*
X18479D01*
X14668Y38400D02*
Y38697D01*
X14796Y38824D01*
X15430D01*
X15712Y38542D01*
Y38190D02*
Y38542D01*
X15278Y38960D02*
X15460D01*
X15646Y38773D01*
X15964D01*
X16015Y38824D01*
Y38949D01*
X16012Y38952D02*
X16015Y38949D01*
X13764Y38532D02*
X13995D01*
X14034Y38494D01*
Y38400D02*
Y38494D01*
X13764Y38889D02*
X13867D01*
X13966Y38790D01*
X14220D01*
X14288Y38722D01*
Y38400D02*
Y38722D01*
D37*
X7890Y44336D02*
Y44382D01*
X7866Y44359D02*
X7913D01*
X7925Y44406D02*
Y44429D01*
Y44417D01*
X7855D01*
X7866Y44406D01*
X7855Y44511D02*
Y44464D01*
X7890D01*
X7878Y44487D01*
Y44499D01*
X7890Y44511D01*
X7913D01*
X7925Y44499D01*
Y44476D01*
X7913Y44464D01*
X7855Y44534D02*
X7901D01*
X7925Y44557D01*
X7901Y44581D01*
X7855D01*
X7936Y44604D02*
Y44651D01*
X7855Y44674D02*
X7925D01*
Y44709D01*
X7913Y44721D01*
X7866D01*
X7855Y44709D01*
Y44674D01*
X7925Y44744D02*
X7855D01*
Y44779D01*
X7866Y44791D01*
X7890D01*
X7901Y44779D01*
Y44744D01*
Y44767D02*
X7925Y44791D01*
X7855Y44814D02*
X7901D01*
X7925Y44837D01*
X7901Y44861D01*
X7855D01*
X8245Y46317D02*
Y46364D01*
X8222Y46340D02*
X8269D01*
X8210Y46434D02*
Y46387D01*
X8245D01*
X8234Y46410D01*
Y46422D01*
X8245Y46434D01*
X8269D01*
X8280Y46422D01*
Y46399D01*
X8269Y46387D01*
X8210Y46457D02*
X8257D01*
X8280Y46480D01*
X8257Y46504D01*
X8210D01*
X8292Y46527D02*
Y46573D01*
X8210Y46597D02*
X8280D01*
Y46632D01*
X8269Y46643D01*
X8222D01*
X8210Y46632D01*
Y46597D01*
X8280Y46667D02*
X8210D01*
Y46702D01*
X8222Y46713D01*
X8245D01*
X8257Y46702D01*
Y46667D01*
Y46690D02*
X8280Y46713D01*
X8210Y46737D02*
X8257D01*
X8280Y46760D01*
X8257Y46783D01*
X8210D01*
X7293Y42685D02*
Y42731D01*
X7270Y42708D02*
X7316D01*
X7258Y42801D02*
Y42755D01*
X7293D01*
X7281Y42778D01*
Y42790D01*
X7293Y42801D01*
X7316D01*
X7328Y42790D01*
Y42766D01*
X7316Y42755D01*
X7258Y42825D02*
X7305D01*
X7328Y42848D01*
X7305Y42871D01*
X7258D01*
X7340Y42895D02*
Y42941D01*
X7258Y42965D02*
X7328D01*
Y43000D01*
X7316Y43011D01*
X7270D01*
X7258Y43000D01*
Y42965D01*
Y43035D02*
Y43058D01*
Y43046D01*
X7328D01*
Y43035D01*
Y43058D01*
X7270Y43140D02*
X7258Y43128D01*
Y43105D01*
X7270Y43093D01*
X7316D01*
X7328Y43105D01*
Y43128D01*
X7316Y43140D01*
X7293D01*
Y43116D01*
X7382Y40996D02*
Y41042D01*
X7358Y41019D02*
X7405D01*
X7417Y41066D02*
Y41089D01*
Y41077D01*
X7347D01*
X7358Y41066D01*
X7347Y41171D02*
Y41124D01*
X7382D01*
X7370Y41147D01*
Y41159D01*
X7382Y41171D01*
X7405D01*
X7417Y41159D01*
Y41136D01*
X7405Y41124D01*
X7347Y41194D02*
X7393D01*
X7417Y41217D01*
X7393Y41241D01*
X7347D01*
X7428Y41264D02*
Y41310D01*
X7417Y41334D02*
X7370D01*
X7347Y41357D01*
X7370Y41380D01*
X7417D01*
X7382D01*
Y41334D01*
X7417Y41404D02*
X7347D01*
X7417Y41450D01*
X7347D01*
X7417Y41474D02*
X7370D01*
X7347Y41497D01*
X7370Y41520D01*
X7417D01*
X7382D01*
Y41474D01*
X7268Y38583D02*
Y38629D01*
X7303Y38653D02*
Y38676D01*
Y38664D01*
X7233D01*
X7244Y38653D01*
X7233Y38758D02*
Y38711D01*
X7268D01*
X7256Y38734D01*
Y38746D01*
X7268Y38758D01*
X7291D01*
X7303Y38746D01*
Y38723D01*
X7291Y38711D01*
X7233Y38781D02*
X7279D01*
X7303Y38804D01*
X7279Y38828D01*
X7233D01*
X7314Y38851D02*
Y38897D01*
X7303Y38921D02*
X7256D01*
X7233Y38944D01*
X7256Y38967D01*
X7303D01*
X7268D01*
Y38921D01*
X7303Y38991D02*
X7233D01*
X7303Y39037D01*
X7233D01*
X7303Y39061D02*
X7256D01*
X7233Y39084D01*
X7256Y39107D01*
X7303D01*
X7268D01*
Y39061D01*
D38*
X10333Y39778D02*
G03*
X10333Y39778I-50J0D01*
G01*
X4253Y37906D02*
Y39110D01*
X2613Y37906D02*
Y39110D01*
X4253D01*
X2613Y37906D02*
X4253D01*
X9373Y40688D02*
X10373D01*
X9373Y39688D02*
X10373D01*
X9373D02*
Y40688D01*
X10373Y39688D02*
Y40688D01*
D39*
X2502Y37008D02*
Y53251D01*
Y37008D02*
X28245D01*
Y53251D01*
X2502D02*
X28245D01*
D40*
X13043Y52750D02*
D03*
X3250D02*
D03*
X3000Y37500D02*
D03*
X17500D02*
D03*
X27500Y52750D02*
D03*
X27000Y37500D02*
D03*
D41*
X24282Y52489D02*
D03*
Y51981D02*
D03*
X23444D02*
D03*
Y52489D02*
D03*
X9843Y48717D02*
D03*
Y48209D02*
D03*
X6668Y48184D02*
D03*
Y48692D02*
D03*
X22581Y52489D02*
D03*
Y51981D02*
D03*
D42*
X2959Y50546D02*
D03*
X3467D02*
D03*
X2959Y51714D02*
D03*
X3467D02*
D03*
D43*
X6312Y39772D02*
D03*
X6338Y42162D02*
D03*
X3327Y44628D02*
D03*
X6350Y43313D02*
D03*
X7455Y45380D02*
D03*
X7328Y46997D02*
D03*
X3372Y43696D02*
D03*
X4896D02*
D03*
X5658D02*
D03*
X3372Y42172D02*
D03*
X5658D02*
D03*
X4896D02*
D03*
X2864Y43696D02*
D03*
X3118D02*
D03*
X5150D02*
D03*
X5404D02*
D03*
X3118Y42172D02*
D03*
X5404D02*
D03*
X5150D02*
D03*
X4470Y45847D02*
D03*
X5994D02*
D03*
X6756D02*
D03*
X4470Y44323D02*
D03*
X6756D02*
D03*
X5994D02*
D03*
X3962Y45847D02*
D03*
X4216D02*
D03*
X6248D02*
D03*
X6502D02*
D03*
X4216Y44323D02*
D03*
X6502D02*
D03*
X6248D02*
D03*
X6312Y41039D02*
D03*
X3372Y41325D02*
D03*
X4896D02*
D03*
X5658D02*
D03*
X3372Y39801D02*
D03*
X5658D02*
D03*
X4896D02*
D03*
X2864Y41325D02*
D03*
X3118D02*
D03*
X5150D02*
D03*
X5404D02*
D03*
X3118Y39801D02*
D03*
X5404D02*
D03*
X5150D02*
D03*
X13538Y39916D02*
D03*
X13792D02*
D03*
D44*
X6312Y40122D02*
D03*
X6338Y42512D02*
D03*
X6350Y43663D02*
D03*
X7455Y45730D02*
D03*
X7328Y46647D02*
D03*
X2864Y42172D02*
D03*
X3962Y44323D02*
D03*
X6312Y41389D02*
D03*
X2864Y39801D02*
D03*
X14046Y39916D02*
D03*
D45*
X2977Y44628D02*
D03*
D46*
X4359Y48768D02*
D03*
X5359D02*
D03*
X5388Y50984D02*
D03*
X4388D02*
D03*
X4372Y49777D02*
D03*
X5372D02*
D03*
X5388Y51936D02*
D03*
X4388D02*
D03*
D47*
X7557Y48451D02*
D03*
X8957D02*
D03*
X3264Y49454D02*
D03*
Y48054D02*
D03*
D48*
X19183Y38583D02*
D03*
Y39345D02*
D03*
X21215D02*
D03*
X19183Y37821D02*
D03*
X21215D02*
D03*
X19183Y41276D02*
D03*
Y42038D02*
D03*
X21215D02*
D03*
X19183Y40514D02*
D03*
X21215D02*
D03*
X11455Y44272D02*
D03*
X10693D02*
D03*
Y46304D02*
D03*
X12217Y44272D02*
D03*
Y46304D02*
D03*
D49*
X12166Y47148D02*
D03*
Y52990D02*
D03*
X10744Y47148D02*
D03*
Y52990D02*
D03*
X22103Y39282D02*
D03*
X27945D02*
D03*
X22103Y37885D02*
D03*
X27945D02*
D03*
X22129Y41949D02*
D03*
X27971D02*
D03*
X22103Y40602D02*
D03*
X27945D02*
D03*
X27445Y49047D02*
D03*
Y43205D02*
D03*
X25133Y49047D02*
D03*
Y43205D02*
D03*
X26276Y49047D02*
D03*
Y43205D02*
D03*
D50*
X12060Y38184D02*
D03*
X11410D02*
D03*
X12060Y38584D02*
D03*
X11410D02*
D03*
X12060Y37422D02*
D03*
X11410D02*
D03*
X12060Y37822D02*
D03*
X11410D02*
D03*
X10923Y38203D02*
D03*
X10273D02*
D03*
X10923Y38603D02*
D03*
X10273D02*
D03*
X10926Y37424D02*
D03*
X10276D02*
D03*
X10926Y37824D02*
D03*
X10276D02*
D03*
X10914Y42714D02*
D03*
Y42064D02*
D03*
X10514Y42714D02*
D03*
Y42064D02*
D03*
D51*
X7595Y50433D02*
D03*
D52*
Y51333D02*
D03*
D53*
X9220Y42647D02*
D03*
D54*
Y42393D02*
D03*
Y41885D02*
D03*
Y41631D02*
D03*
Y42139D02*
D03*
X3912Y38633D02*
D03*
Y38383D02*
D03*
X4112Y38633D02*
D03*
X6248Y47015D02*
D03*
X5486D02*
D03*
X4470D02*
D03*
X4978D02*
D03*
X5232D02*
D03*
X5740D02*
D03*
X5994D02*
D03*
D55*
X3641Y39110D02*
D03*
Y37906D02*
D03*
D56*
X3505Y46965D02*
D03*
Y46457D02*
D03*
D57*
X27635Y49637D02*
D03*
Y51887D02*
D03*
X25298Y49637D02*
D03*
Y51887D02*
D03*
X26467Y49637D02*
D03*
Y51887D02*
D03*
X17178Y51117D02*
D03*
X14928D02*
D03*
X17178Y50152D02*
D03*
X14928D02*
D03*
D58*
X21031Y47701D02*
D03*
X20269D02*
D03*
X20015D02*
D03*
X19253D02*
D03*
X17983D02*
D03*
X17221D02*
D03*
X16967D02*
D03*
X16205D02*
D03*
X15697D02*
D03*
X15443D02*
D03*
X14935D02*
D03*
X14681D02*
D03*
X14173D02*
D03*
X13919D02*
D03*
X21285D02*
D03*
X18999D02*
D03*
X18237D02*
D03*
X15951D02*
D03*
X15189D02*
D03*
X14427D02*
D03*
X13665D02*
D03*
D59*
X20015Y52591D02*
D03*
X17983D02*
D03*
X16967D02*
D03*
X14935D02*
D03*
X13919D02*
D03*
X18999D02*
D03*
X15951D02*
D03*
D60*
X20841Y50495D02*
D03*
X14110D02*
D03*
D61*
X18720Y50622D02*
D03*
X18567D02*
D03*
X18415D02*
D03*
X18263D02*
D03*
X18110D02*
D03*
X17958D02*
D03*
X17805D02*
D03*
X17348D02*
D03*
X17653D02*
D03*
X17501D02*
D03*
X17178Y50475D02*
D03*
X17181Y50622D02*
D03*
X17175Y50330D02*
D03*
X17178Y50780D02*
D03*
Y50930D02*
D03*
D62*
X10617Y38824D02*
D03*
X9957Y39853D02*
D03*
X16408Y43612D02*
D03*
X12382Y40881D02*
D03*
X4458Y38900D02*
D03*
X14148Y39370D02*
D03*
X14567Y40081D02*
D03*
X14719Y37452D02*
D03*
X18745Y38417D02*
D03*
X16954Y38570D02*
D03*
X17094Y40577D02*
D03*
X18174D02*
D03*
X10757Y40678D02*
D03*
X10706Y41770D02*
D03*
X9563Y41592D02*
D03*
X11278Y41440D02*
D03*
X11646Y41173D02*
D03*
X12687Y39992D02*
D03*
X12116Y39967D02*
D03*
X11633Y39992D02*
D03*
X12878Y42393D02*
D03*
X12395D02*
D03*
X12344Y42545D02*
D03*
X12141Y42774D02*
D03*
X11849Y42672D02*
D03*
X12078Y42266D02*
D03*
X7226Y40704D02*
D03*
Y41059D02*
D03*
X9284Y40704D02*
D03*
X7277Y42494D02*
D03*
X9804Y39230D02*
D03*
X7277Y43383D02*
D03*
X7811Y43243D02*
D03*
X9817Y45364D02*
D03*
X8915Y41681D02*
D03*
X8585D02*
D03*
X8712Y42558D02*
D03*
X8700Y43294D02*
D03*
X9081Y44704D02*
D03*
Y46114D02*
D03*
Y46457D02*
D03*
X9550Y41059D02*
D03*
X9373Y40958D02*
D03*
X8014Y39649D02*
D03*
X8547Y39916D02*
D03*
X12738Y41250D02*
D03*
X22898Y46723D02*
D03*
X22758Y46444D02*
D03*
X20104Y42532D02*
D03*
X21984Y46812D02*
D03*
X7557Y41605D02*
D03*
X11100Y41262D02*
D03*
X15037Y40564D02*
D03*
X15532Y40361D02*
D03*
X15278Y40488D02*
D03*
X12395Y41250D02*
D03*
X20168Y43180D02*
D03*
X23190Y46101D02*
D03*
X18174Y43002D02*
D03*
X12776Y42799D02*
D03*
X14503D02*
D03*
X15634Y42697D02*
D03*
X16205D02*
D03*
X14122Y43002D02*
D03*
X13475Y42989D02*
D03*
X15342Y42951D02*
D03*
X14275Y42456D02*
D03*
X10185Y41999D02*
D03*
X7722Y41783D02*
D03*
X5156Y39154D02*
D03*
X5258Y38748D02*
D03*
X5156Y38354D02*
D03*
X6528Y39078D02*
D03*
X6248Y37821D02*
D03*
X6871Y38798D02*
D03*
X8115Y39307D02*
D03*
X15278Y38608D02*
D03*
X12421Y42062D02*
D03*
X15278Y39154D02*
D03*
X14808Y41478D02*
D03*
X12408Y41821D02*
D03*
X13297Y38240D02*
D03*
X14656Y41326D02*
D03*
X12408Y41631D02*
D03*
X15951Y41999D02*
D03*
X11925Y39738D02*
D03*
X11989Y41846D02*
D03*
X11773Y39865D02*
D03*
X11024Y40056D02*
D03*
X11227Y39611D02*
D03*
X10224Y40424D02*
D03*
X10147Y40272D02*
D03*
X11405Y41859D02*
D03*
X10732Y39929D02*
D03*
X8776Y42786D02*
D03*
X9182Y43129D02*
D03*
X7455Y39916D02*
D03*
X7633Y40221D02*
D03*
X7811Y40323D02*
D03*
X9703Y38367D02*
D03*
X9220D02*
D03*
X14046Y41910D02*
D03*
X9639Y42939D02*
D03*
X13170Y42545D02*
D03*
X16307Y41948D02*
D03*
X9665Y44729D02*
D03*
X10439Y40704D02*
D03*
X10363Y40881D02*
D03*
X9969Y41224D02*
D03*
X9881Y47371D02*
D03*
X19787Y40526D02*
D03*
X17755Y38392D02*
D03*
X14351Y39256D02*
D03*
X14376Y38176D02*
D03*
X11227Y38837D02*
D03*
X16434Y42494D02*
D03*
X12382Y39878D02*
D03*
X10617Y39611D02*
D03*
X16053Y41707D02*
D03*
X12395Y38837D02*
D03*
X12382Y38989D02*
D03*
X11227D02*
D03*
X10617D02*
D03*
X12382Y39141D02*
D03*
X11227D02*
D03*
X10617D02*
D03*
X16713Y41770D02*
D03*
X12382Y39294D02*
D03*
X11227D02*
D03*
X10617D02*
D03*
X16561Y41948D02*
D03*
X12382Y39446D02*
D03*
X11227D02*
D03*
X10617D02*
D03*
X11938Y41427D02*
D03*
X4915Y38532D02*
D03*
X4115Y39357D02*
D03*
X10084Y40526D02*
D03*
X9665Y40538D02*
D03*
X10274Y41224D02*
D03*
X17818Y44323D02*
D03*
X16942Y43650D02*
D03*
X16015Y44272D02*
D03*
X14224D02*
D03*
X14605Y43828D02*
D03*
X24727Y49720D02*
D03*
X24714Y46431D02*
D03*
X16497Y46228D02*
D03*
X16916D02*
D03*
X16320Y46380D02*
D03*
X17170D02*
D03*
X16167Y46571D02*
D03*
X17183Y46596D02*
D03*
X13589Y45174D02*
D03*
X14478D02*
D03*
X16256Y45161D02*
D03*
X17742Y45148D02*
D03*
X18631Y45161D02*
D03*
X16840Y45148D02*
D03*
X15367Y45161D02*
D03*
X15456Y41605D02*
D03*
X14694Y42672D02*
D03*
X16218Y45618D02*
D03*
X18136Y45631D02*
D03*
X12500Y37567D02*
D03*
X9360Y39230D02*
D03*
X9081Y44044D02*
D03*
X23355Y45720D02*
D03*
X16281Y40462D02*
D03*
X21984Y45860D02*
D03*
X19520Y45047D02*
D03*
Y44679D02*
D03*
X17297Y46190D02*
D03*
X20015Y46888D02*
D03*
X17043Y45885D02*
D03*
X15989Y45517D02*
D03*
X16980Y46723D02*
D03*
X14376D02*
D03*
X13919Y46901D02*
D03*
X14173D02*
D03*
X20129Y44107D02*
D03*
X20117Y45441D02*
D03*
X16662Y45783D02*
D03*
X20206Y44552D02*
D03*
X20384Y43840D02*
D03*
X15710Y46304D02*
D03*
X13284Y45491D02*
D03*
X18809Y45161D02*
D03*
X9474Y47523D02*
D03*
X13030Y45923D02*
D03*
X16789Y45657D02*
D03*
X13119Y48247D02*
D03*
D63*
X22301Y47981D02*
D03*
Y48133D02*
D03*
Y48285D02*
D03*
Y48438D02*
D03*
Y48590D02*
D03*
Y48743D02*
D03*
Y48895D02*
D03*
Y49047D02*
D03*
Y49200D02*
D03*
Y49352D02*
D03*
Y49505D02*
D03*
Y49657D02*
D03*
Y49809D02*
D03*
Y49962D02*
D03*
X23216Y47955D02*
D03*
Y48120D02*
D03*
Y48425D02*
D03*
Y48273D02*
D03*
Y48895D02*
D03*
Y49708D02*
D03*
Y49543D02*
D03*
Y49378D02*
D03*
Y49212D02*
D03*
Y49047D02*
D03*
Y48730D02*
D03*
Y48577D02*
D03*
M02*
